<svg width="390" height="817" viewBox="0 0 390 817" fill="none" xmlns="http://www.w3.org/2000/svg" xmlns:xlink="http://www.w3.org/1999/xlink">
<rect y="143" width="390" height="487" fill="url(#pattern0)"/>
<rect width="390" height="110" fill="#008069"/>
<rect y="673" width="390" height="144" rx="20" fill="#008069"/>
<path d="M13.8169 69.9333C13.8169 70.55 14.0169 71.0667 14.4336 71.4667L20.8336 77.7167C21.2002 78.1333 21.6836 78.35 22.2502 78.35C22.8336 78.35 23.3336 78.15 23.7336 77.7667C24.1336 77.3833 24.3502 76.8833 24.3502 76.3C24.3502 75.7167 24.1502 75.2167 23.7336 74.8167L21.0002 72.0833H38.1669C38.7502 72.0833 39.2336 71.8833 39.6169 71.4667C40.0002 71.05 40.1836 70.55 40.1836 69.9667C40.1836 69.3833 40.0002 68.8833 39.6169 68.4667C39.2336 68.05 38.7502 67.8333 38.1669 67.8167H21.0002L23.7336 65.05C24.1336 64.65 24.3502 64.1667 24.3502 63.6167C24.3502 63.0333 24.1502 62.5333 23.7336 62.1333C23.3169 61.7333 22.8336 61.5 22.2336 61.5C21.7002 61.5 21.2169 61.7333 20.8169 62.1833L14.4169 68.4333C14.0169 68.85 13.8169 69.3333 13.8169 69.9333Z" fill="#FFFBFF"/>
<path d="M52.216 75V64.024H60.312V65.976H54.6V68.696H59.704V70.632H54.6V75H52.216ZM67.2891 75.192C66.1265 75.192 65.1238 74.984 64.2811 74.568C63.4385 74.152 62.7931 73.5227 62.3451 72.68C61.8971 71.8373 61.6731 70.7813 61.6731 69.512C61.6731 68.2213 61.8971 67.16 62.3451 66.328C62.7931 65.4853 63.4385 64.8613 64.2811 64.456C65.1238 64.04 66.1265 63.832 67.2891 63.832C68.4731 63.832 69.4811 64.04 70.3131 64.456C71.1558 64.8613 71.8011 65.4853 72.2491 66.328C72.6971 67.16 72.9211 68.2213 72.9211 69.512C72.9211 70.7813 72.6971 71.8373 72.2491 72.68C71.8011 73.5227 71.1558 74.152 70.3131 74.568C69.4811 74.984 68.4731 75.192 67.2891 75.192ZM67.2891 73.24C67.8118 73.24 68.2705 73.1653 68.6651 73.016C69.0598 72.8667 69.3905 72.6427 69.6571 72.344C69.9238 72.0453 70.1265 71.6827 70.2651 71.256C70.4038 70.8187 70.4731 70.3227 70.4731 69.768V69.272C70.4731 68.7067 70.4038 68.2053 70.2651 67.768C70.1265 67.3307 69.9238 66.968 69.6571 66.68C69.3905 66.3813 69.0598 66.1573 68.6651 66.008C68.2705 65.8587 67.8118 65.784 67.2891 65.784C66.7771 65.784 66.3238 65.8587 65.9291 66.008C65.5345 66.1573 65.2038 66.3813 64.9371 66.68C64.6705 66.968 64.4678 67.3307 64.3291 67.768C64.2011 68.2053 64.1371 68.7067 64.1371 69.272V69.768C64.1371 70.3227 64.2011 70.8187 64.3291 71.256C64.4678 71.6827 64.6705 72.0453 64.9371 72.344C65.2038 72.6427 65.5345 72.8667 65.9291 73.016C66.3238 73.1653 66.7771 73.24 67.2891 73.24ZM77.1388 75V66.024H73.6188V64.024H83.0748V66.024H79.5388V75H77.1388ZM89.3829 75.192C88.2202 75.192 87.2175 74.984 86.3749 74.568C85.5322 74.152 84.8869 73.5227 84.4389 72.68C83.9909 71.8373 83.7669 70.7813 83.7669 69.512C83.7669 68.2213 83.9909 67.16 84.4389 66.328C84.8869 65.4853 85.5322 64.8613 86.3749 64.456C87.2175 64.04 88.2202 63.832 89.3829 63.832C90.5669 63.832 91.5749 64.04 92.4069 64.456C93.2495 64.8613 93.8949 65.4853 94.3429 66.328C94.7909 67.16 95.0149 68.2213 95.0149 69.512C95.0149 70.7813 94.7909 71.8373 94.3429 72.68C93.8949 73.5227 93.2495 74.152 92.4069 74.568C91.5749 74.984 90.5669 75.192 89.3829 75.192ZM89.3829 73.24C89.9055 73.24 90.3642 73.1653 90.7589 73.016C91.1535 72.8667 91.4842 72.6427 91.7509 72.344C92.0175 72.0453 92.2202 71.6827 92.3589 71.256C92.4975 70.8187 92.5669 70.3227 92.5669 69.768V69.272C92.5669 68.7067 92.4975 68.2053 92.3589 67.768C92.2202 67.3307 92.0175 66.968 91.7509 66.68C91.4842 66.3813 91.1535 66.1573 90.7589 66.008C90.3642 65.8587 89.9055 65.784 89.3829 65.784C88.8709 65.784 88.4175 65.8587 88.0229 66.008C87.6282 66.1573 87.2975 66.3813 87.0309 66.68C86.7642 66.968 86.5615 67.3307 86.4229 67.768C86.2949 68.2053 86.2309 68.7067 86.2309 69.272V69.768C86.2309 70.3227 86.2949 70.8187 86.4229 71.256C86.5615 71.6827 86.7642 72.0453 87.0309 72.344C87.2975 72.6427 87.6282 72.8667 88.0229 73.016C88.4175 73.1653 88.8709 73.24 89.3829 73.24ZM100.091 75V64.024H104.571C105.712 64.024 106.683 64.2213 107.483 64.616C108.283 65.0107 108.896 65.6133 109.323 66.424C109.76 67.224 109.979 68.2533 109.979 69.512C109.979 70.76 109.76 71.7893 109.323 72.6C108.896 73.4107 108.283 74.0133 107.483 74.408C106.683 74.8027 105.712 75 104.571 75H100.091ZM102.475 73.032H104.555C105.035 73.032 105.462 72.9627 105.835 72.824C106.208 72.6853 106.518 72.4827 106.763 72.216C107.008 71.9387 107.195 71.5973 107.323 71.192C107.451 70.776 107.515 70.296 107.515 69.752V69.272C107.515 68.728 107.451 68.2533 107.323 67.848C107.195 67.432 107.008 67.0907 106.763 66.824C106.518 66.5467 106.208 66.3387 105.835 66.2C105.462 66.0507 105.035 65.976 104.555 65.976H102.475V73.032ZM117.039 75.192C115.876 75.192 114.874 74.984 114.031 74.568C113.188 74.152 112.543 73.5227 112.095 72.68C111.647 71.8373 111.423 70.7813 111.423 69.512C111.423 68.2213 111.647 67.16 112.095 66.328C112.543 65.4853 113.188 64.8613 114.031 64.456C114.874 64.04 115.876 63.832 117.039 63.832C118.223 63.832 119.231 64.04 120.063 64.456C120.906 64.8613 121.551 65.4853 121.999 66.328C122.447 67.16 122.671 68.2213 122.671 69.512C122.671 70.7813 122.447 71.8373 121.999 72.68C121.551 73.5227 120.906 74.152 120.063 74.568C119.231 74.984 118.223 75.192 117.039 75.192ZM117.039 73.24C117.562 73.24 118.02 73.1653 118.415 73.016C118.81 72.8667 119.14 72.6427 119.407 72.344C119.674 72.0453 119.876 71.6827 120.015 71.256C120.154 70.8187 120.223 70.3227 120.223 69.768V69.272C120.223 68.7067 120.154 68.2053 120.015 67.768C119.876 67.3307 119.674 66.968 119.407 66.68C119.14 66.3813 118.81 66.1573 118.415 66.008C118.02 65.8587 117.562 65.784 117.039 65.784C116.527 65.784 116.074 65.8587 115.679 66.008C115.284 66.1573 114.954 66.3813 114.687 66.68C114.42 66.968 114.218 67.3307 114.079 67.768C113.951 68.2053 113.887 68.7067 113.887 69.272V69.768C113.887 70.3227 113.951 70.8187 114.079 71.256C114.218 71.6827 114.42 72.0453 114.687 72.344C114.954 72.6427 115.284 72.8667 115.679 73.016C116.074 73.1653 116.527 73.24 117.039 73.24ZM127.747 75V64.024H133.459C134.249 64.024 134.905 64.1733 135.427 64.472C135.961 64.76 136.361 65.1707 136.627 65.704C136.905 66.2267 137.043 66.8507 137.043 67.576C137.043 68.3013 136.899 68.936 136.611 69.48C136.334 70.0133 135.923 70.4293 135.379 70.728C134.835 71.0267 134.169 71.176 133.379 71.176H130.131V75H127.747ZM130.131 69.224H133.059C133.561 69.224 133.945 69.08 134.211 68.792C134.489 68.504 134.627 68.104 134.627 67.592C134.627 67.24 134.569 66.9467 134.451 66.712C134.334 66.4773 134.158 66.296 133.923 66.168C133.699 66.04 133.411 65.976 133.059 65.976H130.131V69.224ZM138.638 75V64.024H147.406V65.976H141.038V68.424H146.67V70.36H141.038V73.032H147.502V75H138.638ZM149.56 75V64.024H155.576C156.386 64.024 157.058 64.168 157.592 64.456C158.136 64.744 158.541 65.1493 158.808 65.672C159.074 66.184 159.208 66.776 159.208 67.448C159.208 68.1627 159.048 68.7973 158.728 69.352C158.408 69.896 157.944 70.312 157.336 70.6L159.576 75H156.936L155 71H151.944V75H149.56ZM151.944 69.112H155.256C155.736 69.112 156.109 68.968 156.376 68.68C156.642 68.3813 156.776 67.9813 156.776 67.48C156.776 67.16 156.717 66.888 156.6 66.664C156.482 66.4293 156.312 66.2533 156.088 66.136C155.864 66.0187 155.586 65.96 155.256 65.96H151.944V69.112ZM161.247 75V64.024H169.343V65.976H163.631V68.696H168.735V70.632H163.631V75H161.247ZM171.2 75V64.024H173.584V75H171.2ZM176.013 75V64.024H178.397V72.968H183.933V75H176.013Z" fill="white"/>
<path d="M28.216 699V688.024H36.312V689.976H30.6V692.696H35.704V694.632H30.6V699H28.216ZM43.2891 699.192C42.1265 699.192 41.1238 698.984 40.2811 698.568C39.4385 698.152 38.7931 697.523 38.3451 696.68C37.8971 695.837 37.6731 694.781 37.6731 693.512C37.6731 692.221 37.8971 691.16 38.3451 690.328C38.7931 689.485 39.4385 688.861 40.2811 688.456C41.1238 688.04 42.1265 687.832 43.2891 687.832C44.4731 687.832 45.4811 688.04 46.3131 688.456C47.1558 688.861 47.8011 689.485 48.2491 690.328C48.6971 691.16 48.9211 692.221 48.9211 693.512C48.9211 694.781 48.6971 695.837 48.2491 696.68C47.8011 697.523 47.1558 698.152 46.3131 698.568C45.4811 698.984 44.4731 699.192 43.2891 699.192ZM43.2891 697.24C43.8118 697.24 44.2705 697.165 44.6651 697.016C45.0598 696.867 45.3905 696.643 45.6571 696.344C45.9238 696.045 46.1265 695.683 46.2651 695.256C46.4038 694.819 46.4731 694.323 46.4731 693.768V693.272C46.4731 692.707 46.4038 692.205 46.2651 691.768C46.1265 691.331 45.9238 690.968 45.6571 690.68C45.3905 690.381 45.0598 690.157 44.6651 690.008C44.2705 689.859 43.8118 689.784 43.2891 689.784C42.7771 689.784 42.3238 689.859 41.9291 690.008C41.5345 690.157 41.2038 690.381 40.9371 690.68C40.6705 690.968 40.4678 691.331 40.3291 691.768C40.2011 692.205 40.1371 692.707 40.1371 693.272V693.768C40.1371 694.323 40.2011 694.819 40.3291 695.256C40.4678 695.683 40.6705 696.045 40.9371 696.344C41.2038 696.643 41.5345 696.867 41.9291 697.016C42.3238 697.165 42.7771 697.24 43.2891 697.24ZM53.1388 699V690.024H49.6188V688.024H59.0748V690.024H55.5388V699H53.1388ZM65.3829 699.192C64.2202 699.192 63.2175 698.984 62.3749 698.568C61.5322 698.152 60.8869 697.523 60.4389 696.68C59.9909 695.837 59.7669 694.781 59.7669 693.512C59.7669 692.221 59.9909 691.16 60.4389 690.328C60.8869 689.485 61.5322 688.861 62.3749 688.456C63.2175 688.04 64.2202 687.832 65.3829 687.832C66.5669 687.832 67.5749 688.04 68.4069 688.456C69.2495 688.861 69.8949 689.485 70.3429 690.328C70.7909 691.16 71.0149 692.221 71.0149 693.512C71.0149 694.781 70.7909 695.837 70.3429 696.68C69.8949 697.523 69.2495 698.152 68.4069 698.568C67.5749 698.984 66.5669 699.192 65.3829 699.192ZM65.3829 697.24C65.9055 697.24 66.3642 697.165 66.7589 697.016C67.1535 696.867 67.4842 696.643 67.7509 696.344C68.0175 696.045 68.2202 695.683 68.3589 695.256C68.4975 694.819 68.5669 694.323 68.5669 693.768V693.272C68.5669 692.707 68.4975 692.205 68.3589 691.768C68.2202 691.331 68.0175 690.968 67.7509 690.68C67.4842 690.381 67.1535 690.157 66.7589 690.008C66.3642 689.859 65.9055 689.784 65.3829 689.784C64.8709 689.784 64.4175 689.859 64.0229 690.008C63.6282 690.157 63.2975 690.381 63.0309 690.68C62.7642 690.968 62.5615 691.331 62.4229 691.768C62.2949 692.205 62.2309 692.707 62.2309 693.272V693.768C62.2309 694.323 62.2949 694.819 62.4229 695.256C62.5615 695.683 62.7642 696.045 63.0309 696.344C63.2975 696.643 63.6282 696.867 64.0229 697.016C64.4175 697.165 64.8709 697.24 65.3829 697.24ZM76.091 699V688.024H80.571C81.7123 688.024 82.683 688.221 83.483 688.616C84.283 689.011 84.8963 689.613 85.323 690.424C85.7603 691.224 85.979 692.253 85.979 693.512C85.979 694.76 85.7603 695.789 85.323 696.6C84.8963 697.411 84.283 698.013 83.483 698.408C82.683 698.803 81.7123 699 80.571 699H76.091ZM78.475 697.032H80.555C81.035 697.032 81.4617 696.963 81.835 696.824C82.2083 696.685 82.5177 696.483 82.763 696.216C83.0083 695.939 83.195 695.597 83.323 695.192C83.451 694.776 83.515 694.296 83.515 693.752V693.272C83.515 692.728 83.451 692.253 83.323 691.848C83.195 691.432 83.0083 691.091 82.763 690.824C82.5177 690.547 82.2083 690.339 81.835 690.2C81.4617 690.051 81.035 689.976 80.555 689.976H78.475V697.032ZM93.0391 699.192C91.8765 699.192 90.8738 698.984 90.0311 698.568C89.1885 698.152 88.5431 697.523 88.0951 696.68C87.6471 695.837 87.4231 694.781 87.4231 693.512C87.4231 692.221 87.6471 691.16 88.0951 690.328C88.5431 689.485 89.1885 688.861 90.0311 688.456C90.8738 688.04 91.8765 687.832 93.0391 687.832C94.2231 687.832 95.2311 688.04 96.0631 688.456C96.9058 688.861 97.5511 689.485 97.9991 690.328C98.4471 691.16 98.6711 692.221 98.6711 693.512C98.6711 694.781 98.4471 695.837 97.9991 696.68C97.5511 697.523 96.9058 698.152 96.0631 698.568C95.2311 698.984 94.2231 699.192 93.0391 699.192ZM93.0391 697.24C93.5618 697.24 94.0205 697.165 94.4151 697.016C94.8098 696.867 95.1405 696.643 95.4071 696.344C95.6738 696.045 95.8765 695.683 96.0151 695.256C96.1538 694.819 96.2231 694.323 96.2231 693.768V693.272C96.2231 692.707 96.1538 692.205 96.0151 691.768C95.8765 691.331 95.6738 690.968 95.4071 690.68C95.1405 690.381 94.8098 690.157 94.4151 690.008C94.0205 689.859 93.5618 689.784 93.0391 689.784C92.5271 689.784 92.0738 689.859 91.6791 690.008C91.2845 690.157 90.9538 690.381 90.6871 690.68C90.4205 690.968 90.2178 691.331 90.0791 691.768C89.9511 692.205 89.8871 692.707 89.8871 693.272V693.768C89.8871 694.323 89.9511 694.819 90.0791 695.256C90.2178 695.683 90.4205 696.045 90.6871 696.344C90.9538 696.643 91.2845 696.867 91.6791 697.016C92.0738 697.165 92.5271 697.24 93.0391 697.24ZM103.747 699V688.024H109.459C110.249 688.024 110.905 688.173 111.427 688.472C111.961 688.76 112.361 689.171 112.627 689.704C112.905 690.227 113.043 690.851 113.043 691.576C113.043 692.301 112.899 692.936 112.611 693.48C112.334 694.013 111.923 694.429 111.379 694.728C110.835 695.027 110.169 695.176 109.379 695.176H106.131V699H103.747ZM106.131 693.224H109.059C109.561 693.224 109.945 693.08 110.211 692.792C110.489 692.504 110.627 692.104 110.627 691.592C110.627 691.24 110.569 690.947 110.451 690.712C110.334 690.477 110.158 690.296 109.923 690.168C109.699 690.04 109.411 689.976 109.059 689.976H106.131V693.224ZM114.638 699V688.024H123.406V689.976H117.038V692.424H122.67V694.36H117.038V697.032H123.502V699H114.638ZM125.56 699V688.024H131.576C132.386 688.024 133.058 688.168 133.592 688.456C134.136 688.744 134.541 689.149 134.808 689.672C135.074 690.184 135.208 690.776 135.208 691.448C135.208 692.163 135.048 692.797 134.728 693.352C134.408 693.896 133.944 694.312 133.336 694.6L135.576 699H132.936L131 695H127.944V699H125.56ZM127.944 693.112H131.256C131.736 693.112 132.109 692.968 132.376 692.68C132.642 692.381 132.776 691.981 132.776 691.48C132.776 691.16 132.717 690.888 132.6 690.664C132.482 690.429 132.312 690.253 132.088 690.136C131.864 690.019 131.586 689.96 131.256 689.96H127.944V693.112ZM137.247 699V688.024H145.343V689.976H139.631V692.696H144.735V694.632H139.631V699H137.247ZM147.2 699V688.024H149.584V699H147.2ZM152.013 699V688.024H154.397V696.968H159.933V699H152.013Z" fill="white"/>
<path d="M373.056 77L364.306 68.95C363.611 69.4611 362.812 69.8657 361.91 70.1639C361.007 70.462 360.046 70.6111 359.028 70.6111C356.505 70.6111 354.369 69.807 352.622 68.1987C350.875 66.5904 350.001 64.626 350 62.3056C350 59.9843 350.874 58.0199 352.622 56.4124C354.37 54.805 356.506 54.0009 359.028 54C361.551 54 363.686 54.8041 365.433 56.4124C367.181 58.0207 368.055 59.9851 368.056 62.3056C368.056 63.2426 367.894 64.1264 367.569 64.9569C367.245 65.7875 366.806 66.5222 366.25 67.1611L375 75.2111L373.056 77ZM359.028 68.0556C360.764 68.0556 362.24 67.4963 363.456 66.3778C364.671 65.2594 365.279 63.9019 365.278 62.3056C365.278 60.7083 364.67 59.3505 363.454 58.232C362.238 57.1135 360.763 56.5547 359.028 56.5556C357.292 56.5556 355.816 57.1148 354.6 58.2333C353.384 59.3518 352.777 60.7092 352.778 62.3056C352.778 63.9028 353.386 65.2606 354.601 66.3791C355.817 67.4976 357.293 68.0564 359.028 68.0556Z" fill="#F5F5F5"/>
<path d="M39.048 778.192C37.928 778.192 36.968 777.995 36.168 777.6C35.3787 777.205 34.7707 776.592 34.344 775.76C33.928 774.917 33.72 773.835 33.72 772.512C33.72 770.581 34.1893 769.152 35.128 768.224C36.0667 767.296 37.3733 766.832 39.048 766.832C39.9547 766.832 40.7707 766.987 41.496 767.296C42.232 767.605 42.8133 768.075 43.24 768.704C43.6773 769.323 43.896 770.112 43.896 771.072H41.768C41.768 770.539 41.6507 770.091 41.416 769.728C41.192 769.355 40.8773 769.072 40.472 768.88C40.0667 768.688 39.6027 768.592 39.08 768.592C38.3547 768.592 37.752 768.736 37.272 769.024C36.792 769.301 36.4347 769.717 36.2 770.272C35.976 770.827 35.864 771.515 35.864 772.336V772.688C35.864 773.52 35.976 774.213 36.2 774.768C36.4347 775.323 36.7867 775.739 37.256 776.016C37.736 776.293 38.344 776.432 39.08 776.432C39.6347 776.432 40.12 776.341 40.536 776.16C40.952 775.968 41.272 775.691 41.496 775.328C41.7307 774.955 41.848 774.501 41.848 773.968H43.896C43.896 774.928 43.6827 775.723 43.256 776.352C42.8293 776.971 42.248 777.435 41.512 777.744C40.7867 778.043 39.9653 778.192 39.048 778.192ZM44.6113 778L48.8833 767.024H51.5073L55.7953 778H53.5393L52.6593 775.664H47.6353L46.7553 778H44.6113ZM48.2913 773.904H51.9873L50.8833 770.928C50.8406 770.821 50.7873 770.688 50.7233 770.528C50.6699 770.357 50.6113 770.176 50.5473 769.984C50.4833 769.781 50.4193 769.579 50.3553 769.376C50.2913 769.173 50.2326 768.992 50.1793 768.832H50.0993C50.0353 769.045 49.9553 769.291 49.8593 769.568C49.7739 769.845 49.6886 770.107 49.6033 770.352C49.5179 770.597 49.4486 770.789 49.3953 770.928L48.2913 773.904ZM47.5233 766.224L49.2193 764.112H51.2033L52.8833 766.224H51.1073L49.7633 764.544L50.6593 764.56L49.2993 766.224H47.5233ZM57.091 778V767.024H60.371L62.099 773.136C62.163 773.349 62.227 773.589 62.291 773.856C62.355 774.123 62.4137 774.379 62.467 774.624C62.531 774.869 62.579 775.083 62.611 775.264H62.739C62.7603 775.104 62.7923 774.907 62.835 774.672C62.8777 774.437 62.9257 774.187 62.979 773.92C63.043 773.643 63.1123 773.376 63.187 773.12L64.915 767.024H68.163V778H66.083V772.448C66.083 771.957 66.0883 771.467 66.099 770.976C66.1097 770.485 66.1203 770.064 66.131 769.712C66.1523 769.36 66.163 769.152 66.163 769.088H66.035C66.0137 769.184 65.9603 769.392 65.875 769.712C65.7897 770.032 65.699 770.379 65.603 770.752C65.507 771.125 65.4217 771.445 65.347 771.712L63.539 778H61.619L59.811 771.728C59.747 771.504 59.6723 771.237 59.587 770.928C59.5123 770.608 59.4323 770.283 59.347 769.952C59.2723 769.621 59.203 769.333 59.139 769.088H59.011C59.0217 769.376 59.0323 769.723 59.043 770.128C59.0537 770.523 59.0643 770.928 59.075 771.344C59.0857 771.749 59.091 772.117 59.091 772.448V778H57.091ZM70.591 778V767.024H79.151V768.8H72.671V771.504H78.447V773.28H72.671V776.224H79.247V778H70.591ZM81.341 778V767.024H87.117C87.9277 767.024 88.5997 767.163 89.133 767.44C89.6663 767.717 90.0663 768.112 90.333 768.624C90.5997 769.136 90.733 769.739 90.733 770.432C90.733 771.147 90.573 771.781 90.253 772.336C89.933 772.88 89.4637 773.291 88.845 773.568L91.117 778H88.845L86.829 773.92H83.421V778H81.341ZM83.421 772.176H86.957C87.4903 772.176 87.901 772.021 88.189 771.712C88.477 771.403 88.621 770.976 88.621 770.432C88.621 770.08 88.557 769.787 88.429 769.552C88.301 769.307 88.1143 769.12 87.869 768.992C87.6237 768.864 87.3197 768.8 86.957 768.8H83.421V772.176ZM91.6738 778L95.9458 767.024H98.5698L102.858 778H100.602L99.7218 775.664H94.6978L93.8178 778H91.6738ZM95.3538 773.904H99.0498L97.9458 770.928C97.9031 770.821 97.8498 770.688 97.7858 770.528C97.7324 770.357 97.6738 770.176 97.6098 769.984C97.5458 769.781 97.4818 769.579 97.4178 769.376C97.3538 769.173 97.2951 768.992 97.2418 768.832H97.1618C97.0978 769.045 97.0178 769.291 96.9218 769.568C96.8364 769.845 96.7511 770.107 96.6658 770.352C96.5804 770.597 96.5111 770.789 96.4578 770.928L95.3538 773.904Z" fill="white"/>
<path d="M129.208 778.192C127.512 778.192 126.195 777.739 125.256 776.832C124.317 775.915 123.848 774.475 123.848 772.512C123.848 771.221 124.067 770.16 124.504 769.328C124.952 768.485 125.592 767.861 126.424 767.456C127.267 767.04 128.275 766.832 129.448 766.832C130.152 766.832 130.813 766.912 131.432 767.072C132.051 767.232 132.595 767.477 133.064 767.808C133.544 768.128 133.917 768.533 134.184 769.024C134.451 769.515 134.584 770.096 134.584 770.768H132.44C132.44 770.416 132.36 770.107 132.2 769.84C132.051 769.563 131.837 769.333 131.56 769.152C131.293 768.96 130.984 768.821 130.632 768.736C130.28 768.64 129.907 768.592 129.512 768.592C128.925 768.592 128.408 768.672 127.96 768.832C127.523 768.981 127.155 769.216 126.856 769.536C126.568 769.845 126.349 770.235 126.2 770.704C126.061 771.173 125.992 771.723 125.992 772.352V772.688C125.992 773.552 126.115 774.261 126.36 774.816C126.605 775.371 126.973 775.781 127.464 776.048C127.965 776.304 128.584 776.432 129.32 776.432C129.949 776.432 130.499 776.336 130.968 776.144C131.448 775.952 131.821 775.675 132.088 775.312C132.365 774.939 132.504 774.485 132.504 773.952V773.84H129V772.112H134.584V778H133.096L132.92 776.784C132.6 777.104 132.259 777.371 131.896 777.584C131.533 777.787 131.133 777.936 130.696 778.032C130.259 778.139 129.763 778.192 129.208 778.192ZM135.783 778L140.055 767.024H142.679L146.967 778H144.711L143.831 775.664H138.807L137.927 778H135.783ZM139.463 773.904H143.159L142.055 770.928C142.012 770.821 141.959 770.688 141.895 770.528C141.842 770.357 141.783 770.176 141.719 769.984C141.655 769.781 141.591 769.579 141.527 769.376C141.463 769.173 141.404 768.992 141.351 768.832H141.271C141.207 769.045 141.127 769.291 141.031 769.568C140.946 769.845 140.86 770.107 140.775 770.352C140.69 770.597 140.62 770.789 140.567 770.928L139.463 773.904ZM148.263 778V767.024H150.343V776.192H155.847V778H148.263ZM157.388 778V767.024H165.948V768.8H159.468V771.504H165.244V773.28H159.468V776.224H166.044V778H157.388ZM168.138 778V767.024H173.914C174.725 767.024 175.397 767.163 175.93 767.44C176.463 767.717 176.863 768.112 177.13 768.624C177.397 769.136 177.53 769.739 177.53 770.432C177.53 771.147 177.37 771.781 177.05 772.336C176.73 772.88 176.261 773.291 175.642 773.568L177.914 778H175.642L173.626 773.92H170.218V778H168.138ZM170.218 772.176H173.754C174.287 772.176 174.698 772.021 174.986 771.712C175.274 771.403 175.418 770.976 175.418 770.432C175.418 770.08 175.354 769.787 175.226 769.552C175.098 769.307 174.911 769.12 174.666 768.992C174.421 768.864 174.117 768.8 173.754 768.8H170.218V772.176ZM179.607 778V767.024H181.687V778H179.607ZM182.986 778L187.258 767.024H189.882L194.17 778H191.914L191.034 775.664H186.01L185.13 778H182.986ZM186.666 773.904H190.362L189.258 770.928C189.216 770.821 189.162 770.688 189.098 770.528C189.045 770.357 188.986 770.176 188.922 769.984C188.858 769.781 188.794 769.579 188.73 769.376C188.666 769.173 188.608 768.992 188.554 768.832H188.474C188.41 769.045 188.33 769.291 188.234 769.568C188.149 769.845 188.064 770.107 187.978 770.352C187.893 770.597 187.824 770.789 187.77 770.928L186.666 773.904Z" fill="white"/>
<path d="M213.08 778L217.352 767.024H219.976L224.264 778H222.008L221.128 775.664H216.104L215.224 778H213.08ZM216.76 773.904H220.456L219.352 770.928C219.309 770.821 219.256 770.688 219.192 770.528C219.139 770.357 219.08 770.176 219.016 769.984C218.952 769.781 218.888 769.579 218.824 769.376C218.76 769.173 218.701 768.992 218.648 768.832H218.568C218.504 769.045 218.424 769.291 218.328 769.568C218.243 769.845 218.157 770.107 218.072 770.352C217.987 770.597 217.917 770.789 217.864 770.928L216.76 773.904ZM227.941 778L223.941 767.024H226.197L228.805 774.576C228.848 774.683 228.891 774.805 228.933 774.944C228.976 775.083 229.019 775.216 229.061 775.344C229.104 775.461 229.141 775.568 229.173 775.664H229.253C229.285 775.579 229.317 775.477 229.349 775.36C229.392 775.243 229.435 775.12 229.477 774.992C229.52 774.853 229.563 774.72 229.605 774.592L232.197 767.024H234.357L230.357 778H227.941ZM234.033 778L238.305 767.024H240.929L245.217 778H242.961L242.081 775.664H237.057L236.177 778H234.033ZM237.713 773.904H241.409L240.305 770.928C240.262 770.821 240.209 770.688 240.145 770.528C240.092 770.357 240.033 770.176 239.969 769.984C239.905 769.781 239.841 769.579 239.777 769.376C239.713 769.173 239.654 768.992 239.601 768.832H239.521C239.457 769.045 239.377 769.291 239.281 769.568C239.196 769.845 239.11 770.107 239.025 770.352C238.94 770.597 238.87 770.789 238.817 770.928L237.713 773.904ZM247.842 778V768.816H244.338V767.024H253.442V768.816H249.922V778H247.842ZM252.564 778L256.836 767.024H259.46L263.748 778H261.492L260.612 775.664H255.588L254.708 778H252.564ZM256.244 773.904H259.94L258.836 770.928C258.794 770.821 258.74 770.688 258.676 770.528C258.623 770.357 258.564 770.176 258.5 769.984C258.436 769.781 258.372 769.579 258.308 769.376C258.244 769.173 258.186 768.992 258.132 768.832H258.052C257.988 769.045 257.908 769.291 257.812 769.568C257.727 769.845 257.642 770.107 257.556 770.352C257.471 770.597 257.402 770.789 257.348 770.928L256.244 773.904ZM265.044 778V767.024H270.82C271.631 767.024 272.303 767.163 272.836 767.44C273.369 767.717 273.769 768.112 274.036 768.624C274.303 769.136 274.436 769.739 274.436 770.432C274.436 771.147 274.276 771.781 273.956 772.336C273.636 772.88 273.167 773.291 272.548 773.568L274.82 778H272.548L270.532 773.92H267.124V778H265.044ZM267.124 772.176H270.66C271.193 772.176 271.604 772.021 271.892 771.712C272.18 771.403 272.324 770.976 272.324 770.432C272.324 770.08 272.26 769.787 272.132 769.552C272.004 769.307 271.817 769.12 271.572 768.992C271.327 768.864 271.023 768.8 270.66 768.8H267.124V772.176Z" fill="white"/>
<path d="M336.74 60.2665C337.087 59.8549 337.087 59.1689 336.74 58.7784L334.66 56.3087C334.331 55.8971 333.754 55.8971 333.407 56.3087L331.772 58.2401L335.105 62.1979M321 71.0422V75H324.333L334.163 63.3166L330.83 59.3588L321 71.0422Z" fill="white"/>
<path d="M55 730.25C55 728.531 56.62 727.125 58.6 727.125H64L67.6 724H78.4L82 727.125H87.4C88.3548 727.125 89.2705 727.454 89.9456 728.04C90.6207 728.626 91 729.421 91 730.25V745.875C91 746.704 90.6207 747.499 89.9456 748.085C89.2705 748.671 88.3548 749 87.4 749H58.6C57.6452 749 56.7295 748.671 56.0544 748.085C55.3793 747.499 55 746.704 55 745.875V730.25ZM73 745.875C75.3869 745.875 77.6761 745.052 79.364 743.587C81.0518 742.122 82 740.135 82 738.062C82 735.99 81.0518 734.003 79.364 732.538C77.6761 731.073 75.3869 730.25 73 730.25C70.6131 730.25 68.3239 731.073 66.636 732.538C64.9482 734.003 64 735.99 64 738.062C64 740.135 64.9482 742.122 66.636 743.587C68.3239 745.052 70.6131 745.875 73 745.875ZM73 742.75C72.2909 742.75 71.5887 742.629 70.9335 742.393C70.2784 742.158 69.6831 741.812 69.1816 741.377C68.6802 740.942 68.2824 740.425 68.011 739.856C67.7397 739.288 67.6 738.678 67.6 738.062C67.6 737.447 67.7397 736.837 68.011 736.269C68.2824 735.7 68.6802 735.183 69.1816 734.748C69.6831 734.313 70.2784 733.967 70.9335 733.732C71.5887 733.496 72.2909 733.375 73 733.375C74.4322 733.375 75.8057 733.869 76.8184 734.748C77.8311 735.627 78.4 736.819 78.4 738.062C78.4 739.306 77.8311 740.498 76.8184 741.377C75.8057 742.256 74.4322 742.75 73 742.75Z" fill="white"/>
<path d="M173 727.625V749.375C173 750.336 172.605 751.258 171.902 751.938C171.198 752.618 170.245 753 169.25 753H146.75C145.755 753 144.802 752.618 144.098 751.938C143.395 751.258 143 750.336 143 749.375V727.625C143 726.664 143.395 725.742 144.098 725.062C144.802 724.382 145.755 724 146.75 724H169.25C170.245 724 171.198 724.382 171.902 725.062C172.605 725.742 173 726.664 173 727.625ZM169.25 727.625H146.75V739.189L150.856 735.219L160.663 744.699L162.538 742.886C163.108 742.445 163.826 742.222 164.555 742.259C165.284 742.296 165.974 742.59 166.494 743.086L169.25 745.75V727.625ZM159.875 733.969C159.875 733.248 160.171 732.556 160.699 732.046C161.226 731.536 161.942 731.25 162.688 731.25C163.433 731.25 164.149 731.536 164.676 732.046C165.204 732.556 165.5 733.248 165.5 733.969C165.5 734.69 165.204 735.381 164.676 735.891C164.149 736.401 163.433 736.688 162.688 736.688C161.942 736.688 161.226 736.401 160.699 735.891C160.171 735.381 159.875 734.69 159.875 733.969Z" fill="#FFF9F9"/>
<path d="M239 718C246.732 718 253 725.387 253 734.5C253 743.613 246.732 751 239 751H225L229.101 746.167C227.799 744.637 226.766 742.818 226.062 740.816C225.359 738.814 224.998 736.667 225 734.5C225 725.387 231.268 718 239 718ZM244.6 736.15H233.4C233.4 737.9 233.99 739.579 235.04 740.817C236.09 742.055 237.515 742.75 239 742.75C240.485 742.75 241.91 742.055 242.96 740.817C244.01 739.579 244.6 737.9 244.6 736.15Z" fill="white"/>
<path d="M73 712C67.4621 712 62.0486 713.496 57.444 716.298C52.8395 719.099 49.2506 723.082 47.1314 727.742C45.0121 732.401 44.4576 737.528 45.538 742.475C46.6184 747.421 49.2852 751.965 53.201 755.531C57.1169 759.097 62.106 761.526 67.5375 762.51C72.9689 763.494 78.5988 762.989 83.7151 761.059C88.8315 759.129 93.2045 755.86 96.2812 751.667C99.3578 747.474 101 742.543 101 737.5C100.992 730.739 98.0397 724.257 92.7903 719.477C87.541 714.696 80.4237 712.007 73 712ZM73 759.077C68.3141 759.077 63.7334 757.811 59.8373 755.441C55.9411 753.07 52.9044 749.7 51.1112 745.757C49.318 741.814 48.8488 737.476 49.7629 733.291C50.6771 729.105 52.9336 725.26 56.247 722.243C59.5604 719.225 63.782 717.17 68.3779 716.338C72.9737 715.505 77.7375 715.932 82.0667 717.566C86.3959 719.199 90.0961 721.964 92.6994 725.513C95.3028 729.061 96.6923 733.232 96.6923 737.5C96.6852 743.221 94.1868 748.705 89.7451 752.75C85.3035 756.795 79.2814 759.07 73 759.077Z" fill="#F8FDF7" fill-opacity="0.15"/>
<path d="M158 713C152.462 713 147.049 714.496 142.444 717.298C137.839 720.099 134.251 724.082 132.131 728.742C130.012 733.401 129.458 738.528 130.538 743.475C131.618 748.421 134.285 752.965 138.201 756.531C142.117 760.097 147.106 762.526 152.537 763.51C157.969 764.494 163.599 763.989 168.715 762.059C173.831 760.129 178.204 756.86 181.281 752.667C184.358 748.474 186 743.543 186 738.5C185.992 731.739 183.04 725.257 177.79 720.477C172.541 715.696 165.424 713.007 158 713ZM158 760.077C153.314 760.077 148.733 758.811 144.837 756.441C140.941 754.07 137.904 750.7 136.111 746.757C134.318 742.814 133.849 738.476 134.763 734.291C135.677 730.105 137.934 726.26 141.247 723.243C144.56 720.225 148.782 718.17 153.378 717.338C157.974 716.505 162.737 716.932 167.067 718.566C171.396 720.199 175.096 722.964 177.699 726.513C180.303 730.061 181.692 734.232 181.692 738.5C181.685 744.221 179.187 749.705 174.745 753.75C170.304 757.795 164.281 760.07 158 760.077Z" fill="#F8FDF7" fill-opacity="0.15"/>
<path d="M238 711C232.462 711 227.049 712.496 222.444 715.298C217.839 718.099 214.251 722.082 212.131 726.742C210.012 731.401 209.458 736.528 210.538 741.475C211.618 746.421 214.285 750.965 218.201 754.531C222.117 758.097 227.106 760.526 232.537 761.51C237.969 762.494 243.599 761.989 248.715 760.059C253.831 758.129 258.204 754.86 261.281 750.667C264.358 746.474 266 741.543 266 736.5C265.992 729.739 263.04 723.257 257.79 718.477C252.541 713.696 245.424 711.007 238 711ZM238 758.077C233.314 758.077 228.733 756.811 224.837 754.441C220.941 752.07 217.904 748.7 216.111 744.757C214.318 740.814 213.849 736.476 214.763 732.291C215.677 728.105 217.934 724.26 221.247 721.243C224.56 718.225 228.782 716.17 233.378 715.338C237.974 714.505 242.737 714.932 247.067 716.566C251.396 718.199 255.096 720.964 257.699 724.513C260.303 728.061 261.692 732.232 261.692 736.5C261.685 742.221 259.187 747.705 254.745 751.75C250.304 755.795 244.281 758.07 238 758.077Z" fill="#F8FDF7" fill-opacity="0.15"/>
<path d="M359.5 686.25H355.125L353.875 685H347.625L346.375 686.25H342V688.75H359.5M343.25 705C343.25 705.663 343.513 706.299 343.982 706.768C344.451 707.237 345.087 707.5 345.75 707.5H355.75C356.413 707.5 357.049 707.237 357.518 706.768C357.987 706.299 358.25 705.663 358.25 705V690H343.25V705Z" fill="#FEFEFF"/>
<path d="M325.072 731L328.24 722.768H330.448L333.616 731H331.684L331.096 729.38H327.508L326.92 731H325.072ZM328.024 727.94H330.58L329.848 725.912C329.816 725.824 329.776 725.72 329.728 725.6C329.688 725.472 329.644 725.332 329.596 725.18C329.548 725.028 329.5 724.88 329.452 724.736C329.412 724.584 329.372 724.448 329.332 724.328H329.26C329.22 724.48 329.168 724.66 329.104 724.868C329.04 725.068 328.976 725.264 328.912 725.456C328.848 725.64 328.796 725.792 328.756 725.912L328.024 727.94ZM334.596 731V722.768H338.88C339.472 722.768 339.964 722.88 340.356 723.104C340.756 723.32 341.056 723.628 341.256 724.028C341.464 724.42 341.568 724.888 341.568 725.432C341.568 725.976 341.46 726.452 341.244 726.86C341.036 727.26 340.728 727.572 340.32 727.796C339.912 728.02 339.412 728.132 338.82 728.132H336.384V731H334.596ZM336.384 726.668H338.58C338.956 726.668 339.244 726.56 339.444 726.344C339.652 726.128 339.756 725.828 339.756 725.444C339.756 725.18 339.712 724.96 339.624 724.784C339.536 724.608 339.404 724.472 339.228 724.376C339.06 724.28 338.844 724.232 338.58 724.232H336.384V726.668ZM341.326 731L344.494 722.768H346.702L349.87 731H347.938L347.35 729.38H343.762L343.174 731H341.326ZM344.278 727.94H346.834L346.102 725.912C346.07 725.824 346.03 725.72 345.982 725.6C345.942 725.472 345.898 725.332 345.85 725.18C345.802 725.028 345.754 724.88 345.706 724.736C345.666 724.584 345.626 724.448 345.586 724.328H345.514C345.474 724.48 345.422 724.66 345.358 724.868C345.294 725.068 345.23 725.264 345.166 725.456C345.102 725.64 345.05 725.792 345.01 725.912L344.278 727.94ZM354.406 731.144C353.11 731.144 352.11 730.8 351.406 730.112C350.71 729.416 350.362 728.34 350.362 726.884C350.362 725.916 350.53 725.12 350.866 724.496C351.202 723.864 351.69 723.396 352.33 723.092C352.97 722.78 353.738 722.624 354.634 722.624C355.17 722.624 355.674 722.684 356.146 722.804C356.618 722.924 357.034 723.108 357.394 723.356C357.762 723.604 358.046 723.916 358.246 724.292C358.454 724.66 358.558 725.1 358.558 725.612H356.746C356.746 725.364 356.69 725.144 356.578 724.952C356.474 724.76 356.326 724.6 356.134 724.472C355.942 724.344 355.722 724.248 355.474 724.184C355.226 724.12 354.966 724.088 354.694 724.088C354.278 724.088 353.914 724.144 353.602 724.256C353.29 724.36 353.03 724.524 352.822 724.748C352.622 724.964 352.47 725.236 352.366 725.564C352.262 725.892 352.21 726.272 352.21 726.704V727.064C352.21 727.664 352.298 728.156 352.474 728.54C352.65 728.924 352.914 729.212 353.266 729.404C353.618 729.588 354.054 729.68 354.574 729.68C355.006 729.68 355.386 729.616 355.714 729.488C356.05 729.352 356.31 729.16 356.494 728.912C356.686 728.664 356.782 728.36 356.782 728V727.916H354.322V726.548H358.558V731H357.382L357.226 730.112C356.986 730.344 356.726 730.536 356.446 730.688C356.174 730.84 355.87 730.952 355.534 731.024C355.198 731.104 354.822 731.144 354.406 731.144ZM359.443 731L362.611 722.768H364.819L367.987 731H366.055L365.467 729.38H361.879L361.291 731H359.443ZM362.395 727.94H364.951L364.219 725.912C364.187 725.824 364.147 725.72 364.099 725.6C364.059 725.472 364.015 725.332 363.967 725.18C363.919 725.028 363.871 724.88 363.823 724.736C363.783 724.584 363.743 724.448 363.703 724.328H363.631C363.591 724.48 363.539 724.66 363.475 724.868C363.411 725.068 363.347 725.264 363.283 725.456C363.219 725.64 363.167 725.792 363.127 725.912L362.395 727.94ZM368.967 731V722.768H373.479C374.087 722.768 374.591 722.876 374.991 723.092C375.399 723.308 375.703 723.612 375.903 724.004C376.103 724.388 376.203 724.832 376.203 725.336C376.203 725.872 376.083 726.348 375.843 726.764C375.603 727.172 375.255 727.484 374.799 727.7L376.479 731H374.499L373.047 728H370.755V731H368.967ZM370.755 726.584H373.239C373.599 726.584 373.879 726.476 374.079 726.26C374.279 726.036 374.379 725.736 374.379 725.36C374.379 725.12 374.335 724.916 374.247 724.748C374.159 724.572 374.031 724.44 373.863 724.352C373.695 724.264 373.487 724.22 373.239 724.22H370.755V726.584Z" fill="#FBF3F3"/>
<defs>
<pattern id="pattern0" patternContentUnits="objectBoundingBox" width="1" height="1">
<use xlink:href="#image0_0_1" transform="matrix(0.00390224 0 0 0.003125 -0.124359 0)"/>
</pattern>
<image id="image0_0_1" width="320" height="320" xlink:href="assets/img/0.png"/>
</defs>
</svg>

