<?xml version="1.0" encoding="UTF-8" standalone="no"?>
<svg
   width="512"
   height="512"
   viewBox="0 0 512 512"
   id="iwhatsapp"
   fill="none"
   version="1.1"
   sodipodi:docname="zap.svg"
   inkscape:version="1.1.2 (0a00cf5339, 2022-02-04)"
   xmlns:inkscape="http://www.inkscape.org/namespaces/inkscape"
   xmlns:sodipodi="http://sodipodi.sourceforge.net/DTD/sodipodi-0.dtd"
   xmlns="http://www.w3.org/2000/svg"
   xmlns:svg="http://www.w3.org/2000/svg">
  <defs
     id="defs11" />
  <sodipodi:namedview
     id="namedview9"
     pagecolor="#ffffff"
     bordercolor="#666666"
     borderopacity="1.0"
     inkscape:pageshadow="2"
     inkscape:pageopacity="0.0"
     inkscape:pagecheckerboard="0"
     showgrid="false"
     inkscape:zoom="0.83398438"
     inkscape:cx="244.00937"
     inkscape:cy="284.17798"
     inkscape:window-width="1360"
     inkscape:window-height="740"
     inkscape:window-x="0"
     inkscape:window-y="0"
     inkscape:window-maximized="1"
     inkscape:current-layer="iwhatsapp" />
  <path
     fill="#4caf50"
     d="m 260.06416,1.99972 h -0.128 c -141.152,0 -255.936,114.816 -255.936,256 a 254.08,254.08 0 0 0 48.736,150.048 l -31.904,95.104 98.4,-31.456 a 253.76,253.76 0 0 0 140.832,42.304 c 141.152,0 255.936,-114.848 255.936,-256 0,-141.152 -114.784,-256 -255.936,-256 z"
     style="stroke-width:32"
     id="path2" />
  <path
     fill="#fafafa"
     d="m 361.02416,401.50372 c -6.176,17.44 -30.688,31.904 -50.24,36.128 -13.376,2.848 -30.848,5.12 -89.664,-19.264 -75.232,-31.168 -123.68,-107.616 -127.456,-112.576 -3.616,-4.96 -30.4,-40.48 -30.4,-77.216 0,-36.736 18.656,-54.624 26.176,-62.304 6.176,-6.304 16.384,-9.184 26.176,-9.184 3.168,0 6.016,0.16 8.576,0.288 7.52,0.32 11.296,0.768 16.256,12.64 6.176,14.88 21.216,51.616 23.008,55.392 1.824,3.776 3.648,8.896 1.088,13.856 -2.4,5.12 -4.512,7.392 -8.288,11.744 -3.776,4.352 -7.36,7.68 -11.136,12.352 -3.456,4.064 -7.36,8.416 -3.008,15.936 4.352,7.36 19.392,31.904 41.536,51.616 28.576,25.44 51.744,33.568 60.032,37.024 6.176,2.56 13.536,1.952 18.048,-2.848 5.728,-6.176 12.8,-16.416 20,-26.496 5.12,-7.232 11.584,-8.128 18.368,-5.568 6.912,2.4 43.488,20.48 51.008,24.224 7.52,3.776 12.48,5.568 14.304,8.736 1.792,3.168 1.792,18.048 -4.384,35.52 z"
     style="stroke-width:32"
     id="path4" />
  <path
     d="m 430.7,195.5 c -1.1,-11 -6.2,-21.5 -14.45,-29.2 -8.55,-7.95 -19.65,-12.35 -31.35,-12.35 -20.75,0 -38.65,13.7 -44.25,33.5 -3.5,-3.5 -9.25,-5.85 -14.65,-5.85 -5.4,0 -11.15,2.35 -14.65,5.85 -5.6,-19.8 -23.5,-33.5 -44.25,-33.5 -11.65,0 -22.8,4.35 -31.35,12.3 C 227.5,174 222.4,184.5 221.3,195.5 H 214 v 9 h 7.3 c 1.1,11 6.2,21.5 14.45,29.2 8.55,7.95 19.65,12.35 31.35,12.35 25.4,0 46.05,-20.6 46.05,-46 V 200 c 0,-4.95 5.75,-10.8 12.85,-10.8 7.1,0 12.85,5.85 12.85,10.8 v 0.05 c 0,25.4 20.65,46 46.05,46 11.65,0 22.8,-4.35 31.35,-12.35 8.25,-7.7 13.35,-18.25 14.45,-29.25 h 7.3 v -9 h -7.3 z m -45.8,43 c -21.25,0 -38.5,-17.3 -38.5,-38.5 0,-21.25 17.3,-38.5 38.5,-38.5 21.25,0 38.5,17.3 38.5,38.5 0,21.25 -17.25,38.5 -38.5,38.5 z m -117.8,0 c -21.25,0 -38.5,-17.3 -38.5,-38.5 0,-21.25 17.3,-38.5 38.5,-38.5 21.25,0 38.5,17.3 38.5,38.5 0,21.25 -17.25,38.5 -38.5,38.5 z"
     style="fill:#ffffff;stroke-width:0.5"
     id="path6" />
  <ellipse
     style="opacity:0.99;fill:#ffffff;stroke:#ffffff;stroke-width:3.77953"
     id="path850"
     cx="266.38644"
     cy="203.59927"
     rx="43.027428"
     ry="42.014416" />
  <ellipse
     style="opacity:0.99;fill:#ffffff;stroke:#ffffff;stroke-width:3.77953"
     id="path852"
     cx="383.48065"
     cy="201.15836"
     rx="41.751041"
     ry="42.441505" />
</svg>
