<svg width="60" height="62" viewBox="0 0 60 62" fill="none" xmlns="http://www.w3.org/2000/svg">
<ellipse cx="30" cy="31" rx="30" ry="31" fill="#FA6533"/>
<path d="M18.1 29.2632H22.75C23.5722 29.2632 24.3607 29.5848 24.942 30.1573C25.5234 30.7297 25.85 31.5062 25.85 32.3158V39.9474C25.85 40.757 25.5234 41.5334 24.942 42.1059C24.3607 42.6784 23.5722 43 22.75 43H18.1C17.2778 43 16.4893 42.6784 15.908 42.1059C15.3266 41.5334 15 40.757 15 39.9474V29.2632C15 20.8333 21.9394 14 30.5 14C39.0606 14 46 20.8333 46 29.2632V39.9474C46 40.757 45.6734 41.5334 45.092 42.1059C44.5107 42.6784 43.7222 43 42.9 43H38.25C37.4278 43 36.6393 42.6784 36.058 42.1059C35.4766 41.5334 35.15 40.757 35.15 39.9474V32.3158C35.15 31.5062 35.4766 30.7297 36.058 30.1573C36.6393 29.5848 37.4278 29.2632 38.25 29.2632H42.9C42.9 26.0247 41.5936 22.9189 39.2681 20.629C36.9427 18.3391 33.7887 17.0526 30.5 17.0526C27.2113 17.0526 24.0573 18.3391 21.7319 20.629C19.4064 22.9189 18.1 26.0247 18.1 29.2632Z" fill="white"/>
</svg>

