<svg width="60" height="62" viewBox="0 0 60 62" fill="none" xmlns="http://www.w3.org/2000/svg">
<ellipse cx="30" cy="31" rx="30" ry="31" fill="#CB62F4"/>
<path d="M46 20.625V42.375C46 43.3364 45.5786 44.2584 44.8284 44.9383C44.0783 45.6181 43.0609 46 42 46H18C16.9391 46 15.9217 45.6181 15.1716 44.9383C14.4214 44.2584 14 43.3364 14 42.375V20.625C14 19.6636 14.4214 18.7416 15.1716 18.0617C15.9217 17.3819 16.9391 17 18 17H42C43.0609 17 44.0783 17.3819 44.8284 18.0617C45.5786 18.7416 46 19.6636 46 20.625ZM42 20.625H18V32.1888L22.38 28.2194L32.84 37.6987L34.84 35.8862C35.4483 35.4453 36.214 35.2221 36.9918 35.2588C37.7697 35.2956 38.5056 35.5898 39.06 36.0856L42 38.75V20.625ZM32 26.9688C32 26.2477 32.3161 25.5562 32.8787 25.0463C33.4413 24.5364 34.2044 24.25 35 24.25C35.7956 24.25 36.5587 24.5364 37.1213 25.0463C37.6839 25.5562 38 26.2477 38 26.9688C38 27.6898 37.6839 28.3813 37.1213 28.8912C36.5587 29.4011 35.7956 29.6875 35 29.6875C34.2044 29.6875 33.4413 29.4011 32.8787 28.8912C32.3161 28.3813 32 27.6898 32 26.9688Z" fill="#FFF9F9"/>
</svg>

