<svg width="60" height="62" viewBox="0 0 60 62" fill="none" xmlns="http://www.w3.org/2000/svg">
<ellipse cx="30" cy="31" rx="30" ry="31" fill="#02A59C"/>
<g filter="url(#filter0_b_0_1)">
<ellipse cx="30.5" cy="31" rx="22.5" ry="20" fill="white"/>
</g>
<path d="M36.934 20C37.7718 20 38.4487 20.6392 38.4487 21.4303V22.2438C39.0404 22.3466 39.6179 22.5298 40.1622 22.7846L40.6403 23.0125C41.3882 23.3656 41.6912 24.2238 41.3172 24.93C40.9433 25.6362 40.0344 25.9223 39.2865 25.5692L38.8037 25.3412C38.3351 25.1178 37.8144 25.006 37.289 25.006H37.2085C35.7979 25.006 34.6572 26.0832 34.6572 27.4152C34.6572 28.3985 35.2915 29.2835 36.2618 29.65L38.7232 30.5797C40.8391 31.3797 42.2308 33.3151 42.2308 35.4695V35.6214C42.2308 37.9099 40.6403 39.8497 38.444 40.5023V41.4543C38.444 42.2455 37.7671 42.8846 36.9293 42.8846C36.0914 42.8846 35.4145 42.2455 35.4145 41.4543V40.5872C34.7045 40.4308 34.0229 40.1537 33.4123 39.7693L32.3046 39.072C31.6088 38.634 31.4195 37.7445 31.8833 37.0875C32.3472 36.4304 33.2892 36.2517 33.985 36.6897L35.0974 37.3869C35.6086 37.7088 36.205 37.8786 36.8157 37.8786C38.1363 37.8786 39.2061 36.8685 39.2061 35.6214V35.4695C39.2061 34.4861 38.5718 33.6011 37.6014 33.2346L35.14 32.3049C33.0194 31.5049 31.6325 29.5695 31.6325 27.4152C31.6325 25.0954 33.2182 23.1288 35.4193 22.4226V21.4303C35.4193 20.6392 36.0962 20 36.934 20ZM18 22.8606C18 22.0694 18.6769 21.4303 19.5147 21.4303H23.3015C27.0646 21.4303 30.1178 24.3132 30.1178 27.8666C30.1178 30.4947 28.4516 32.7519 26.0611 33.7531L28.4942 39.4921C28.8066 40.2252 28.4279 41.0565 27.6516 41.3515C26.8753 41.6465 25.9949 41.2889 25.6825 40.5559L23.0317 34.3029H21.0294V40.024C21.0294 40.8152 20.3525 41.4543 19.5147 41.4543C18.6769 41.4543 18 40.8152 18 40.024V22.8606ZM21.0294 31.4423H23.3015C25.3937 31.4423 27.0883 29.8422 27.0883 27.8666C27.0883 25.891 25.3937 24.2909 23.3015 24.2909H21.0294V31.4423Z" fill="#02A59C"/>
<defs>
<filter id="filter0_b_0_1" x="4" y="7" width="53" height="48" filterUnits="userSpaceOnUse" color-interpolation-filters="sRGB">
<feFlood flood-opacity="0" result="BackgroundImageFix"/>
<feGaussianBlur in="BackgroundImageFix" stdDeviation="2"/>
<feComposite in2="SourceAlpha" operator="in" result="effect1_backgroundBlur_0_1"/>
<feBlend mode="normal" in="SourceGraphic" in2="effect1_backgroundBlur_0_1" result="shape"/>
</filter>
</defs>
</svg>

