<svg width="60" height="62" viewBox="0 0 60 62" fill="none" xmlns="http://www.w3.org/2000/svg">
<ellipse cx="30" cy="31" rx="30" ry="31" fill="#009DE2"/>
<path d="M18.4167 45C18.4167 45 16 45 16 42.5C16 40 18.4167 32.5 30.5 32.5C42.5833 32.5 45 40 45 42.5C45 45 42.5833 45 42.5833 45H18.4167ZM30.5 30C32.4228 30 34.2669 29.2098 35.6265 27.8033C36.9862 26.3968 37.75 24.4891 37.75 22.5C37.75 20.5109 36.9862 18.6032 35.6265 17.1967C34.2669 15.7902 32.4228 15 30.5 15C28.5772 15 26.7331 15.7902 25.3735 17.1967C24.0138 18.6032 23.25 20.5109 23.25 22.5C23.25 24.4891 24.0138 26.3968 25.3735 27.8033C26.7331 29.2098 28.5772 30 30.5 30Z" fill="white"/>
</svg>

