<svg width="60" height="62" viewBox="0 0 60 62" fill="none" xmlns="http://www.w3.org/2000/svg">
<ellipse cx="30" cy="31" rx="30" ry="31" fill="#FF2C76"/>
<path d="M11 23.25C11 21.5312 12.71 20.125 14.8 20.125H20.5L24.3 17H35.7L39.5 20.125H45.2C46.2078 20.125 47.1744 20.4542 47.887 21.0403C48.5996 21.6263 49 22.4212 49 23.25V38.875C49 39.7038 48.5996 40.4987 47.887 41.0847C47.1744 41.6708 46.2078 42 45.2 42H14.8C13.7922 42 12.8256 41.6708 12.113 41.0847C11.4004 40.4987 11 39.7038 11 38.875V23.25ZM30 38.875C32.5196 38.875 34.9359 38.0519 36.7175 36.5868C38.4991 35.1216 39.5 33.1345 39.5 31.0625C39.5 28.9905 38.4991 27.0034 36.7175 25.5382C34.9359 24.0731 32.5196 23.25 30 23.25C27.4804 23.25 25.0641 24.0731 23.2825 25.5382C21.5009 27.0034 20.5 28.9905 20.5 31.0625C20.5 33.1345 21.5009 35.1216 23.2825 36.5868C25.0641 38.0519 27.4804 38.875 30 38.875ZM30 35.75C29.2515 35.75 28.5103 35.6288 27.8187 35.3932C27.1271 35.1576 26.4988 34.8123 25.9695 34.3771C25.4402 33.9418 25.0203 33.425 24.7339 32.8563C24.4474 32.2876 24.3 31.6781 24.3 31.0625C24.3 30.4469 24.4474 29.8374 24.7339 29.2687C25.0203 28.7 25.4402 28.1832 25.9695 27.7479C26.4988 27.3127 27.1271 26.9674 27.8187 26.7318C28.5103 26.4962 29.2515 26.375 30 26.375C31.5117 26.375 32.9616 26.8689 34.0305 27.7479C35.0995 28.627 35.7 29.8193 35.7 31.0625C35.7 32.3057 35.0995 33.498 34.0305 34.3771C32.9616 35.2561 31.5117 35.75 30 35.75Z" fill="white"/>
</svg>

