<svg width="60" height="62" viewBox="0 0 60 62" fill="none" xmlns="http://www.w3.org/2000/svg">
<ellipse cx="30" cy="31" rx="30" ry="31" fill="#1FA856"/>
<mask id="mask0_0_1" style="mask-type:luminance" maskUnits="userSpaceOnUse" x="14" y="11" width="32" height="41">
<path d="M30 50C30 50 44 38.9 44 26.875C44 19.2123 37.7317 13 30 13C22.2683 13 16 19.2123 16 26.875C16 38.9 30 50 30 50Z" fill="white" stroke="white" stroke-width="4" stroke-linejoin="round"/>
<path d="M30 32.425C30.7354 32.425 31.4636 32.2814 32.1431 32.0025C32.8225 31.7236 33.4398 31.3148 33.9598 30.7994C34.4798 30.2841 34.8923 29.6722 35.1737 28.9989C35.4552 28.3255 35.6 27.6038 35.6 26.875C35.6 26.1461 35.4552 25.4244 35.1737 24.7511C34.8923 24.0777 34.4798 23.4659 33.9598 22.9505C33.4398 22.4352 32.8225 22.0264 32.1431 21.7475C31.4636 21.4685 30.7354 21.325 30 21.325C28.5148 21.325 27.0904 21.9097 26.0402 22.9505C24.99 23.9914 24.4 25.403 24.4 26.875C24.4 28.3469 24.99 29.7586 26.0402 30.7994C27.0904 31.8403 28.5148 32.425 30 32.425Z" fill="black" stroke="black" stroke-width="4" stroke-linejoin="round"/>
</mask>
<g mask="url(#mask0_0_1)">
<path d="M7.59998 9.30002H52.4V53.7H7.59998V9.30002Z" fill="white"/>
</g>
</svg>

