<svg width="113" height="55" viewBox="0 0 113 55" fill="none" xmlns="http://www.w3.org/2000/svg">
<path d="M14.0696 0C10.3381 0 6.75944 0.745187 4.12088 2.07163C1.48233 3.39807 0 5.19711 0 7.07298L0 52.3153C0.000147835 52.6652 0.206771 53.0072 0.593717 53.298C0.980663 53.5888 1.53054 53.8154 2.17374 53.9491C2.81695 54.0827 3.52457 54.1175 4.20706 54.0489C4.88953 53.9803 5.51619 53.8114 6.00771 53.5637L26.0779 43.4741C27.3969 42.8108 29.186 42.4381 31.0515 42.4379H98.487C102.218 42.4379 105.797 41.6927 108.436 40.3663C111.074 39.0398 112.557 37.2408 112.557 35.3649V7.07298C112.557 5.19711 111.074 3.39807 108.436 2.07163C105.797 0.745187 102.218 0 98.487 0L14.0696 0Z" fill="#21C65D"/>
</svg>

