<svg width="30" height="26" viewBox="0 0 30 26" fill="none" xmlns="http://www.w3.org/2000/svg">
<g filter="url(#filter0_i_300_188)">
<path d="M24.7917 4.50003H22.925L22.4583 3.00003C22.1558 2.11988 21.5946 1.35829 20.8526 0.820774C20.1105 0.283261 19.2243 -0.00356535 18.3167 3.34554e-05H10.85C9.93351 0.00179702 9.0407 0.299558 8.29758 0.851291C7.55446 1.40302 6.99855 2.18087 6.70833 3.07503L6.24167 4.57503H4.375C3.21468 4.57503 2.10188 5.04914 1.28141 5.89305C0.460936 6.73697 0 7.88156 0 9.07503V21.075C0 22.2685 0.460936 23.4131 1.28141 24.257C2.10188 25.1009 3.21468 25.575 4.375 25.575H24.7917C25.952 25.575 27.0648 25.1009 27.8853 24.257C28.7057 23.4131 29.1667 22.2685 29.1667 21.075V9.07503C29.1763 8.4778 29.0703 7.88457 28.8548 7.32992C28.6393 6.77527 28.3186 6.2703 27.9113 5.84446C27.5041 5.41862 27.0185 5.08043 26.4829 4.84961C25.9473 4.61878 25.3724 4.49995 24.7917 4.50003ZM26.25 21C26.25 21.3979 26.0964 21.7794 25.8229 22.0607C25.5494 22.342 25.1784 22.5 24.7917 22.5H4.375C3.98823 22.5 3.61729 22.342 3.3438 22.0607C3.07031 21.7794 2.91667 21.3979 2.91667 21V9.00003C2.91667 8.60221 3.07031 8.22068 3.3438 7.93937C3.61729 7.65807 3.98823 7.50003 4.375 7.50003H7.29167C7.60968 7.51711 7.92439 7.42664 8.18772 7.24246C8.45105 7.05828 8.64853 6.79051 8.75 6.48003L9.5375 4.02003C9.63533 3.7221 9.82173 3.46333 10.0703 3.2803C10.3189 3.09726 10.6172 2.99922 10.9229 3.00003H18.3896C18.6953 2.99922 18.9936 3.09726 19.2422 3.2803C19.4908 3.46333 19.6772 3.7221 19.775 4.02003L20.5625 6.48003C20.6561 6.76615 20.8314 7.01657 21.0656 7.19855C21.2997 7.38053 21.5818 7.4856 21.875 7.50003H24.7917C25.1784 7.50003 25.5494 7.65807 25.8229 7.93937C26.0964 8.22068 26.25 8.60221 26.25 9.00003V21ZM14.5833 7.50003C13.4296 7.50003 12.3018 7.85193 11.3425 8.51122C10.3832 9.1705 9.63555 10.1076 9.19404 11.2039C8.75252 12.3003 8.637 13.5067 8.86209 14.6706C9.08717 15.8345 9.64274 16.9036 10.4585 17.7427C11.2744 18.5818 12.3138 19.1532 13.4453 19.3847C14.5769 19.6163 15.7498 19.4974 16.8157 19.0433C17.8816 18.5892 18.7926 17.8201 19.4336 16.8335C20.0745 15.8468 20.4167 14.6867 20.4167 13.5C20.4167 11.9087 19.8021 10.3826 18.7081 9.25739C17.6142 8.13217 16.1304 7.50003 14.5833 7.50003ZM14.5833 16.5C14.0065 16.5 13.4426 16.3241 12.9629 15.9944C12.4833 15.6648 12.1094 15.1963 11.8887 14.6481C11.6679 14.0999 11.6102 13.4967 11.7227 12.9148C11.8352 12.3328 12.113 11.7983 12.5209 11.3787C12.9288 10.9592 13.4485 10.6734 14.0143 10.5577C14.5801 10.4419 15.1665 10.5013 15.6995 10.7284C16.2324 10.9555 16.688 11.34 17.0085 11.8333C17.3289 12.3267 17.5 12.9067 17.5 13.5C17.5 14.2957 17.1927 15.0587 16.6457 15.6214C16.0987 16.184 15.3569 16.5 14.5833 16.5Z" fill="#9A9999"/>
</g>
<defs>
<filter id="filter0_i_300_188" x="0" y="0" width="29.1673" height="29.575" filterUnits="userSpaceOnUse" color-interpolation-filters="sRGB">
<feFlood flood-opacity="0" result="BackgroundImageFix"/>
<feBlend mode="normal" in="SourceGraphic" in2="BackgroundImageFix" result="shape"/>
<feColorMatrix in="SourceAlpha" type="matrix" values="0 0 0 0 0 0 0 0 0 0 0 0 0 0 0 0 0 0 127 0" result="hardAlpha"/>
<feOffset dy="4"/>
<feGaussianBlur stdDeviation="2"/>
<feComposite in2="hardAlpha" operator="arithmetic" k2="-1" k3="1"/>
<feColorMatrix type="matrix" values="0 0 0 0 0 0 0 0 0 0 0 0 0 0 0 0 0 0 0.25 0"/>
<feBlend mode="normal" in2="shape" result="effect1_innerShadow_300_188"/>
</filter>
</defs>
</svg>

