<svg width="24" height="17" viewBox="0 0 24 17" fill="none" xmlns="http://www.w3.org/2000/svg">
<path d="M24 2.125V14.875C24 15.4386 23.6839 15.9791 23.1213 16.3776C22.5587 16.7761 21.7956 17 21 17H3C2.20435 17 1.44129 16.7761 0.87868 16.3776C0.31607 15.9791 0 15.4386 0 14.875V2.125C0 1.56141 0.31607 1.02091 0.87868 0.622398C1.44129 0.223883 2.20435 0 3 0H21C21.7956 0 22.5587 0.223883 23.1213 0.622398C23.6839 1.02091 24 1.56141 24 2.125ZM21 2.125H3V8.90375L6.285 6.57687L14.13 12.1337L15.63 11.0712C16.0862 10.8128 16.6605 10.6819 17.2439 10.7035C17.8273 10.725 18.3792 10.8975 18.795 11.1881L21 12.75V2.125ZM13.5 5.84375C13.5 5.42106 13.7371 5.01568 14.159 4.7168C14.581 4.41791 15.1533 4.25 15.75 4.25C16.3467 4.25 16.919 4.41791 17.341 4.7168C17.7629 5.01568 18 5.42106 18 5.84375C18 6.26644 17.7629 6.67182 17.341 6.9707C16.919 7.26959 16.3467 7.4375 15.75 7.4375C15.1533 7.4375 14.581 7.26959 14.159 6.9707C13.7371 6.67182 13.5 6.26644 13.5 5.84375Z" fill="#8E8E8E"/>
</svg>
