<?xml version="1.0" encoding="UTF-8" standalone="no"?>
<svg
   width="24"
   height="17"
   viewBox="0 0 24 17"
   fill="none"
   version="1.1"
   id="svg4"
   sodipodi:docname="chat-audio.svg"
   inkscape:version="1.1.2 (0a00cf5339, 2022-02-04)"
   xmlns:inkscape="http://www.inkscape.org/namespaces/inkscape"
   xmlns:sodipodi="http://sodipodi.sourceforge.net/DTD/sodipodi-0.dtd"
   xmlns="http://www.w3.org/2000/svg"
   xmlns:svg="http://www.w3.org/2000/svg">
  <defs
     id="defs8" />
  <sodipodi:namedview
     id="namedview6"
     pagecolor="#ffffff"
     bordercolor="#666666"
     borderopacity="1.0"
     inkscape:pageshadow="2"
     inkscape:pageopacity="0.0"
     inkscape:pagecheckerboard="0"
     showgrid="false"
     inkscape:zoom="6.2794118"
     inkscape:cx="7.7236534"
     inkscape:cy="-3.9812646"
     inkscape:window-width="1360"
     inkscape:window-height="740"
     inkscape:window-x="0"
     inkscape:window-y="0"
     inkscape:window-maximized="1"
     inkscape:current-layer="svg4" />
  <path
     d="m 8.3373132,8.5133738 v -4.268309 c 0,-0.849214 0.3689,-1.663549 1.025116,-2.264064 0.6568068,-0.600516 1.5471348,-0.937674 2.4758888,-0.937674 0.928753,0 1.819079,0.337158 2.475295,0.937674 0.656807,0.600515 1.025707,1.41485 1.025707,2.264064 v 4.268309 c 0,0.849214 -0.3689,1.6635492 -1.025707,2.2635602 -0.656216,0.600515 -1.546542,0.937673 -2.475295,0.937673 -0.928754,0 -1.819082,-0.337158 -2.4758888,-0.937673 -0.656216,-0.600011 -1.025116,-1.4143462 -1.025116,-2.2635602 z m 9.3360078,0 c 0,-0.141536 -0.06149,-0.277005 -0.170853,-0.377091 -0.109369,-0.100086 -0.257756,-0.1567 -0.412647,-0.1567 -0.15489,0 -0.303278,0.05661 -0.412647,0.1567 -0.10937,0.100086 -0.170853,0.235555 -0.170853,0.377091 0,1.132284 -0.491867,2.2175602 -1.367413,3.0182482 -0.874955,0.800687 -2.062647,1.250062 -3.30059,1.250062 -1.237945,0 -2.4256378,-0.449375 -3.3005928,-1.250062 -0.875546,-0.800688 -1.367412,-1.8859642 -1.367412,-3.0182482 0,-0.141536 -0.061484,-0.277005 -0.170853,-0.377091 -0.1093694,-0.100086 -0.257757,-0.1567 -0.4126477,-0.1567 -0.1548907,0 -0.3032782,0.05661 -0.4126477,0.1567 -0.1093694,0.100086 -0.1708527,0.235555 -0.1708527,0.377091 0.00178,1.322347 0.5397527,2.5971792 1.5098881,3.5778192 0.969545,0.98064 2.30326,1.597331 3.7416178,1.731284 v 1.627154 c 0,0.141535 0.06149,0.27751 0.170852,0.377597 0.10937,0.100085 0.257757,0.156194 0.412648,0.156194 0.15489,0 0.303278,-0.05611 0.412648,-0.156194 0.109369,-0.100087 0.170852,-0.236062 0.170852,-0.377597 v -1.627154 c 1.438356,-0.133953 2.772071,-0.750644 3.741615,-1.731284 0.970136,-0.98064 1.508115,-2.2554722 1.509888,-3.5778192 z"
     fill="#8e8e8e"
     id="path2" />
</svg>
