<svg width="20" height="33" viewBox="0 0 20 33" fill="none" xmlns="http://www.w3.org/2000/svg">
<path d="M3.02586 3.38359C1.98049 4.43084 1.19761 5.71048 0.741145 7.11803C0.284683 8.52558 0.16758 10.0211 0.399397 11.4826C0.631213 12.944 1.20538 14.3299 2.07501 15.5271C2.94464 16.7243 4.08509 17.6989 5.40323 18.3712L5.4024 27.9114C5.40247 28.0345 5.4268 28.1564 5.47401 28.2702C5.52121 28.3839 5.59036 28.4873 5.67751 28.5743L8.99208 31.8888C9.16789 32.0646 9.40635 32.1634 9.65499 32.1634C9.90363 32.1634 10.1421 32.0646 10.3179 31.8888L13.6325 28.5743C13.8083 28.3985 13.9071 28.16 13.9071 27.9114C13.9071 27.6627 13.8083 27.4243 13.6325 27.2484L12.3066 25.9226L13.6325 24.5968C13.8083 24.421 13.9071 24.1825 13.9071 23.9339C13.9071 23.6852 13.8083 23.4468 13.6325 23.271L12.3066 21.9451L13.6325 20.6193C13.7196 20.5323 13.7888 20.429 13.836 20.3152C13.8832 20.2015 13.9075 20.0796 13.9076 19.9564L13.9067 18.3712C15.1137 17.7559 16.1729 16.8864 17.0115 15.8224C17.8501 14.7585 18.4482 13.5254 18.7645 12.2082C19.0809 10.8909 19.108 9.52073 18.844 8.19199C18.58 6.86325 18.0311 5.60751 17.2352 4.51123C16.4394 3.41496 15.4153 2.50419 14.2337 1.84165C13.052 1.17911 11.7408 0.780533 10.3904 0.673362C9.03991 0.56619 7.68226 0.752973 6.4109 1.22085C5.13955 1.68872 3.9847 2.42657 3.02586 3.38359ZM10.9808 8.02398C10.7186 8.2862 10.3845 8.46478 10.0208 8.53713C9.65707 8.60947 9.28007 8.57234 8.93746 8.43043C8.59485 8.28851 8.30201 8.04819 8.09598 7.73985C7.88996 7.43151 7.77999 7.06899 7.77999 6.69815C7.77999 6.32731 7.88996 5.9648 8.09598 5.65646C8.30201 5.34812 8.59485 5.10779 8.93746 4.96588C9.28007 4.82397 9.65707 4.78683 10.0208 4.85918C10.3845 4.93153 10.7186 5.11011 10.9808 5.37233C11.3324 5.72396 11.53 6.20087 11.53 6.69815C11.53 7.19544 11.3324 7.67235 10.9808 8.02398Z" fill="black"/>
</svg>

