<svg width="35" height="20" viewBox="0 0 35 20" fill="none" xmlns="http://www.w3.org/2000/svg">
<path d="M24.5 17.3333V20H0V17.3333C0 17.3333 0 12 12.25 12C24.5 12 24.5 17.3333 24.5 17.3333ZM18.375 4.66672C18.375 3.74374 18.0158 2.8415 17.3428 2.07407C16.6697 1.30664 15.7131 0.708506 14.5939 0.355298C13.4747 0.00209021 12.2432 -0.090325 11.0551 0.0897387C9.86694 0.269802 8.77557 0.714258 7.91897 1.3669C7.06237 2.01954 6.47902 2.85106 6.24269 3.7563C6.00636 4.66154 6.12765 5.59985 6.59124 6.45257C7.05482 7.30529 7.83988 8.03412 8.84713 8.5469C9.85438 9.05968 11.0386 9.33337 12.25 9.33337C13.8745 9.33337 15.4324 8.84171 16.581 7.96654C17.7297 7.09137 18.375 5.90439 18.375 4.66672ZM24.395 12C25.4708 12.6344 26.3511 13.4406 26.9739 14.362C27.5968 15.2835 27.947 16.2977 28 17.3333V20H35V17.3333C35 17.3333 35 12.4934 24.395 12ZM22.75 7.01051e-05C21.5455 -0.00504016 20.3674 0.269343 19.3725 0.786734C20.4355 1.91838 21.0071 3.27511 21.0071 4.66672C21.0071 6.05833 20.4355 7.41506 19.3725 8.54671C20.3674 9.0641 21.5455 9.33848 22.75 9.33337C24.3745 9.33337 25.9324 8.84171 27.081 7.96654C28.2297 7.09137 28.875 5.90439 28.875 4.66672C28.875 3.42905 28.2297 2.24207 27.081 1.3669C25.9324 0.491734 24.3745 7.01051e-05 22.75 7.01051e-05Z" fill="black"/>
</svg>

