<svg width="31" height="33" viewBox="0 0 31 33" fill="none" xmlns="http://www.w3.org/2000/svg">
<path d="M25.1875 11.55V8.25C25.1875 3.63 20.925 0 15.5 0C10.075 0 5.8125 3.63 5.8125 8.25V11.55C2.51875 11.55 0 13.695 0 16.5V28.05C0 30.855 2.51875 33 5.8125 33H25.1875C28.4813 33 31 30.855 31 28.05V16.5C31 13.695 28.4813 11.55 25.1875 11.55ZM9.6875 8.25C9.6875 5.445 12.2063 3.3 15.5 3.3C18.7938 3.3 21.3125 5.445 21.3125 8.25V11.55H9.6875V8.25ZM17.6313 22.275L17.4375 22.44V24.75C17.4375 25.74 16.6625 26.4 15.5 26.4C14.3375 26.4 13.5625 25.74 13.5625 24.75V22.44C12.4 21.45 12.2062 19.965 13.3687 18.975C14.5312 17.985 16.275 17.82 17.4375 18.81C18.6 19.635 18.7938 21.285 17.6313 22.275Z" fill="black"/>
</svg>

