<svg width="33" height="31" viewBox="0 0 33 31" fill="none" xmlns="http://www.w3.org/2000/svg">
<path d="M16.5 31C7.38705 31 0 24.0606 0 15.5C0 6.93935 7.38705 0 16.5 0C25.6129 0 33 6.93935 33 15.5C33 24.0606 25.6129 31 16.5 31ZM16.5 27.9C20.0009 27.9 23.3583 26.5936 25.8338 24.2681C28.3093 21.9427 29.7 18.7887 29.7 15.5C29.7 12.2113 28.3093 9.05733 25.8338 6.73188C23.3583 4.40642 20.0009 3.1 16.5 3.1C12.9991 3.1 9.64167 4.40642 7.16619 6.73188C4.69071 9.05733 3.3 12.2113 3.3 15.5C3.3 18.7887 4.69071 21.9427 7.16619 24.2681C9.64167 26.5936 12.9991 27.9 16.5 27.9ZM14.85 20.15H18.15V23.25H14.85V20.15ZM18.15 17.6002V18.6H14.85V16.275C14.85 15.8639 15.0238 15.4697 15.3333 15.179C15.6427 14.8883 16.0624 14.725 16.5 14.725C16.9687 14.725 17.4278 14.5999 17.8238 14.3644C18.2199 14.1288 18.5365 13.7925 18.737 13.3945C18.9375 12.9964 19.0136 12.5531 18.9563 12.1161C18.8991 11.6791 18.7109 11.2663 18.4137 10.9258C18.1165 10.5853 17.7225 10.3311 17.2775 10.1928C16.8325 10.0544 16.3549 10.0376 15.9001 10.1443C15.4453 10.251 15.0322 10.4768 14.7087 10.7955C14.3852 11.1141 14.1647 11.5125 14.0729 11.9443L10.8356 11.3351C11.0362 10.3929 11.4997 9.51757 12.1785 8.79871C12.8573 8.07984 13.7272 7.5432 14.6992 7.24365C15.6711 6.94409 16.7104 6.89236 17.7106 7.09375C18.7108 7.29514 19.6362 7.74243 20.3921 8.38988C21.1479 9.03733 21.7073 9.86173 22.0128 10.7788C22.3184 11.6959 22.3593 12.6727 22.1312 13.6095C21.9032 14.5462 21.4144 15.4093 20.715 16.1105C20.0155 16.8117 19.1303 17.3258 18.15 17.6002Z" fill="black"/>
</svg>

