<svg width="30" height="33" viewBox="0 0 30 33" fill="none" xmlns="http://www.w3.org/2000/svg">
<path d="M15 0C23.2845 0 30 7.38705 30 16.5C30 25.6129 23.2845 33 15 33H1.21522e-05L4.39351 28.1671C2.99856 26.6367 1.89232 24.8181 1.13833 22.8158C0.384351 20.8136 -0.00249951 18.6672 1.21522e-05 16.5C1.21522e-05 7.38705 6.71551 0 15 0ZM21 18.15H9.00001C9.00001 19.9004 9.63215 21.5792 10.7574 22.8169C11.8826 24.0546 13.4087 24.75 15 24.75C16.5913 24.75 18.1174 24.0546 19.2426 22.8169C20.3679 21.5792 21 19.9004 21 18.15Z" fill="black"/>
</svg>

