<svg width="36" height="40" viewBox="0 0 36 40" fill="none" xmlns="http://www.w3.org/2000/svg">
<path fill-rule="evenodd" clip-rule="evenodd" d="M28.3108 33.8677C29.4689 33.8475 30.5708 33.3203 31.374 32.402C32.1772 31.4838 32.6159 30.2498 32.5936 28.9714L32.3131 12.9044C32.2908 11.626 31.8093 10.4081 30.9746 9.51841C30.1398 8.62876 29.0202 8.14032 27.8621 8.16054L10.8791 8.45697L5.95738 4.52491C4.74061 3.55291 3.04527 4.52753 3.07415 6.18243L3.48081 29.4796C3.50312 30.7579 3.9846 31.9759 4.81934 32.8656C5.65407 33.7552 6.77368 34.2436 7.93185 34.2234L28.3108 33.8677ZM16.4133 19.6107L12.0464 19.6869C11.6603 19.6937 11.2871 19.5308 11.0089 19.2343C10.7306 18.9377 10.5701 18.5317 10.5627 18.1056C10.5552 17.6795 10.7015 17.2682 10.9692 16.9621C11.2369 16.656 11.6042 16.4803 11.9903 16.4735L16.3572 16.3973C16.7432 16.3906 17.1164 16.5534 17.3947 16.8499C17.6729 17.1465 17.8334 17.5525 17.8409 17.9786C17.8483 18.4047 17.7021 18.8161 17.4343 19.1221C17.1666 19.4282 16.7993 19.604 16.4133 19.6107ZM23.8036 25.9104L12.1585 26.1137C11.7875 26.1197 11.4279 25.9692 11.1532 25.6927C10.8786 25.4163 10.7095 25.0349 10.6806 24.6265C10.6517 24.2181 10.7652 23.8134 10.9979 23.4952C11.2305 23.177 11.5648 22.9693 11.9323 22.9145L12.1024 22.9003L23.7475 22.697C24.1186 22.691 24.4782 22.8416 24.7528 23.118C25.0275 23.3944 25.1966 23.7758 25.2255 24.1843C25.2543 24.5927 25.1409 24.9973 24.9082 25.3155C24.6756 25.6337 24.3413 25.8414 23.9738 25.8962L23.8036 25.9104Z" fill="black"/>
</svg>

