<svg width="32" height="34" viewBox="0 0 32 34" fill="none" xmlns="http://www.w3.org/2000/svg">
<path d="M3.6032 13.6C3.33465 14.7108 3.19918 15.8532 3.2 17C3.2 18.173 3.3408 19.312 3.6032 20.4H8.16C7.94429 18.1391 7.94429 15.8609 8.16 13.6H3.6032ZM4.912 10.2H8.6656C9.0912 8.1311 9.7056 6.2781 10.4592 4.7362C8.13629 5.92521 6.20355 7.8289 4.912 10.2ZM28.3968 13.6H23.84C24.0557 15.8609 24.0557 18.1391 23.84 20.4H28.3968C28.9355 18.1695 28.9355 15.8305 28.3968 13.6ZM27.088 10.2C25.7965 7.8289 23.8637 5.92521 21.5408 4.7362C22.296 6.2781 22.9088 8.1311 23.3344 10.2H27.088ZM11.3792 13.6C11.2593 14.7289 11.1995 15.864 11.2 17C11.2 18.1645 11.2608 19.3035 11.3792 20.4H20.6208C20.8618 18.1406 20.8618 15.8594 20.6208 13.6H11.3792ZM11.952 10.2H20.048C19.7568 8.92211 19.3368 7.6813 18.7952 6.4991C17.7904 4.3656 16.7152 3.4 16 3.4C15.2832 3.4 14.2096 4.3656 13.2048 6.4991C12.7008 7.5735 12.2768 8.823 11.952 10.2ZM4.912 23.8C6.20355 26.1711 8.13629 28.0748 10.4592 29.2638C9.704 27.7219 9.0912 25.8689 8.6656 23.8H4.912ZM27.088 23.8H23.3344C22.9088 25.8689 22.2944 27.7219 21.5408 29.2638C23.8637 28.0748 25.7965 26.1711 27.088 23.8ZM11.952 23.8C12.2768 25.177 12.7008 26.4265 13.2048 27.5009C14.2096 29.6344 15.2848 30.6 16 30.6C16.7168 30.6 17.7904 29.6344 18.7952 27.5009C19.2992 26.4265 19.7232 25.177 20.048 23.8H11.952ZM16 34C7.1632 34 0 26.3891 0 17C0 7.6109 7.1632 0 16 0C24.8368 0 32 7.6109 32 17C32 26.3891 24.8368 34 16 34Z" fill="black"/>
</svg>

