<svg width="27" height="30" viewBox="0 0 27 30" fill="none" xmlns="http://www.w3.org/2000/svg">
<path d="M13.125 30.0016C14.1196 30.0016 15.0734 29.6066 15.7766 28.9033C16.4799 28.2 16.875 27.2462 16.875 26.2516H9.375C9.375 27.2462 9.77009 28.2 10.4733 28.9033C11.1766 29.6066 12.1304 30.0016 13.125 30.0016ZM14.9906 2.06227C15.0168 1.80155 14.988 1.53825 14.9062 1.28934C14.8243 1.04043 14.6912 0.811434 14.5155 0.617124C14.3397 0.422815 14.1251 0.267505 13.8856 0.161212C13.6461 0.0549178 13.387 0 13.125 0C12.863 0 12.6039 0.0549178 12.3644 0.161212C12.1249 0.267505 11.9103 0.422815 11.7345 0.617124C11.5588 0.811434 11.4257 1.04043 11.3438 1.28934C11.262 1.53825 11.2332 1.80155 11.2594 2.06227C9.1401 2.49333 7.23492 3.64357 5.86643 5.3182C4.49795 6.99284 3.75027 9.08897 3.75 11.2516C3.75 13.3104 2.8125 22.5016 0 24.3766H26.25C23.4375 22.5016 22.5 13.3104 22.5 11.2516C22.5 6.71414 19.275 2.92664 14.9906 2.06227Z" fill="black"/>
</svg>

