<svg width="44" height="48" viewBox="0 0 44 48" fill="none" xmlns="http://www.w3.org/2000/svg">
<ellipse cx="22" cy="24" rx="22" ry="24" fill="#01A982"/>
<path fill-rule="evenodd" clip-rule="evenodd" d="M16.6429 16.6584C16.6429 15.4229 17.2073 14.238 18.212 13.3644C19.2166 12.4908 20.5792 12 22 12C23.4208 12 24.7834 12.4908 25.788 13.3644C26.7927 14.238 27.3571 15.4229 27.3571 16.6584C27.3571 17.8939 26.7927 19.0788 25.788 19.9524C24.7834 20.826 23.4208 21.3168 22 21.3168C20.5792 21.3168 19.2166 20.826 18.212 19.9524C17.2073 19.0788 16.6429 17.8939 16.6429 16.6584ZM27.3571 20.3851C27.3571 19.3967 27.8086 18.4488 28.6123 17.7499C29.4161 17.051 30.5061 16.6584 31.6428 16.6584C32.7794 16.6584 33.8695 17.051 34.6732 17.7499C35.4769 18.4488 35.9285 19.3967 35.9285 20.3851C35.9285 21.3735 35.4769 22.3214 34.6732 23.0203C33.8695 23.7192 32.7794 24.1118 31.6428 24.1118C30.5061 24.1118 29.4161 23.7192 28.6123 23.0203C27.8086 22.3214 27.3571 21.3735 27.3571 20.3851ZM8.07153 20.3851C8.07153 19.3967 8.52306 18.4488 9.32678 17.7499C10.1305 17.051 11.2206 16.6584 12.3572 16.6584C13.4938 16.6584 14.5839 17.051 15.3876 17.7499C16.1914 18.4488 16.6429 19.3967 16.6429 20.3851C16.6429 21.3735 16.1914 22.3214 15.3876 23.0203C14.5839 23.7192 13.4938 24.1118 12.3572 24.1118C11.2206 24.1118 10.1305 23.7192 9.32678 23.0203C8.52306 22.3214 8.07153 21.3735 8.07153 20.3851ZM13.8715 27.0522C14.7428 25.8647 15.9444 24.8873 17.3652 24.2105C18.786 23.5337 20.38 23.1794 22 23.1802C23.3569 23.1791 24.6987 23.4272 25.9377 23.9083C27.1766 24.3894 28.2848 25.0926 29.1896 25.9719C30.0943 26.8512 30.7753 27.8868 31.188 29.0108C31.6007 30.1348 31.7357 31.322 31.5842 32.4945C31.5657 32.6402 31.5079 32.78 31.4156 32.9026C31.3232 33.0252 31.1989 33.1271 31.0528 33.2001C28.2979 34.5747 25.1762 35.296 22 35.292C18.8238 35.2964 15.702 34.575 12.9472 33.2001C12.8011 33.1271 12.6768 33.0252 12.5844 32.9026C12.4921 32.78 12.4343 32.6402 12.4158 32.4945C12.1759 30.5897 12.6893 28.6706 13.8715 27.0535V27.0522Z" fill="#FDFEFF"/>
<path d="M12.1172 25.9802C10.7083 27.8713 10.0519 30.1123 10.2487 32.3591C9.39082 32.246 8.54711 32.063 7.72868 31.8125L7.5644 31.7628C7.41782 31.7176 7.28947 31.6363 7.1949 31.529C7.10032 31.4216 7.04358 31.2927 7.03154 31.1578L7.01726 31.0075C6.95955 30.3839 7.04691 29.7565 7.27412 29.1629C7.50133 28.5692 7.86373 28.0214 8.33971 27.5522C8.81569 27.083 9.39548 26.702 10.0445 26.4319C10.6935 26.1618 11.3984 26.0082 12.1172 25.9802ZM33.7513 32.3591C33.9481 30.1123 33.2917 27.8713 31.8828 25.9802C32.6016 26.0082 33.3065 26.1618 33.9555 26.4319C34.6045 26.702 35.1843 27.083 35.6603 27.5522C36.1363 28.0214 36.4987 28.5692 36.7259 29.1629C36.9531 29.7565 37.0404 30.3839 36.9827 31.0075L36.9685 31.1578C36.9562 31.2925 36.8993 31.4211 36.8047 31.5282C36.7102 31.6354 36.582 31.7164 36.4356 31.7616L36.2713 31.8113C35.4613 32.0597 34.6199 32.2448 33.7513 32.3591Z" fill="#FDFEFF"/>
</svg>

