<svg width="44" height="48" viewBox="0 0 44 48" fill="none" xmlns="http://www.w3.org/2000/svg">
<ellipse cx="22" cy="24" rx="22" ry="24" fill="#01A982"/>
<path d="M27.4545 22.5714C29.7182 22.5714 31.5318 20.6571 31.5318 18.2857C31.5318 15.9143 29.7182 14 27.4545 14C25.1909 14 23.3636 15.9143 23.3636 18.2857C23.3636 20.6571 25.1909 22.5714 27.4545 22.5714ZM16.5455 22.5714C18.8091 22.5714 20.6227 20.6571 20.6227 18.2857C20.6227 15.9143 18.8091 14 16.5455 14C14.2818 14 12.4545 15.9143 12.4545 18.2857C12.4545 20.6571 14.2818 22.5714 16.5455 22.5714ZM16.5455 25.4286C13.3682 25.4286 7 27.1 7 30.4286V32.5714C7 33.3571 7.61364 34 8.36364 34H24.7273C25.4773 34 26.0909 33.3571 26.0909 32.5714V30.4286C26.0909 27.1 19.7227 25.4286 16.5455 25.4286ZM27.4545 25.4286C27.0591 25.4286 26.6091 25.4571 26.1318 25.5C26.1591 25.5143 26.1727 25.5429 26.1864 25.5571C27.7409 26.7429 28.8182 28.3286 28.8182 30.4286V32.5714C28.8182 33.0714 28.7227 33.5571 28.5727 34H35.6364C36.3864 34 37 33.3571 37 32.5714V30.4286C37 27.1 30.6318 25.4286 27.4545 25.4286Z" fill="#F9FEFF"/>
</svg>

