<svg width="44" height="48" viewBox="0 0 44 48" fill="none" xmlns="http://www.w3.org/2000/svg">
<ellipse cx="22" cy="24" rx="22" ry="24" fill="#01A982"/>
<path d="M25.125 24C27.7944 24 29.9583 21.7614 29.9583 19C29.9583 16.2386 27.7944 14 25.125 14C22.4556 14 20.2917 16.2386 20.2917 19C20.2917 21.7614 22.4556 24 25.125 24Z" fill="#FDFEFF"/>
<path d="M25.125 34C25.125 34 34.7917 34 34.7917 31.5C34.7917 28.5 30.0792 25.25 25.125 25.25C20.1708 25.25 15.4583 28.5 15.4583 31.5C15.4583 34 25.125 34 25.125 34ZM14.25 21.5V17.75H11.8333V21.5H8.20834V24H11.8333V27.75H14.25V24H17.875V21.5H14.25Z" fill="#FDFEFF"/>
</svg>

