<svg width="56" height="51" viewBox="0 0 56 51" fill="none" xmlns="http://www.w3.org/2000/svg">
<path d="M29 7C36.7322 7 43 14.3871 43 23.5C43 32.6129 36.7322 40 29 40H15L19.1006 35.1671C17.7987 33.6367 16.7662 31.8181 16.0624 29.8158C15.3587 27.8136 14.9977 25.6672 15 23.5C15 14.3871 21.2678 7 29 7ZM34.6 25.15H23.4C23.4 26.9004 23.99 28.5792 25.0402 29.8169C26.0904 31.0546 27.5148 31.75 29 31.75C30.4852 31.75 31.9096 31.0546 32.9598 29.8169C34.01 28.5792 34.6 26.9004 34.6 25.15Z" fill="white"/>
<path d="M28 0C22.4621 0 17.0486 1.49555 12.444 4.29752C7.83947 7.0995 4.25064 11.0821 2.13139 15.7416C0.012132 20.4011 -0.542361 25.5283 0.538025 30.4748C1.61841 35.4213 4.28515 39.965 8.20102 43.5312C12.1169 47.0975 17.106 49.5261 22.5375 50.51C27.9689 51.4939 33.5988 50.989 38.7151 49.0589C43.8315 47.1289 48.2045 43.8605 51.2812 39.667C54.3578 35.4736 56 30.5434 56 25.5C55.9922 18.7392 53.0397 12.2573 47.7903 7.47666C42.541 2.69603 35.4237 0.00713955 28 0ZM28 47.0769C23.3141 47.0769 18.7334 45.8115 14.8373 43.4405C10.9411 41.0696 7.90439 37.6998 6.11117 33.7571C4.31796 29.8145 3.84877 25.4761 4.76294 21.2905C5.67712 17.105 7.93359 13.2604 11.247 10.2428C14.5604 7.22522 18.782 5.17022 23.3779 4.33767C27.9737 3.50512 32.7375 3.93242 37.0667 5.56552C41.3959 7.19863 45.0961 9.96419 47.6994 13.5125C50.3028 17.0608 51.6923 21.2325 51.6923 25.5C51.6852 31.2206 49.1868 36.705 44.7451 40.75C40.3035 44.7951 34.2814 47.0704 28 47.0769Z" fill="#F8FDF7" fill-opacity="0.15"/>
</svg>

