<svg width="56" height="51" viewBox="0 0 56 51" fill="none" xmlns="http://www.w3.org/2000/svg">
<path d="M10 18.25C10 16.5312 11.62 15.125 13.6 15.125H19L22.6 12H33.4L37 15.125H42.4C43.3548 15.125 44.2705 15.4542 44.9456 16.0403C45.6207 16.6263 46 17.4212 46 18.25V33.875C46 34.7038 45.6207 35.4987 44.9456 36.0847C44.2705 36.6708 43.3548 37 42.4 37H13.6C12.6452 37 11.7295 36.6708 11.0544 36.0847C10.3793 35.4987 10 34.7038 10 33.875V18.25ZM28 33.875C30.3869 33.875 32.6761 33.0519 34.364 31.5868C36.0518 30.1216 37 28.1345 37 26.0625C37 23.9905 36.0518 22.0034 34.364 20.5382C32.6761 19.0731 30.3869 18.25 28 18.25C25.6131 18.25 23.3239 19.0731 21.636 20.5382C19.9482 22.0034 19 23.9905 19 26.0625C19 28.1345 19.9482 30.1216 21.636 31.5868C23.3239 33.0519 25.6131 33.875 28 33.875ZM28 30.75C27.2909 30.75 26.5887 30.6288 25.9335 30.3932C25.2784 30.1576 24.6831 29.8123 24.1816 29.3771C23.6802 28.9418 23.2824 28.425 23.011 27.8563C22.7397 27.2876 22.6 26.6781 22.6 26.0625C22.6 25.4469 22.7397 24.8374 23.011 24.2687C23.2824 23.7 23.6802 23.1832 24.1816 22.7479C24.6831 22.3127 25.2784 21.9674 25.9335 21.7318C26.5887 21.4962 27.2909 21.375 28 21.375C29.4322 21.375 30.8057 21.8689 31.8184 22.7479C32.8311 23.627 33.4 24.8193 33.4 26.0625C33.4 27.3057 32.8311 28.498 31.8184 29.3771C30.8057 30.2561 29.4322 30.75 28 30.75Z" fill="white"/>
<path d="M28 0C22.4621 0 17.0486 1.49555 12.444 4.29752C7.83947 7.0995 4.25064 11.0821 2.13139 15.7416C0.012132 20.4011 -0.542361 25.5283 0.538025 30.4748C1.61841 35.4213 4.28515 39.965 8.20102 43.5312C12.1169 47.0975 17.106 49.5261 22.5375 50.51C27.9689 51.4939 33.5988 50.989 38.7151 49.0589C43.8315 47.1289 48.2045 43.8605 51.2812 39.667C54.3578 35.4736 56 30.5434 56 25.5C55.9922 18.7392 53.0397 12.2573 47.7903 7.47666C42.541 2.69603 35.4237 0.00713955 28 0ZM28 47.0769C23.3141 47.0769 18.7334 45.8115 14.8373 43.4405C10.9411 41.0696 7.90439 37.6998 6.11117 33.7571C4.31796 29.8145 3.84877 25.4761 4.76294 21.2905C5.67712 17.105 7.93359 13.2604 11.247 10.2428C14.5604 7.22522 18.782 5.17022 23.3779 4.33767C27.9737 3.50512 32.7375 3.93242 37.0667 5.56552C41.3959 7.19863 45.0961 9.96419 47.6994 13.5125C50.3028 17.0608 51.6923 21.2325 51.6923 25.5C51.6852 31.2206 49.1868 36.705 44.7451 40.75C40.3035 44.7951 34.2814 47.0704 28 47.0769Z" fill="#F8FDF7" fill-opacity="0.15"/>
</svg>

