<svg width="56" height="51" viewBox="0 0 56 51" fill="none" xmlns="http://www.w3.org/2000/svg">
<path d="M43 14.625V36.375C43 37.3364 42.6049 38.2584 41.9016 38.9383C41.1984 39.6181 40.2446 40 39.25 40H16.75C15.7554 40 14.8016 39.6181 14.0983 38.9383C13.3951 38.2584 13 37.3364 13 36.375V14.625C13 13.6636 13.3951 12.7416 14.0983 12.0617C14.8016 11.3819 15.7554 11 16.75 11H39.25C40.2446 11 41.1984 11.3819 41.9016 12.0617C42.6049 12.7416 43 13.6636 43 14.625ZM39.25 14.625H16.75V26.1888L20.8562 22.2194L30.6625 31.6987L32.5375 29.8862C33.1078 29.4453 33.8256 29.2221 34.5548 29.2588C35.2841 29.2956 35.974 29.5898 36.4938 30.0856L39.25 32.75V14.625ZM29.875 20.9688C29.875 20.2477 30.1713 19.5562 30.6988 19.0463C31.2262 18.5364 31.9416 18.25 32.6875 18.25C33.4334 18.25 34.1488 18.5364 34.6762 19.0463C35.2037 19.5562 35.5 20.2477 35.5 20.9688C35.5 21.6898 35.2037 22.3813 34.6762 22.8912C34.1488 23.4011 33.4334 23.6875 32.6875 23.6875C31.9416 23.6875 31.2262 23.4011 30.6988 22.8912C30.1713 22.3813 29.875 21.6898 29.875 20.9688Z" fill="#FFF9F9"/>
<path d="M28 0C22.4621 0 17.0486 1.49555 12.444 4.29752C7.83947 7.0995 4.25064 11.0821 2.13139 15.7416C0.012132 20.4011 -0.542361 25.5283 0.538025 30.4748C1.61841 35.4213 4.28515 39.965 8.20102 43.5312C12.1169 47.0975 17.106 49.5261 22.5375 50.51C27.9689 51.4939 33.5988 50.989 38.7151 49.0589C43.8315 47.1289 48.2045 43.8605 51.2812 39.667C54.3578 35.4736 56 30.5434 56 25.5C55.9922 18.7392 53.0397 12.2573 47.7903 7.47666C42.541 2.69603 35.4237 0.00713955 28 0ZM28 47.0769C23.3141 47.0769 18.7334 45.8115 14.8373 43.4405C10.9411 41.0696 7.90439 37.6998 6.11117 33.7571C4.31796 29.8145 3.84877 25.4761 4.76294 21.2905C5.67712 17.105 7.93359 13.2604 11.247 10.2428C14.5604 7.22522 18.782 5.17022 23.3779 4.33767C27.9737 3.50512 32.7375 3.93242 37.0667 5.56552C41.3959 7.19863 45.0961 9.96419 47.6994 13.5125C50.3028 17.0608 51.6923 21.2325 51.6923 25.5C51.6852 31.2206 49.1868 36.705 44.7451 40.75C40.3035 44.7951 34.2814 47.0704 28 47.0769Z" fill="#F8FDF7" fill-opacity="0.15"/>
</svg>

