<svg width="31" height="30" viewBox="0 0 31 30" fill="none" xmlns="http://www.w3.org/2000/svg">
<path d="M20.925 13.275C22.209 13.275 23.25 12.2844 23.25 11.0625C23.25 9.84058 22.209 8.85001 20.925 8.85001C19.6409 8.85001 18.6 9.84058 18.6 11.0625C18.6 12.2844 19.6409 13.275 20.925 13.275Z" fill="#9A9999"/>
<path d="M10.075 13.275C11.3591 13.275 12.4 12.2844 12.4 11.0625C12.4 9.84058 11.3591 8.85001 10.075 8.85001C8.79094 8.85001 7.75 9.84058 7.75 11.0625C7.75 12.2844 8.79094 13.275 10.075 13.275Z" fill="#9A9999"/>
<path d="M15.5 23.6C19.034 23.6 22.041 21.1515 23.25 17.7H7.75C8.959 21.1515 11.966 23.6 15.5 23.6Z" fill="#9A9999"/>
<path d="M15.4845 0C6.9285 0 0 6.608 0 14.75C0 22.892 6.9285 29.5 15.4845 29.5C24.056 29.5 31 22.892 31 14.75C31 6.608 24.056 0 15.4845 0ZM15.5 26.55C8.649 26.55 3.1 21.2695 3.1 14.75C3.1 8.2305 8.649 2.95 15.5 2.95C22.351 2.95 27.9 8.2305 27.9 14.75C27.9 21.2695 22.351 26.55 15.5 26.55Z" fill="#9A9999"/>
</svg>

