<?xml version="1.0" encoding="UTF-8" standalone="no"?>
<svg
   width="30"
   height="35"
   viewBox="0 0 30 35"
   fill="none"
   version="1.1"
   id="svg47"
   sodipodi:docname="lock.svg"
   inkscape:version="1.1.2 (0a00cf5339, 2022-02-04)"
   xmlns:inkscape="http://www.inkscape.org/namespaces/inkscape"
   xmlns:sodipodi="http://sodipodi.sourceforge.net/DTD/sodipodi-0.dtd"
   xmlns="http://www.w3.org/2000/svg"
   xmlns:svg="http://www.w3.org/2000/svg">
  <sodipodi:namedview
     id="namedview49"
     pagecolor="#ffffff"
     bordercolor="#666666"
     borderopacity="1.0"
     inkscape:pageshadow="2"
     inkscape:pageopacity="0.0"
     inkscape:pagecheckerboard="0"
     showgrid="false"
     inkscape:zoom="1.782881"
     inkscape:cx="-23.837822"
     inkscape:cy="1.6826698"
     inkscape:window-width="1360"
     inkscape:window-height="740"
     inkscape:window-x="0"
     inkscape:window-y="0"
     inkscape:window-maximized="1"
     inkscape:current-layer="svg47" />
  <path
     id="icone-lock"
     d="m 21.862752,14.370524 h -2.5 c 0,-0.492 -0.097,-0.98 -0.285,-1.435 -0.189,-0.455 -0.465,-0.868 -0.813,-1.217 -0.349,-0.348 -0.762,-0.624 -1.217,-0.813 -0.455,-0.188 -0.943,-0.285 -1.435,-0.285 -0.492,0 -0.98,0.097 -1.435,0.285 -0.455,0.189 -0.868,0.465 -1.217,0.813 -0.348,0.349 -0.624,0.762 -0.813,1.217 -0.188,0.455 -0.285,0.943 -0.285,1.435 v 6.25 h 10 c 0.663,0 1.299,0.263 1.768,0.732 0.469,0.469 0.732,1.105 0.732,1.768 v 7.5 c 0,0.663 -0.263,1.299 -0.732,1.768 -0.469,0.469 -1.105,0.732 -1.768,0.732 H 9.3627519 c -0.663,0 -1.299,-0.263 -1.768,-0.732 -0.469,-0.469 -0.732,-1.105 -0.732,-1.768 v -7.5 c 0,-0.663 0.263,-1.299 0.732,-1.768 0.469,-0.469 1.105,-0.732 1.768,-0.732 v -6.25 c 0,-1.658 0.6580001,-3.247 1.8310001,-4.4190003 1.172,-1.173 2.761,-1.831 4.419,-1.831 1.658,0 3.247,0.658 4.419,1.831 1.173,1.1720003 1.831,2.7610003 1.831,4.4190003 z m -6.25,15 c 0.663,0 1.299,-0.263 1.768,-0.732 0.469,-0.469 0.732,-1.105 0.732,-1.768 0,-0.663 -0.263,-1.299 -0.732,-1.768 -0.469,-0.469 -1.105,-0.732 -1.768,-0.732 -0.663,0 -1.299,0.263 -1.768,0.732 -0.469,0.469 -0.732,1.105 -0.732,1.768 0,0.663 0.263,1.299 0.732,1.768 0.469,0.469 1.105,0.732 1.768,0.732 z"
     fill="#000000" />
  <defs
     id="defs45">
    <filter
       id="filter0_i_0_1"
       x="313.569"
       y="901.79199"
       width="31.6001"
       height="35.514198"
       filterUnits="userSpaceOnUse"
       color-interpolation-filters="sRGB">
      <feFlood
         flood-opacity="0"
         result="BackgroundImageFix"
         id="feFlood11" />
      <feBlend
         mode="normal"
         in="SourceGraphic"
         in2="BackgroundImageFix"
         result="shape"
         id="feBlend13" />
      <feColorMatrix
         in="SourceAlpha"
         type="matrix"
         values="0 0 0 0 0 0 0 0 0 0 0 0 0 0 0 0 0 0 127 0"
         result="hardAlpha"
         id="feColorMatrix15" />
      <feOffset
         dy="4"
         id="feOffset17" />
      <feGaussianBlur
         stdDeviation="2"
         id="feGaussianBlur19" />
      <feComposite
         in2="hardAlpha"
         operator="arithmetic"
         k2="-1"
         k3="1"
         id="feComposite21"
         k1="0"
         k4="0" />
      <feColorMatrix
         type="matrix"
         values="0 0 0 0 0 0 0 0 0 0 0 0 0 0 0 0 0 0 0.25 0"
         id="feColorMatrix23" />
      <feBlend
         mode="normal"
         in2="shape"
         result="effect1_innerShadow_0_1"
         id="feBlend25" />
    </filter>
    <filter
       id="filter1_i_0_1"
       x="365"
       y="903"
       width="35"
       height="35"
       filterUnits="userSpaceOnUse"
       color-interpolation-filters="sRGB">
      <feFlood
         flood-opacity="0"
         result="BackgroundImageFix"
         id="feFlood28" />
      <feBlend
         mode="normal"
         in="SourceGraphic"
         in2="BackgroundImageFix"
         result="shape"
         id="feBlend30" />
      <feColorMatrix
         in="SourceAlpha"
         type="matrix"
         values="0 0 0 0 0 0 0 0 0 0 0 0 0 0 0 0 0 0 127 0"
         result="hardAlpha"
         id="feColorMatrix32" />
      <feOffset
         dy="4"
         id="feOffset34" />
      <feGaussianBlur
         stdDeviation="2"
         id="feGaussianBlur36" />
      <feComposite
         in2="hardAlpha"
         operator="arithmetic"
         k2="-1"
         k3="1"
         id="feComposite38"
         k1="0"
         k4="0" />
      <feColorMatrix
         type="matrix"
         values="0 0 0 0 0 0 0 0 0 0 0 0 0 0 0 0 0 0 0.25 0"
         id="feColorMatrix40" />
      <feBlend
         mode="normal"
         in2="shape"
         result="effect1_innerShadow_0_1"
         id="feBlend42" />
    </filter>
  </defs>
</svg>
