<svg width="25" height="23" viewBox="0 0 25 23" fill="none" xmlns="http://www.w3.org/2000/svg">
<path d="M23.0556 23L14.3056 14.95C13.6111 15.4611 12.8125 15.8657 11.9097 16.1639C11.0069 16.462 10.0463 16.6111 9.02778 16.6111C6.50463 16.6111 4.36944 15.807 2.62222 14.1987C0.875 12.5904 0.000925926 10.626 0 8.30556C0 5.98426 0.874074 4.01989 2.62222 2.41244C4.37037 0.805 6.50556 0.000851852 9.02778 0C11.5509 0 13.6861 0.804148 15.4333 2.41244C17.1806 4.02074 18.0546 5.98511 18.0556 8.30556C18.0556 9.24259 17.8935 10.1264 17.5694 10.9569C17.2454 11.7875 16.8056 12.5222 16.25 13.1611L25 21.2111L23.0556 23ZM9.02778 14.0556C10.7639 14.0556 12.2398 13.4963 13.4556 12.3778C14.6713 11.2594 15.2787 9.90193 15.2778 8.30556C15.2778 6.70833 14.6699 5.35048 13.4542 4.232C12.2384 3.11352 10.763 2.5547 9.02778 2.55556C7.29167 2.55556 5.81574 3.1148 4.6 4.23328C3.38426 5.35176 2.77685 6.70919 2.77778 8.30556C2.77778 9.90278 3.38565 11.2606 4.60139 12.3791C5.81713 13.4976 7.29259 14.0564 9.02778 14.0556Z" fill="#F5F5F5"/>
</svg>

