<svg width="27" height="27" viewBox="0 0 27 27" fill="none" xmlns="http://www.w3.org/2000/svg">
<path fill-rule="evenodd" clip-rule="evenodd" d="M19.275 0.409727C19.0588 0.194479 18.7785 0.0553692 18.4763 0.0133834C18.1742 -0.0286023 17.8665 0.028813 17.5999 0.176968C17.3332 0.325123 17.1219 0.555983 16.9979 0.834721C16.8739 1.11346 16.844 1.42496 16.9125 1.72223L10.6687 7.96598H6.01125C3.9225 7.96598 2.87812 10.4897 4.35375 11.9672L7.93687 15.5504L0.961875 23.3035C0.342391 23.9922 -0.00024445 24.8859 1.3085e-07 25.8122V26.2472H0.436875C1.36258 26.247 2.25549 25.9044 2.94375 25.2854L10.6969 18.3085L14.28 21.8897C15.7575 23.3672 18.2812 22.321 18.2812 20.2341V15.5785L24.525 9.33473C24.8226 9.40392 25.1347 9.37427 25.414 9.25028C25.6933 9.12629 25.9246 8.91469 26.0729 8.64752C26.2212 8.38035 26.2785 8.07213 26.236 7.76952C26.1935 7.46691 26.0536 7.18637 25.8375 6.97035L24.7069 5.83785L20.4075 1.53848L19.275 0.407852V0.409727Z" fill="#FEFEFF"/>
</svg>

