<svg width="7" height="25" viewBox="0 0 7 25" fill="none" xmlns="http://www.w3.org/2000/svg">
<path d="M0.704 12.408C0.704 11.512 0.981333 10.7653 1.536 10.168C2.09067 9.57067 2.848 9.272 3.808 9.272C4.768 9.272 5.52533 9.57067 6.08 10.168C6.63467 10.7653 6.912 11.512 6.912 12.408C6.912 13.304 6.63467 14.0507 6.08 14.648C5.52533 15.2453 4.768 15.544 3.808 15.544C2.848 15.544 2.09067 15.2453 1.536 14.648C0.981333 14.0507 0.704 13.304 0.704 12.408Z" fill="#F5F5F5"/>
<path d="M0.704 3.408C0.704 2.512 0.981333 1.76533 1.536 1.168C2.09067 0.570666 2.848 0.272 3.808 0.272C4.768 0.272 5.52533 0.570666 6.08 1.168C6.63467 1.76533 6.912 2.512 6.912 3.408C6.912 4.304 6.63467 5.05067 6.08 5.648C5.52533 6.24533 4.768 6.544 3.808 6.544C2.848 6.544 2.09067 6.24533 1.536 5.648C0.981333 5.05067 0.704 4.304 0.704 3.408Z" fill="#F5F5F5"/>
<path d="M0.704 21.408C0.704 20.512 0.981333 19.7653 1.536 19.168C2.09067 18.5707 2.848 18.272 3.808 18.272C4.768 18.272 5.52533 18.5707 6.08 19.168C6.63467 19.7653 6.912 20.512 6.912 21.408C6.912 22.304 6.63467 23.0507 6.08 23.648C5.52533 24.2453 4.768 24.544 3.808 24.544C2.848 24.544 2.09067 24.2453 1.536 23.648C0.981333 23.0507 0.704 22.304 0.704 21.408Z" fill="#F5F5F5"/>
</svg>
