<svg width="35" height="28" viewBox="0 0 35 28" fill="none" xmlns="http://www.w3.org/2000/svg">
<path fill-rule="evenodd" clip-rule="evenodd" d="M11.2502 5.4584C11.2502 4.01074 11.9086 2.62238 13.0807 1.59873C14.2528 0.57508 15.8425 0 17.5001 0C19.1577 0 20.7474 0.57508 21.9195 1.59873C23.0916 2.62238 23.7501 4.01074 23.7501 5.4584C23.7501 6.90606 23.0916 8.29443 21.9195 9.31808C20.7474 10.3417 19.1577 10.9168 17.5001 10.9168C15.8425 10.9168 14.2528 10.3417 13.0807 9.31808C11.9086 8.29443 11.2502 6.90606 11.2502 5.4584ZM23.7501 9.82512C23.7501 8.667 24.2769 7.5563 25.2145 6.73739C26.1522 5.91847 27.424 5.4584 28.75 5.4584C30.0761 5.4584 31.3479 5.91847 32.2855 6.73739C33.2232 7.5563 33.75 8.667 33.75 9.82512C33.75 10.9833 33.2232 12.0939 32.2855 12.9129C31.3479 13.7318 30.0761 14.1918 28.75 14.1918C27.424 14.1918 26.1522 13.7318 25.2145 12.9129C24.2769 12.0939 23.7501 10.9833 23.7501 9.82512ZM1.25024 9.82512C1.25024 8.667 1.77702 7.5563 2.7147 6.73739C3.65237 5.91847 4.92413 5.4584 6.25021 5.4584C7.57628 5.4584 8.84804 5.91847 9.78571 6.73739C10.7234 7.5563 11.2502 8.667 11.2502 9.82512C11.2502 10.9833 10.7234 12.0939 9.78571 12.9129C8.84804 13.7318 7.57628 14.1918 6.25021 14.1918C4.92413 14.1918 3.65237 13.7318 2.7147 12.9129C1.77702 12.0939 1.25024 10.9833 1.25024 9.82512ZM8.01686 17.6372C9.03344 16.2457 10.4353 15.1005 12.0929 14.3075C13.7504 13.5145 15.6102 13.0992 17.5001 13.1002C19.0831 13.0989 20.6486 13.3896 22.0941 13.9534C23.5395 14.5171 24.8324 15.3411 25.8879 16.3714C26.9435 17.4017 27.738 18.6151 28.2195 19.9321C28.7009 21.2492 28.8584 22.6402 28.6817 24.0141C28.6601 24.1847 28.5927 24.3486 28.485 24.4922C28.3772 24.6359 28.2322 24.7553 28.0617 24.8408C24.8477 26.4515 21.2057 27.2967 17.5001 27.292C13.7945 27.2971 10.1524 26.4518 6.93853 24.8408C6.76802 24.7553 6.623 24.6359 6.51528 24.4922C6.40755 24.3486 6.34014 24.1847 6.31854 24.0141C6.03863 21.7821 6.63764 19.5335 8.01686 17.6386V17.6372Z" fill="#7ABDAE"/>
<path d="M5.97009 16.381C4.32636 18.597 3.56053 21.2227 3.79011 23.8554C2.78929 23.7229 1.80496 23.5085 0.850128 23.215L0.658463 23.1567C0.487456 23.1037 0.337717 23.0086 0.22738 22.8827C0.117044 22.7569 0.0508448 22.6059 0.0368009 22.4479L0.0201344 22.2718C-0.0471901 21.541 0.0547273 20.8059 0.319805 20.1103C0.584883 19.4147 1.00769 18.7729 1.56299 18.2231C2.1183 17.6733 2.79472 17.2269 3.5519 16.9104C4.30908 16.5939 5.1315 16.4139 5.97009 16.381ZM31.2099 23.8554C31.4395 21.2227 30.6736 18.597 29.0299 16.381C29.8685 16.4139 30.6909 16.5939 31.4481 16.9104C32.2053 17.2269 32.8817 17.6733 33.437 18.2231C33.9923 18.7729 34.4151 19.4147 34.6802 20.1103C34.9453 20.8059 35.0472 21.541 34.9799 22.2718L34.9632 22.4479C34.9488 22.6056 34.8825 22.7564 34.7722 22.8819C34.6619 23.0074 34.5123 23.1024 34.3415 23.1553L34.1499 23.2135C33.2049 23.5046 32.2232 23.7215 31.2099 23.8554Z" fill="#7ABDAE"/>
</svg>

