<svg width="17" height="16" viewBox="0 0 17 16" fill="none" xmlns="http://www.w3.org/2000/svg">
<path d="M13.6218 15.9999C12.881 15.9999 11.8403 15.7477 10.2819 14.9284C8.38681 13.9284 6.92101 13.0052 5.03621 11.2362C3.21896 9.52728 2.33463 8.42084 1.09694 6.30153C-0.301288 3.90864 -0.0629357 2.65434 0.203503 2.11827C0.5208 1.47754 0.989154 1.09432 1.59452 0.713963C1.93837 0.501973 2.30224 0.32025 2.68153 0.171099C2.71949 0.155742 2.75478 0.141099 2.78629 0.127884C2.97416 0.0482406 3.25882 -0.0721179 3.61938 0.056455C3.86001 0.141456 4.07483 0.315387 4.4111 0.627891C5.10073 1.2679 6.04313 2.69327 6.39079 3.39328C6.62421 3.86507 6.77869 4.1765 6.77907 4.52579C6.77907 4.93473 6.56045 5.25009 6.29515 5.59045C6.24543 5.65438 6.19609 5.71545 6.14827 5.77474C5.85944 6.13189 5.79605 6.2351 5.8378 6.41939C5.92244 6.78975 6.55362 7.89226 7.59091 8.8662C8.62819 9.84015 9.76606 10.3966 10.1612 10.4759C10.3654 10.5169 10.4773 10.4548 10.869 10.1734C10.9252 10.133 10.9829 10.0912 11.0432 10.0494C11.4478 9.76622 11.7674 9.56586 12.1917 9.56586H12.194C12.5633 9.56586 12.8794 9.71657 13.4032 9.96515C14.0864 10.2894 15.6467 11.1648 16.331 11.8145C16.6639 12.1302 16.8495 12.3316 16.9402 12.5577C17.0768 12.898 16.9481 13.1648 16.8643 13.3434C16.8502 13.373 16.8346 13.4055 16.8183 13.4416C16.6586 13.7979 16.4643 14.1396 16.238 14.4623C15.8346 15.0302 15.4258 15.4699 14.7434 15.7688C14.393 15.9248 14.0094 16.0038 13.6218 15.9999Z" fill="#FEFEFF"/>
</svg>

