<?xml version="1.0" encoding="UTF-8" standalone="no"?>
<svg
   width="24"
   height="30"
   viewBox="0 0 24 30"
   fill="none"
   version="1.1"
   id="svg47"
   sodipodi:docname="microfone.svg"
   inkscape:version="1.1.2 (0a00cf5339, 2022-02-04)"
   xmlns:inkscape="http://www.inkscape.org/namespaces/inkscape"
   xmlns:sodipodi="http://sodipodi.sourceforge.net/DTD/sodipodi-0.dtd"
   xmlns="http://www.w3.org/2000/svg"
   xmlns:svg="http://www.w3.org/2000/svg">
  <sodipodi:namedview
     id="namedview49"
     pagecolor="#ffffff"
     bordercolor="#666666"
     borderopacity="1.0"
     inkscape:pageshadow="2"
     inkscape:pageopacity="0.0"
     inkscape:pagecheckerboard="0"
     showgrid="false"
     showguides="true"
     inkscape:guide-bbox="true"
     inkscape:zoom="1.782881"
     inkscape:cx="93.949063"
     inkscape:cy="1.1217799"
     inkscape:window-width="1360"
     inkscape:window-height="740"
     inkscape:window-x="0"
     inkscape:window-y="0"
     inkscape:window-maximized="1"
     inkscape:current-layer="svg47" />
  <path
     id="microfone"
     d="M 6.9993589,15.207584 V 7.3990529 c 0,-1.5527622 0.54528,-3.042586 1.5162004,-4.1406997 0.9709208,-1.0981135 2.2875297,-1.7150778 3.6605087,-1.7150778 1.372978,0 2.689588,0.6169643 3.660508,1.7150778 0.970919,1.0981137 1.516199,2.5879375 1.516199,4.1406997 v 7.8085311 c 0,1.552763 -0.54528,3.042586 -1.516199,4.1407 -0.97092,1.098114 -2.28753,1.715079 -3.660508,1.715079 -1.372979,0 -2.6895879,-0.616965 -3.6605087,-1.715079 -0.9709204,-1.098114 -1.5162004,-2.587937 -1.5162004,-4.1407 z m 13.8045561,0 c 0,-0.259207 -0.09088,-0.506822 -0.252509,-0.68984 -0.162203,-0.183019 -0.381351,-0.286537 -0.610276,-0.286537 -0.228926,0 -0.448073,0.103517 -0.610277,0.286537 -0.161628,0.183018 -0.252508,0.430633 -0.252508,0.68984 0,2.071178 -0.72704,4.057059 -2.021793,5.52121 -1.294175,1.464152 -3.049655,2.287322 -4.880484,2.287322 -1.83083,0 -3.5863087,-0.82317 -4.8804863,-2.287322 -1.2947525,-1.464151 -2.0217925,-3.450032 -2.0217925,-5.52121 0,-0.259207 -0.09088,-0.506822 -0.2525084,-0.68984 -0.1622036,-0.183019 -0.3813509,-0.286537 -0.6102764,-0.286537 -0.2289256,0 -0.448073,0.103517 -0.6102765,0.286537 -0.1616284,0.183018 -0.2525084,0.430633 -0.2525084,0.68984 0.00288,2.418997 0.7977884,4.750212 2.232312,6.543963 1.4345236,1.793751 3.4056997,2.922506 5.5327515,3.167635 v 2.976334 c 0,0.259209 0.09088,0.50765 0.252508,0.690669 0.162204,0.18302 0.381351,0.285709 0.610277,0.285709 0.228925,0 0.448073,-0.102693 0.610276,-0.285709 0.161629,-0.183019 0.252509,-0.43146 0.252509,-0.690669 v -2.976334 c 2.127052,-0.245129 4.098226,-1.373884 5.53275,-3.167635 1.434523,-1.793751 2.229436,-4.124966 2.232312,-6.543963 z"
     fill="#ffffff"
     style="fill:#ffffff;stroke-width:0.690172" />
  <defs
     id="defs45">
    <filter
       id="filter0_i_0_1"
       x="313.569"
       y="901.79199"
       width="31.6001"
       height="35.514198"
       filterUnits="userSpaceOnUse"
       color-interpolation-filters="sRGB">
      <feFlood
         flood-opacity="0"
         result="BackgroundImageFix"
         id="feFlood11" />
      <feBlend
         mode="normal"
         in="SourceGraphic"
         in2="BackgroundImageFix"
         result="shape"
         id="feBlend13" />
      <feColorMatrix
         in="SourceAlpha"
         type="matrix"
         values="0 0 0 0 0 0 0 0 0 0 0 0 0 0 0 0 0 0 127 0"
         result="hardAlpha"
         id="feColorMatrix15" />
      <feOffset
         dy="4"
         id="feOffset17" />
      <feGaussianBlur
         stdDeviation="2"
         id="feGaussianBlur19" />
      <feComposite
         in2="hardAlpha"
         operator="arithmetic"
         k2="-1"
         k3="1"
         id="feComposite21"
         k1="0"
         k4="0" />
      <feColorMatrix
         type="matrix"
         values="0 0 0 0 0 0 0 0 0 0 0 0 0 0 0 0 0 0 0.25 0"
         id="feColorMatrix23" />
      <feBlend
         mode="normal"
         in2="shape"
         result="effect1_innerShadow_0_1"
         id="feBlend25" />
    </filter>
    <filter
       id="filter1_i_0_1"
       x="365"
       y="903"
       width="35"
       height="35"
       filterUnits="userSpaceOnUse"
       color-interpolation-filters="sRGB">
      <feFlood
         flood-opacity="0"
         result="BackgroundImageFix"
         id="feFlood28" />
      <feBlend
         mode="normal"
         in="SourceGraphic"
         in2="BackgroundImageFix"
         result="shape"
         id="feBlend30" />
      <feColorMatrix
         in="SourceAlpha"
         type="matrix"
         values="0 0 0 0 0 0 0 0 0 0 0 0 0 0 0 0 0 0 127 0"
         result="hardAlpha"
         id="feColorMatrix32" />
      <feOffset
         dy="4"
         id="feOffset34" />
      <feGaussianBlur
         stdDeviation="2"
         id="feGaussianBlur36" />
      <feComposite
         in2="hardAlpha"
         operator="arithmetic"
         k2="-1"
         k3="1"
         id="feComposite38"
         k1="0"
         k4="0" />
      <feColorMatrix
         type="matrix"
         values="0 0 0 0 0 0 0 0 0 0 0 0 0 0 0 0 0 0 0.25 0"
         id="feColorMatrix40" />
      <feBlend
         mode="normal"
         in2="shape"
         result="effect1_innerShadow_0_1"
         id="feBlend42" />
    </filter>
  </defs>
</svg>
