<?xml version="1.0" encoding="UTF-8" standalone="no"?>
<svg
   width="35"
   height="35"
   viewBox="0 0 35 35"
   fill="none"
   version="1.1"
   id="svg83"
   sodipodi:docname="test.svg"
   inkscape:version="1.1.2 (0a00cf5339, 2022-02-04)"
   xmlns:inkscape="http://www.inkscape.org/namespaces/inkscape"
   xmlns:sodipodi="http://sodipodi.sourceforge.net/DTD/sodipodi-0.dtd"
   xmlns="http://www.w3.org/2000/svg"
   xmlns:svg="http://www.w3.org/2000/svg">
  <sodipodi:namedview
     id="namedview85"
     pagecolor="#ffffff"
     bordercolor="#666666"
     borderopacity="1.0"
     inkscape:pageshadow="2"
     inkscape:pageopacity="0.0"
     inkscape:pagecheckerboard="0"
     showgrid="false"
     inkscape:zoom="1.0118483"
     inkscape:cx="194.19906"
     inkscape:cy="26.683841"
     inkscape:window-width="1360"
     inkscape:window-height="740"
     inkscape:window-x="0"
     inkscape:window-y="0"
     inkscape:window-maximized="1"
     inkscape:current-layer="svg83" />
  <g
     clip-path="url(#clip8_0_1)"
     id="g16"
     transform="translate(-167.23933,-734.32717)">
    <path
       d="m 174.395,762.605 c -1.433,-1.384 -2.575,-3.039 -3.362,-4.869 -0.786,-1.83 -1.199,-3.798 -1.217,-5.79 -0.017,-1.992 0.362,-3.967 1.117,-5.81 0.754,-1.844 1.868,-3.519 3.276,-4.927 1.408,-1.408 3.083,-2.522 4.927,-3.276 1.843,-0.755 3.818,-1.134 5.81,-1.117 1.992,0.018 3.96,0.431 5.79,1.217 1.83,0.787 3.485,1.929 4.869,3.362 2.732,2.829 4.244,6.618 4.21,10.551 -0.034,3.933 -1.612,7.695 -4.393,10.476 -2.781,2.781 -6.543,4.359 -10.476,4.393 -3.933,0.034 -7.722,-1.478 -10.551,-4.21 z m 19.095,-2.115 c 2.252,-2.252 3.517,-5.306 3.517,-8.49 0,-3.184 -1.265,-6.238 -3.517,-8.49 -2.252,-2.252 -5.306,-3.517 -8.49,-3.517 -3.184,0 -6.238,1.265 -8.49,3.517 -2.252,2.252 -3.517,5.306 -3.517,8.49 0,3.184 1.265,6.238 3.517,8.49 2.252,2.252 5.306,3.517 8.49,3.517 3.184,0 6.238,-1.265 8.49,-3.517 z M 180.5,746 h 3 v 12 h -3 z m 6,0 h 3 v 12 h -3 z"
       fill="#000000"
       id="path14" />
  </g>
  <defs
     id="defs81">
    <filter
       id="filter0_i_0_1"
       x="258"
       y="744"
       width="26"
       height="30"
       filterUnits="userSpaceOnUse"
       color-interpolation-filters="sRGB">
      <feFlood
         flood-opacity="0"
         result="BackgroundImageFix"
         id="feFlood20" />
      <feBlend
         mode="normal"
         in="SourceGraphic"
         in2="BackgroundImageFix"
         result="shape"
         id="feBlend22" />
      <feColorMatrix
         in="SourceAlpha"
         type="matrix"
         values="0 0 0 0 0 0 0 0 0 0 0 0 0 0 0 0 0 0 127 0"
         result="hardAlpha"
         id="feColorMatrix24" />
      <feOffset
         dy="4"
         id="feOffset26" />
      <feGaussianBlur
         stdDeviation="2"
         id="feGaussianBlur28" />
      <feComposite
         in2="hardAlpha"
         operator="arithmetic"
         k2="-1"
         k3="1"
         id="feComposite30"
         k1="0"
         k4="0" />
      <feColorMatrix
         type="matrix"
         values="0 0 0 0 0 0 0 0 0 0 0 0 0 0 0 0 0 0 0.25 0"
         id="feColorMatrix32" />
      <feBlend
         mode="normal"
         in2="shape"
         result="effect1_innerShadow_0_1"
         id="feBlend34" />
    </filter>
    <filter
       id="filter1_i_0_1"
       x="300"
       y="745"
       width="29.1672"
       height="29.5751"
       filterUnits="userSpaceOnUse"
       color-interpolation-filters="sRGB">
      <feFlood
         flood-opacity="0"
         result="BackgroundImageFix"
         id="feFlood37" />
      <feBlend
         mode="normal"
         in="SourceGraphic"
         in2="BackgroundImageFix"
         result="shape"
         id="feBlend39" />
      <feColorMatrix
         in="SourceAlpha"
         type="matrix"
         values="0 0 0 0 0 0 0 0 0 0 0 0 0 0 0 0 0 0 127 0"
         result="hardAlpha"
         id="feColorMatrix41" />
      <feOffset
         dy="4"
         id="feOffset43" />
      <feGaussianBlur
         stdDeviation="2"
         id="feGaussianBlur45" />
      <feComposite
         in2="hardAlpha"
         operator="arithmetic"
         k2="-1"
         k3="1"
         id="feComposite47"
         k1="0"
         k4="0" />
      <feColorMatrix
         type="matrix"
         values="0 0 0 0 0 0 0 0 0 0 0 0 0 0 0 0 0 0 0.25 0"
         id="feColorMatrix49" />
      <feBlend
         mode="normal"
         in2="shape"
         result="effect1_innerShadow_0_1"
         id="feBlend51" />
    </filter>
    <clipPath
       id="clip0_0_1">
      <rect
         width="20.3333"
         height="30"
         fill="#ffffff"
         transform="translate(121.667,698)"
         id="rect54"
         x="0"
         y="0" />
    </clipPath>
    <clipPath
       id="clip1_0_1">
      <rect
         width="20.3333"
         height="30"
         fill="#ffffff"
         transform="translate(101.333,698)"
         id="rect57"
         x="0"
         y="0" />
    </clipPath>
    <clipPath
       id="clip2_0_1">
      <rect
         width="20.3333"
         height="30"
         fill="#ffffff"
         transform="translate(81,698)"
         id="rect60"
         x="0"
         y="0" />
    </clipPath>
    <clipPath
       id="clip3_0_1">
      <rect
         width="30"
         height="30"
         fill="#ffffff"
         transform="translate(200,698)"
         id="rect63"
         x="0"
         y="0" />
    </clipPath>
    <clipPath
       id="clip4_0_1">
      <rect
         width="30"
         height="30"
         fill="#ffffff"
         transform="translate(140,698)"
         id="rect66"
         x="0"
         y="0" />
    </clipPath>
    <clipPath
       id="clip5_0_1">
      <rect
         width="30"
         height="30"
         fill="#ffffff"
         transform="translate(289,698)"
         id="rect69"
         x="0"
         y="0" />
    </clipPath>
    <clipPath
       id="clip6_0_1">
      <rect
         width="30"
         height="30"
         fill="#ffffff"
         transform="translate(229,698)"
         id="rect72"
         x="0"
         y="0" />
    </clipPath>
    <clipPath
       id="clip7_0_1">
      <rect
         width="30"
         height="30"
         fill="#ffffff"
         transform="translate(337,694)"
         id="rect75"
         x="0"
         y="0" />
    </clipPath>
    <clipPath
       id="clip8_0_1">
      <rect
         width="30"
         height="30"
         fill="#ffffff"
         transform="translate(170,737)"
         id="rect78"
         x="0"
         y="0" />
    </clipPath>
  </defs>
</svg>
