<svg width="29" height="33" viewBox="0 0 29 33" fill="none" xmlns="http://www.w3.org/2000/svg">
<path d="M28.6837 25.9567C28.6152 25.4717 28.3499 25.0571 27.9526 24.8108L22.0753 20.8412L22.0269 20.8102C21.7805 20.6688 21.5083 20.5963 21.2327 20.5987C20.7403 20.5987 20.2701 20.8125 19.9437 21.1876L18.209 23.1771C18.1348 23.258 17.8929 23.375 17.8195 23.3792C17.7994 23.3773 15.8011 23.2124 12.1221 18.9946C8.44976 14.7857 8.29396 12.4879 8.29273 12.4879C8.29478 12.3704 8.39564 12.094 8.46739 12.0085L9.94667 10.3132C10.4678 9.71443 10.624 8.72179 10.3148 7.95287L7.04797 0.90616C6.81058 0.34592 6.34933 0 5.83765 0C5.47562 0 5.1263 0.17202 4.85324 0.48457L0.820889 5.09668C0.434259 5.53754 0.101338 6.30834 0.0287682 6.92874C-0.00649176 7.22531 -0.721942 14.3045 7.74456 24.0114C14.9323 32.25 20.537 32.8901 22.0847 32.8901C22.2732 32.8929 22.4616 32.8818 22.6489 32.8568C23.1884 32.774 23.86 32.3933 24.2442 31.952L28.2733 27.3338C28.6021 26.955 28.7521 26.4544 28.6837 25.9567Z" fill="black"/>
</svg>

