<svg width="29" height="30" viewBox="0 0 29 30" fill="none" xmlns="http://www.w3.org/2000/svg">
<path d="M2.41667 30C2.41667 30 0 30 0 27.5C0 25 2.41667 17.5 14.5 17.5C26.5833 17.5 29 25 29 27.5C29 30 26.5833 30 26.5833 30H2.41667ZM14.5 15C16.4228 15 18.2669 14.2098 19.6265 12.8033C20.9862 11.3968 21.75 9.48912 21.75 7.5C21.75 5.51088 20.9862 3.60322 19.6265 2.1967C18.2669 0.790177 16.4228 0 14.5 0C12.5772 0 10.7331 0.790177 9.37348 2.1967C8.01384 3.60322 7.25 5.51088 7.25 7.5C7.25 9.48912 8.01384 11.3968 9.37348 12.8033C10.7331 14.2098 12.5772 15 14.5 15Z" fill="black"/>
</svg>

