<svg width="40" height="36" viewBox="0 0 40 36" fill="none" xmlns="http://www.w3.org/2000/svg">
<path d="M20.0001 13.92C18.4601 13.92 17.1413 13.7319 16.0437 13.3555C14.9462 12.9792 14.3983 12.5274 14.4002 12C14.4002 11.472 14.949 11.0199 16.0466 10.6435C17.1441 10.2672 18.462 10.0794 20.0001 10.08C21.5401 10.08 22.8589 10.2682 23.9565 10.6445C25.0541 11.0208 25.602 11.4727 25.6001 12C25.6001 12.528 25.0513 12.9802 23.9537 13.3565C22.8561 13.7328 21.5383 13.9207 20.0001 13.92ZM20.0001 27.36C18.8335 27.36 17.8413 27.2199 17.0237 26.9395C16.2062 26.6592 15.7983 26.3194 15.8002 25.92V17.28C15.8002 16.88 16.2089 16.5399 17.0265 16.2595C17.8441 15.9792 18.8353 15.8394 20.0001 15.84C21.1668 15.84 22.1589 15.9802 22.9765 16.2605C23.7941 16.5408 24.202 16.8807 24.2001 17.28V25.92C24.2001 26.32 23.7913 26.6602 22.9737 26.9405C22.1561 27.2208 21.1649 27.3607 20.0001 27.36Z" fill="black"/>
<path d="M20 32.4C15.7565 32.4 11.6869 30.8829 8.68629 28.1823C5.68571 25.4818 4 21.8191 4 18C4 14.1809 5.68571 10.5182 8.68629 7.81766C11.6869 5.11714 15.7565 3.6 20 3.6C24.2435 3.6 28.3131 5.11714 31.3137 7.81766C34.3143 10.5182 36 14.1809 36 18C36 21.8191 34.3143 25.4818 31.3137 28.1823C28.3131 30.8829 24.2435 32.4 20 32.4ZM20 0C17.3736 0 14.7728 0.465584 12.3463 1.37017C9.91982 2.27475 7.71504 3.60062 5.85786 5.27208C2.10714 8.64773 0 13.2261 0 18C0 22.7739 2.10714 27.3523 5.85786 30.7279C7.71504 32.3994 9.91982 33.7252 12.3463 34.6298C14.7728 35.5344 17.3736 36 20 36C25.3043 36 30.3914 34.1036 34.1421 30.7279C37.8929 27.3523 40 22.7739 40 18C40 15.6362 39.4827 13.2956 38.4776 11.1117C37.4725 8.92784 35.9993 6.94353 34.1421 5.27208C32.285 3.60062 30.0802 2.27475 27.6537 1.37017C25.2272 0.465584 22.6264 0 20 0Z" fill="black"/>
</svg>

