<svg width="30" height="30" viewBox="0 0 30 30" fill="none" xmlns="http://www.w3.org/2000/svg">
<g clip-path="url(#clip0_145_206)">
<path d="M0 0V13.6328H13.6328V0H0ZM16.3672 0V13.6328H30V0H16.3672ZM2.71485 2.71485H10.918V10.918H2.71485V2.71485ZM19.082 2.71485H27.2852V10.918H19.082V2.71485ZM5.44922 5.48828V8.20312H8.20312V5.48828H5.44922ZM21.7969 5.48828V8.20312H24.5117V5.48828H21.7969ZM0 16.3672V30H13.6328V16.3672H0ZM16.3672 16.3672V30H19.0821V21.836H21.7969V24.5508H30V16.3672H27.2852V19.0821H24.5117V16.3672H16.3672ZM2.71485 19.082H10.918V27.2852H2.71485V19.082ZM5.44922 21.7969V24.5508H8.20312V21.7969H5.44922ZM21.7969 27.2852V30H24.5117V27.2852H21.7969ZM27.2852 27.2852V30H30V27.2852H27.2852Z" fill="black"/>
</g>
<defs>
<clipPath id="clip0_145_206">
<rect width="30" height="30" fill="white"/>
</clipPath>
</defs>
</svg>

