<svg width="26" height="26" viewBox="0 0 26 26" fill="none" xmlns="http://www.w3.org/2000/svg">
<g filter="url(#filter0_i_0_1)">
<circle cx="13" cy="13" r="13" fill="#9A9999"/>
</g>
<path d="M18.0652 4C18.6876 4 19.1905 4.4748 19.1905 5.0625V5.6668C19.63 5.74316 20.059 5.8793 20.4634 6.06855L20.8185 6.23789C21.3741 6.5002 21.5991 7.1377 21.3214 7.6623C21.0436 8.18691 20.3684 8.39941 19.8129 8.13711L19.4542 7.96777C19.1061 7.80176 18.7193 7.71875 18.329 7.71875H18.2692C17.2213 7.71875 16.3739 8.51895 16.3739 9.5084C16.3739 10.2389 16.8451 10.8963 17.5659 11.1686L19.3944 11.8592C20.9662 12.4535 22 13.8912 22 15.4916V15.6045C22 17.3045 20.8185 18.7455 19.187 19.2303V19.9375C19.187 20.5252 18.6841 21 18.0617 21C17.4393 21 16.9365 20.5252 16.9365 19.9375V19.2934C16.4091 19.1771 15.9027 18.9713 15.4491 18.6857L14.6263 18.1678C14.1094 17.8424 13.9687 17.1816 14.3133 16.6936C14.6579 16.2055 15.3577 16.0727 15.8746 16.398L16.7009 16.916C17.0807 17.1551 17.5237 17.2812 17.9773 17.2812C18.9584 17.2812 19.7531 16.5309 19.7531 15.6045V15.4916C19.7531 14.7611 19.2819 14.1037 18.561 13.8314L16.7326 13.1408C15.1573 12.5465 14.127 11.1088 14.127 9.5084C14.127 7.78516 15.3049 6.32422 16.94 5.79961V5.0625C16.94 4.4748 17.4429 4 18.0652 4ZM4 6.125C4 5.5373 4.50283 5.0625 5.12522 5.0625H7.93827C10.7337 5.0625 13.0018 7.2041 13.0018 9.84375C13.0018 11.7961 11.764 13.4729 9.98828 14.2166L11.7957 18.4799C12.0277 19.0244 11.7464 19.642 11.1698 19.8611C10.5931 20.0803 9.93905 19.8146 9.70697 19.2701L7.73784 14.625H6.25044V18.875C6.25044 19.4627 5.74761 19.9375 5.12522 19.9375C4.50283 19.9375 4 19.4627 4 18.875V6.125ZM6.25044 12.5H7.93827C9.49248 12.5 10.7513 11.3113 10.7513 9.84375C10.7513 8.37617 9.49248 7.1875 7.93827 7.1875H6.25044V12.5Z" fill="white"/>
<defs>
<filter id="filter0_i_0_1" x="0" y="0" width="26" height="30" filterUnits="userSpaceOnUse" color-interpolation-filters="sRGB">
<feFlood flood-opacity="0" result="BackgroundImageFix"/>
<feBlend mode="normal" in="SourceGraphic" in2="BackgroundImageFix" result="shape"/>
<feColorMatrix in="SourceAlpha" type="matrix" values="0 0 0 0 0 0 0 0 0 0 0 0 0 0 0 0 0 0 127 0" result="hardAlpha"/>
<feOffset dy="4"/>
<feGaussianBlur stdDeviation="2"/>
<feComposite in2="hardAlpha" operator="arithmetic" k2="-1" k3="1"/>
<feColorMatrix type="matrix" values="0 0 0 0 0 0 0 0 0 0 0 0 0 0 0 0 0 0 0.25 0"/>
<feBlend mode="normal" in2="shape" result="effect1_innerShadow_0_1"/>
</filter>
</defs>
</svg>

