<svg width="31" height="29" viewBox="0 0 31 29" fill="none" xmlns="http://www.w3.org/2000/svg">
<path d="M20.9251 13.275C22.2092 13.275 23.2501 12.2844 23.2501 11.0625C23.2501 9.84057 22.2092 8.85 20.9251 8.85C19.641 8.85 18.6001 9.84057 18.6001 11.0625C18.6001 12.2844 19.641 13.275 20.9251 13.275Z" fill="#9A9999"/>
<path d="M10.075 13.275C11.3591 13.275 12.4 12.2844 12.4 11.0625C12.4 9.84057 11.3591 8.85 10.075 8.85C8.79094 8.85 7.75 9.84057 7.75 11.0625C7.75 12.2844 8.79094 13.275 10.075 13.275Z" fill="#9A9999"/>
<path d="M15.5 23.6C19.034 23.6 22.041 21.1515 23.25 17.7H7.75C8.959 21.1515 11.966 23.6 15.5 23.6Z" fill="#9A9999"/>
<path d="M15.4845 0C6.9285 0 0 6.608 0 14.75C0 22.892 6.9285 29.5 15.4845 29.5C24.056 29.5 31 22.892 31 14.75C31 6.608 24.056 0 15.4845 0ZM15.5 26.55C8.649 26.55 3.1 21.2695 3.1 14.75C3.1 8.2305 8.649 2.95 15.5 2.95C22.351 2.95 27.9 8.2305 27.9 14.75C27.9 21.2695 22.351 26.55 15.5 26.55Z" fill="#9A9999"/>
</svg>

