<svg width="28" height="18" viewBox="0 0 28 18" fill="none" xmlns="http://www.w3.org/2000/svg">
<path d="M0.81665 8.93333C0.81665 9.55 1.01665 10.0667 1.43332 10.4667L7.83332 16.7167C8.19998 17.1333 8.68332 17.35 9.24998 17.35C9.83332 17.35 10.3333 17.15 10.7333 16.7667C11.1333 16.3833 11.35 15.8833 11.35 15.3C11.35 14.7167 11.15 14.2167 10.7333 13.8167L7.99998 11.0833H25.1667C25.75 11.0833 26.2333 10.8833 26.6167 10.4667C27 10.05 27.1833 9.55 27.1833 8.96667C27.1833 8.38333 27 7.88333 26.6167 7.46667C26.2333 7.05 25.75 6.83333 25.1667 6.81667H7.99998L10.7333 4.05C11.1333 3.65 11.35 3.16667 11.35 2.61667C11.35 2.03333 11.15 1.53333 10.7333 1.13333C10.3167 0.733334 9.83332 0.5 9.23332 0.5C8.69998 0.5 8.21665 0.733335 7.81665 1.18333L1.41665 7.43333C1.01665 7.85 0.81665 8.33333 0.81665 8.93333Z" fill="#FFFBFF"/>
</svg>

