<svg width="420" height="844" viewBox="0 0 420 844" fill="none" xmlns="http://www.w3.org/2000/svg" xmlns:xlink="http://www.w3.org/1999/xlink">
<g clip-path="url(#clip0_0_1)">
<rect width="390" height="844" fill="white"/>
<rect width="390" height="147" fill="#008069"/>
<path d="M17.8167 72.9333C17.8167 73.55 18.0167 74.0667 18.4333 74.4667L24.8333 80.7167C25.2 81.1333 25.6833 81.35 26.25 81.35C26.8333 81.35 27.3333 81.15 27.7333 80.7667C28.1333 80.3833 28.35 79.8833 28.35 79.3C28.35 78.7167 28.15 78.2167 27.7333 77.8167L25 75.0833H42.1667C42.75 75.0833 43.2333 74.8833 43.6167 74.4667C44 74.05 44.1833 73.55 44.1833 72.9667C44.1833 72.3833 44 71.8833 43.6167 71.4667C43.2333 71.05 42.75 70.8333 42.1667 70.8167H25L27.7333 68.05C28.1333 67.65 28.35 67.1667 28.35 66.6167C28.35 66.0333 28.15 65.5333 27.7333 65.1333C27.3167 64.7333 26.8333 64.5 26.2333 64.5C25.7 64.5 25.2167 64.7333 24.8167 65.1833L18.4166 71.4333C18.0166 71.85 17.8167 72.3333 17.8167 72.9333Z" fill="#FFFBFF"/>
<path d="M105.912 99V90.768H111.984V92.232H107.7V94.272H111.528V95.724H107.7V99H105.912ZM113.377 99V90.768H115.165V99H113.377ZM116.182 99L119.146 94.668L116.47 90.768H118.654L120.358 93.372H120.418L122.11 90.768H124.162L121.474 94.668L124.438 99H122.254L120.274 95.952H120.214L118.246 99H116.182ZM124.302 99L127.47 90.768H129.678L132.846 99H130.914L130.326 97.38H126.738L126.15 99H124.302ZM127.254 95.94H129.81L129.078 93.912C129.046 93.824 129.006 93.72 128.958 93.6C128.918 93.472 128.874 93.332 128.826 93.18C128.778 93.028 128.73 92.88 128.682 92.736C128.642 92.584 128.602 92.448 128.562 92.328H128.49C128.45 92.48 128.398 92.66 128.334 92.868C128.27 93.068 128.206 93.264 128.142 93.456C128.078 93.64 128.026 93.792 127.986 93.912L127.254 95.94ZM133.826 99V90.768H138.338C138.946 90.768 139.45 90.876 139.85 91.092C140.258 91.308 140.562 91.612 140.762 92.004C140.962 92.388 141.062 92.832 141.062 93.336C141.062 93.872 140.942 94.348 140.702 94.764C140.462 95.172 140.114 95.484 139.658 95.7L141.338 99H139.358L137.906 96H135.614V99H133.826ZM135.614 94.584H138.098C138.458 94.584 138.738 94.476 138.938 94.26C139.138 94.036 139.238 93.736 139.238 93.36C139.238 93.12 139.194 92.916 139.106 92.748C139.018 92.572 138.89 92.44 138.722 92.352C138.554 92.264 138.346 92.22 138.098 92.22H135.614V94.584Z" fill="#FBF3F3"/>
<path d="M224.116 99.144C223.636 99.144 223.18 99.096 222.748 99C222.316 98.904 221.932 98.752 221.596 98.544C221.268 98.328 221.008 98.06 220.816 97.74C220.632 97.412 220.54 97.016 220.54 96.552C220.54 96.512 220.54 96.472 220.54 96.432C220.54 96.384 220.544 96.348 220.552 96.324H222.328C222.32 96.348 222.316 96.38 222.316 96.42C222.316 96.46 222.316 96.496 222.316 96.528C222.316 96.784 222.384 97 222.52 97.176C222.664 97.352 222.872 97.484 223.144 97.572C223.416 97.66 223.732 97.704 224.092 97.704C224.324 97.704 224.528 97.692 224.704 97.668C224.888 97.636 225.048 97.596 225.184 97.548C225.328 97.492 225.444 97.428 225.532 97.356C225.628 97.284 225.696 97.2 225.736 97.104C225.784 97.008 225.808 96.9 225.808 96.78C225.808 96.564 225.736 96.388 225.592 96.252C225.456 96.116 225.264 96 225.016 95.904C224.776 95.808 224.504 95.72 224.2 95.64C223.896 95.56 223.584 95.48 223.264 95.4C222.944 95.312 222.632 95.208 222.328 95.088C222.024 94.96 221.752 94.808 221.512 94.632C221.272 94.456 221.08 94.232 220.936 93.96C220.792 93.688 220.72 93.36 220.72 92.976C220.72 92.568 220.804 92.216 220.972 91.92C221.148 91.624 221.392 91.38 221.704 91.188C222.016 90.996 222.376 90.856 222.784 90.768C223.192 90.672 223.636 90.624 224.116 90.624C224.564 90.624 224.988 90.672 225.388 90.768C225.788 90.856 226.14 91 226.444 91.2C226.748 91.4 226.984 91.652 227.152 91.956C227.328 92.26 227.416 92.62 227.416 93.036V93.18H225.676V93.084C225.676 92.868 225.612 92.684 225.484 92.532C225.356 92.38 225.176 92.26 224.944 92.172C224.712 92.084 224.44 92.04 224.128 92.04C223.792 92.04 223.504 92.072 223.264 92.136C223.032 92.2 222.852 92.296 222.724 92.424C222.604 92.544 222.544 92.688 222.544 92.856C222.544 93.048 222.612 93.208 222.748 93.336C222.892 93.456 223.084 93.564 223.324 93.66C223.572 93.748 223.848 93.828 224.152 93.9C224.456 93.972 224.768 94.052 225.088 94.14C225.408 94.228 225.72 94.332 226.024 94.452C226.328 94.572 226.6 94.724 226.84 94.908C227.08 95.084 227.272 95.304 227.416 95.568C227.56 95.832 227.632 96.148 227.632 96.516C227.632 97.148 227.48 97.656 227.176 98.04C226.872 98.424 226.456 98.704 225.928 98.88C225.4 99.056 224.796 99.144 224.116 99.144ZM229.057 99V90.768H230.845V99H229.057ZM232.666 99V90.768H234.454V97.476H238.606V99H232.666ZM239.756 99V90.768H246.332V92.232H241.556V94.068H245.78V95.52H241.556V97.524H246.404V99H239.756ZM247.947 99V90.768H249.591L252.903 95.208C252.951 95.264 253.011 95.344 253.083 95.448C253.155 95.544 253.223 95.64 253.287 95.736C253.351 95.832 253.395 95.908 253.419 95.964H253.479C253.479 95.828 253.479 95.696 253.479 95.568C253.479 95.432 253.479 95.312 253.479 95.208V90.768H255.171V99H253.527L250.143 94.452C250.063 94.34 249.979 94.216 249.891 94.08C249.803 93.944 249.739 93.84 249.699 93.768H249.639C249.639 93.888 249.639 94.008 249.639 94.128C249.639 94.24 249.639 94.348 249.639 94.452V99H247.947ZM260.678 99.144C259.822 99.144 259.09 98.996 258.482 98.7C257.874 98.396 257.41 97.928 257.09 97.296C256.778 96.664 256.622 95.86 256.622 94.884C256.622 93.444 256.974 92.376 257.678 91.68C258.39 90.976 259.39 90.624 260.678 90.624C261.382 90.624 262.014 90.744 262.574 90.984C263.134 91.224 263.574 91.584 263.894 92.064C264.222 92.544 264.386 93.148 264.386 93.876H262.586C262.586 93.492 262.506 93.168 262.346 92.904C262.194 92.64 261.974 92.44 261.686 92.304C261.406 92.16 261.078 92.088 260.702 92.088C260.19 92.088 259.766 92.188 259.43 92.388C259.102 92.588 258.858 92.884 258.698 93.276C258.546 93.66 258.47 94.132 258.47 94.692V95.064C258.47 95.64 258.55 96.124 258.71 96.516C258.87 96.9 259.11 97.192 259.43 97.392C259.758 97.584 260.178 97.68 260.69 97.68C261.09 97.68 261.438 97.612 261.734 97.476C262.03 97.34 262.258 97.14 262.418 96.876C262.578 96.612 262.658 96.288 262.658 95.904H264.386C264.386 96.632 264.226 97.236 263.906 97.716C263.594 98.196 263.158 98.556 262.598 98.796C262.038 99.028 261.398 99.144 260.678 99.144ZM265.795 99V90.768H267.583V99H265.795ZM268.564 99L271.732 90.768H273.94L277.108 99H275.176L274.588 97.38H271L270.412 99H268.564ZM271.516 95.94H274.072L273.34 93.912C273.308 93.824 273.268 93.72 273.22 93.6C273.18 93.472 273.136 93.332 273.088 93.18C273.04 93.028 272.992 92.88 272.944 92.736C272.904 92.584 272.864 92.448 272.824 92.328H272.752C272.712 92.48 272.66 92.66 272.596 92.868C272.532 93.068 272.468 93.264 272.404 93.456C272.34 93.64 272.288 93.792 272.248 93.912L271.516 95.94ZM278.088 99V90.768H282.6C283.208 90.768 283.712 90.876 284.112 91.092C284.52 91.308 284.824 91.612 285.024 92.004C285.224 92.388 285.324 92.832 285.324 93.336C285.324 93.872 285.204 94.348 284.964 94.764C284.724 95.172 284.376 95.484 283.92 95.7L285.6 99H283.62L282.168 96H279.876V99H278.088ZM279.876 94.584H282.36C282.72 94.584 283 94.476 283.2 94.26C283.4 94.036 283.5 93.736 283.5 93.36C283.5 93.12 283.456 92.916 283.368 92.748C283.28 92.572 283.152 92.44 282.984 92.352C282.816 92.264 282.608 92.22 282.36 92.22H279.876V94.584Z" fill="#FBF3F3"/>
<path d="M294.072 99L297.24 90.768H299.448L302.616 99H300.684L300.096 97.38H296.508L295.92 99H294.072ZM297.024 95.94H299.58L298.848 93.912C298.816 93.824 298.776 93.72 298.728 93.6C298.688 93.472 298.644 93.332 298.596 93.18C298.548 93.028 298.5 92.88 298.452 92.736C298.412 92.584 298.372 92.448 298.332 92.328H298.26C298.22 92.48 298.168 92.66 298.104 92.868C298.04 93.068 297.976 93.264 297.912 93.456C297.848 93.64 297.796 93.792 297.756 93.912L297.024 95.94ZM303.596 99V90.768H308.108C308.716 90.768 309.22 90.876 309.62 91.092C310.028 91.308 310.332 91.612 310.532 92.004C310.732 92.388 310.832 92.832 310.832 93.336C310.832 93.872 310.712 94.348 310.472 94.764C310.232 95.172 309.884 95.484 309.428 95.7L311.108 99H309.128L307.676 96H305.384V99H303.596ZM305.384 94.584H307.868C308.228 94.584 308.508 94.476 308.708 94.26C308.908 94.036 309.008 93.736 309.008 93.36C309.008 93.12 308.964 92.916 308.876 92.748C308.788 92.572 308.66 92.44 308.492 92.352C308.324 92.264 308.116 92.22 307.868 92.22H305.384V94.584ZM317.786 100.56L316.442 99.12C316.386 99.128 316.326 99.132 316.262 99.132C316.198 99.14 316.138 99.144 316.082 99.144C315.226 99.144 314.486 98.988 313.862 98.676C313.246 98.356 312.77 97.88 312.434 97.248C312.106 96.616 311.942 95.828 311.942 94.884C311.942 93.916 312.11 93.12 312.446 92.496C312.782 91.864 313.266 91.396 313.898 91.092C314.53 90.78 315.282 90.624 316.154 90.624C317.042 90.624 317.798 90.78 318.422 91.092C319.054 91.396 319.538 91.864 319.874 92.496C320.21 93.12 320.378 93.916 320.378 94.884C320.378 95.884 320.194 96.704 319.826 97.344C319.458 97.984 318.938 98.456 318.266 98.76L320.114 100.56H317.786ZM316.154 97.68C316.546 97.68 316.89 97.624 317.186 97.512C317.482 97.4 317.73 97.232 317.93 97.008C318.13 96.784 318.282 96.512 318.386 96.192C318.49 95.864 318.542 95.492 318.542 95.076V94.704C318.542 94.28 318.49 93.904 318.386 93.576C318.282 93.248 318.13 92.976 317.93 92.76C317.73 92.536 317.482 92.368 317.186 92.256C316.89 92.144 316.546 92.088 316.154 92.088C315.77 92.088 315.43 92.144 315.134 92.256C314.838 92.368 314.59 92.536 314.39 92.76C314.19 92.976 314.038 93.248 313.934 93.576C313.838 93.904 313.79 94.28 313.79 94.704V95.076C313.79 95.492 313.838 95.864 313.934 96.192C314.038 96.512 314.19 96.784 314.39 97.008C314.59 97.232 314.838 97.4 315.134 97.512C315.43 97.624 315.77 97.68 316.154 97.68ZM325.394 99.144C324.642 99.144 323.994 99.024 323.45 98.784C322.914 98.544 322.502 98.184 322.214 97.704C321.926 97.216 321.782 96.612 321.782 95.892V90.768H323.582V95.844C323.582 96.436 323.738 96.892 324.05 97.212C324.362 97.524 324.81 97.68 325.394 97.68C325.978 97.68 326.426 97.524 326.738 97.212C327.058 96.892 327.218 96.436 327.218 95.844V90.768H329.018V95.892C329.018 96.612 328.874 97.216 328.586 97.704C328.298 98.184 327.882 98.544 327.338 98.784C326.802 99.024 326.154 99.144 325.394 99.144ZM330.807 99V90.768H332.595V99H330.807ZM336.624 99L333.648 90.768H335.58L337.356 96.024C337.388 96.112 337.424 96.22 337.464 96.348C337.504 96.468 337.544 96.588 337.584 96.708C337.624 96.828 337.656 96.936 337.68 97.032H337.752C337.784 96.944 337.816 96.844 337.848 96.732C337.888 96.612 337.924 96.492 337.956 96.372C337.996 96.252 338.032 96.14 338.064 96.036L339.84 90.768H341.7L338.712 99H336.624ZM341.451 99L344.619 90.768H346.827L349.995 99H348.063L347.475 97.38H343.887L343.299 99H341.451ZM344.403 95.94H346.959L346.227 93.912C346.195 93.824 346.155 93.72 346.107 93.6C346.067 93.472 346.023 93.332 345.975 93.18C345.927 93.028 345.879 92.88 345.831 92.736C345.791 92.584 345.751 92.448 345.711 92.328H345.639C345.599 92.48 345.547 92.66 345.483 92.868C345.419 93.068 345.355 93.264 345.291 93.456C345.227 93.64 345.175 93.792 345.135 93.912L344.403 95.94ZM350.975 99V90.768H355.487C356.095 90.768 356.599 90.876 356.999 91.092C357.407 91.308 357.711 91.612 357.911 92.004C358.111 92.388 358.211 92.832 358.211 93.336C358.211 93.872 358.091 94.348 357.851 94.764C357.611 95.172 357.263 95.484 356.807 95.7L358.487 99H356.507L355.055 96H352.763V99H350.975ZM352.763 94.584H355.247C355.607 94.584 355.887 94.476 356.087 94.26C356.287 94.036 356.387 93.736 356.387 93.36C356.387 93.12 356.343 92.916 356.255 92.748C356.167 92.572 356.039 92.44 355.871 92.352C355.703 92.264 355.495 92.22 355.247 92.22H352.763V94.584Z" fill="#FBF3F3"/>
<path d="M54.352 80V77.6H58.312V67.232H54.328V65.432C54.808 65.384 55.368 65.272 56.008 65.096C56.664 64.904 57.328 64.672 58 64.4C58.672 64.128 59.28 63.84 59.824 63.536H61.264V77.6H64.912V80H54.352Z" fill="white"/>
<path d="M365 27.4375C362.404 27.4375 359.867 26.796 357.708 25.5942C355.55 24.3924 353.867 22.6842 352.874 20.6856C351.881 18.687 351.621 16.4879 352.127 14.3662C352.634 12.2445 353.884 10.2957 355.719 8.76602C357.555 7.23639 359.893 6.19469 362.439 5.77267C364.985 5.35064 367.624 5.56724 370.023 6.39507C372.421 7.22291 374.471 8.62479 375.913 10.4235C377.355 12.2221 378.125 14.3368 378.125 16.5C378.125 19.4008 376.742 22.1828 374.281 24.234C371.819 26.2852 368.481 27.4375 365 27.4375ZM365 7.12501C362.775 7.12501 360.6 7.67484 358.75 8.70498C356.9 9.73512 355.458 11.1993 354.606 12.9123C353.755 14.6254 353.532 16.5104 353.966 18.329C354.4 20.1475 355.472 21.818 357.045 23.1291C358.618 24.4402 360.623 25.3331 362.805 25.6949C364.988 26.0566 367.25 25.8709 369.305 25.1614C371.361 24.4518 373.118 23.2502 374.354 21.7085C375.59 20.1668 376.25 18.3542 376.25 16.5C376.25 14.0136 375.065 11.629 372.955 9.87088C370.845 8.11273 367.984 7.12501 365 7.12501Z" fill="#FFFCFC"/>
<path d="M369.303 21.1875L364.062 16.8203V9.46875H365.938V16.1719L370.625 20.0859L369.303 21.1875Z" fill="#FFFCFC"/>
<path d="M312.896 7.61999V7.61799L312.894 7.61599L312.892 7.61199L312.886 7.60199C312.869 7.57411 312.85 7.54708 312.83 7.52099C312.789 7.46466 312.744 7.41089 312.696 7.35999C312.546 7.2022 312.373 7.06832 312.182 6.96299C311.706 6.69699 311.027 6.53799 310.114 6.70499C309.023 6.90499 308.484 7.67499 308.239 8.30199C308.096 8.67186 308.015 9.06279 308 9.45899V10.75C308 11.413 308.263 12.0489 308.732 12.5178C309.201 12.9866 309.837 13.25 310.5 13.25H310.75C311.078 13.25 311.403 13.1853 311.707 13.0597C312.01 12.934 312.286 12.7499 312.518 12.5178C312.75 12.2856 312.934 12.01 313.06 11.7067C313.185 11.4034 313.25 11.0783 313.25 10.75V10.25C313.25 10.0511 313.171 9.86031 313.03 9.71966C312.89 9.579 312.699 9.49999 312.5 9.49999H311.25C311.051 9.49999 310.86 9.579 310.72 9.71966C310.579 9.86031 310.5 10.0511 310.5 10.25C310.5 10.4489 310.579 10.6397 310.72 10.7803C310.86 10.921 311.051 11 311.25 11H311.719C311.664 11.2148 311.538 11.405 311.363 11.5408C311.187 11.6766 310.972 11.7502 310.75 11.75H310.5C310.235 11.75 309.98 11.6446 309.793 11.4571C309.605 11.2696 309.5 11.0152 309.5 10.75V9.50099L309.502 9.46699C309.515 9.25473 309.56 9.04568 309.636 8.84699C309.766 8.51499 309.977 8.25599 310.386 8.18099C310.983 8.07099 311.303 8.19099 311.45 8.27199C311.514 8.30668 311.571 8.35199 311.62 8.40599C311.727 8.56987 311.893 8.68557 312.084 8.72842C312.275 8.77126 312.475 8.73786 312.642 8.63534C312.808 8.53282 312.928 8.36929 312.976 8.17961C313.024 7.98993 312.995 7.78912 312.897 7.61999H312.896ZM304 6.74999C303.816 6.75008 303.638 6.81816 303.5 6.94121C303.363 7.06426 303.275 7.23365 303.255 7.41699L303.005 9.66699C302.992 9.78312 303.007 9.90063 303.047 10.0102C303.088 10.1197 303.154 10.2182 303.239 10.2979C303.325 10.3775 303.428 10.4361 303.54 10.4689C303.652 10.5018 303.77 10.5079 303.885 10.487L304.891 10.305C304.99 10.2875 305.092 10.2909 305.19 10.3148C305.288 10.3388 305.38 10.3827 305.46 10.444C305.54 10.5053 305.606 10.5825 305.655 10.6708C305.703 10.759 305.733 10.8564 305.742 10.9568C305.751 11.0571 305.739 11.1583 305.707 11.2538C305.675 11.3493 305.624 11.4371 305.556 11.5117C305.488 11.5863 305.405 11.6459 305.313 11.687C305.221 11.728 305.122 11.7494 305.021 11.75H304.803C304.68 11.75 304.558 11.7195 304.449 11.6612C304.34 11.603 304.248 11.5187 304.179 11.416L304.124 11.334C304.013 11.1709 303.842 11.0583 303.648 11.0206C303.454 10.9829 303.253 11.0233 303.089 11.1328C302.924 11.2424 302.81 11.4123 302.77 11.6057C302.73 11.7992 302.768 12.0005 302.876 12.166L302.931 12.248C303.137 12.5562 303.415 12.8089 303.741 12.9837C304.068 13.1585 304.433 13.25 304.803 13.25H305.022C305.331 13.2492 305.637 13.1841 305.919 13.059C306.201 12.9338 306.455 12.7512 306.663 12.5229C306.871 12.2945 307.03 12.0253 307.128 11.7325C307.227 11.4396 307.263 11.1295 307.235 10.8217C307.208 10.514 307.116 10.2154 306.967 9.94491C306.817 9.67442 306.613 9.43797 306.368 9.25056C306.122 9.06316 305.84 8.9289 305.54 8.85632C305.239 8.78375 304.927 8.77444 304.623 8.82899L304.607 8.83199L304.671 8.24999H306.501C306.7 8.24999 306.891 8.17097 307.031 8.03032C307.172 7.88966 307.251 7.6989 307.251 7.49999C307.251 7.30107 307.172 7.11031 307.031 6.96966C306.891 6.829 306.7 6.74999 306.501 6.74999H304ZM321 11C321 10.7348 320.895 10.4804 320.707 10.2929C320.52 10.1053 320.265 9.99999 320 9.99999C319.735 9.99999 319.48 10.1053 319.293 10.2929C319.105 10.4804 319 10.7348 319 11V24C319 24.2652 319.105 24.5196 319.293 24.7071C319.48 24.8946 319.735 25 320 25C320.265 25 320.52 24.8946 320.707 24.7071C320.895 24.5196 321 24.2652 321 24V11ZM317 13.995C316.999 13.7305 316.894 13.4771 316.706 13.2905C316.518 13.104 316.265 12.9995 316 13C315.448 13 315 13.446 315 13.995V24.005C315 24.555 315.448 25 316 25C316.552 25 317 24.554 317 24.005V13.995ZM313 17C313 16.7348 312.895 16.4804 312.707 16.2929C312.52 16.1053 312.265 16 312 16C311.735 16 311.48 16.1053 311.293 16.2929C311.105 16.4804 311 16.7348 311 17V24C311 24.2652 311.105 24.5196 311.293 24.7071C311.48 24.8946 311.735 25 312 25C312.265 25 312.52 24.8946 312.707 24.7071C312.895 24.5196 313 24.2652 313 24V17ZM309 19.994C309 19.8631 308.973 19.7335 308.923 19.6127C308.873 19.4919 308.799 19.3822 308.706 19.2899C308.613 19.1976 308.503 19.1245 308.382 19.0747C308.261 19.025 308.131 18.9996 308 19C307.448 19 307 19.445 307 19.994V24.006C307 24.555 307.448 25 308 25C308.552 25 309 24.555 309 24.006V19.994ZM305 22.984C304.999 22.8537 304.972 22.7249 304.922 22.605C304.871 22.485 304.797 22.3762 304.704 22.2849C304.611 22.1935 304.501 22.1213 304.38 22.0724C304.26 22.0235 304.13 21.9989 304 22C303.448 22 303 22.44 303 22.984V24.016C303 24.56 303.448 25 304 25C304.552 25 305 24.56 305 24.016V22.984Z" fill="#FFFCFC"/>
<path d="M274 19V13H276V19H274ZM277 21V11H279V21H277ZM296 19V13H298V19H296ZM293 21V11H295V21H293ZM282 25C281.45 25 280.979 24.804 280.587 24.412C280.195 24.02 279.999 23.5493 280 23V9C280 8.45 280.196 7.979 280.588 7.587C280.98 7.195 281.451 6.99934 282 7H290C290.55 7 291.021 7.196 291.413 7.588C291.805 7.98 292.001 8.45067 292 9V23C292 23.55 291.804 24.021 291.412 24.413C291.02 24.805 290.549 25.0007 290 25H282ZM282 23H290V9H282V23Z" fill="#FFFCFC"/>
<path d="M194.145 131.18C193.545 131.18 192.975 131.12 192.435 131C191.895 130.88 191.415 130.69 190.995 130.43C190.585 130.16 190.26 129.825 190.02 129.425C189.79 129.015 189.675 128.52 189.675 127.94C189.675 127.89 189.675 127.84 189.675 127.79C189.675 127.73 189.68 127.685 189.69 127.655H191.91C191.9 127.685 191.895 127.725 191.895 127.775C191.895 127.825 191.895 127.87 191.895 127.91C191.895 128.23 191.98 128.5 192.15 128.72C192.33 128.94 192.59 129.105 192.93 129.215C193.27 129.325 193.665 129.38 194.115 129.38C194.405 129.38 194.66 129.365 194.88 129.335C195.11 129.295 195.31 129.245 195.48 129.185C195.66 129.115 195.805 129.035 195.915 128.945C196.035 128.855 196.12 128.75 196.17 128.63C196.23 128.51 196.26 128.375 196.26 128.225C196.26 127.955 196.17 127.735 195.99 127.565C195.82 127.395 195.58 127.25 195.27 127.13C194.97 127.01 194.63 126.9 194.25 126.8C193.87 126.7 193.48 126.6 193.08 126.5C192.68 126.39 192.29 126.26 191.91 126.11C191.53 125.95 191.19 125.76 190.89 125.54C190.59 125.32 190.35 125.04 190.17 124.7C189.99 124.36 189.9 123.95 189.9 123.47C189.9 122.96 190.005 122.52 190.215 122.15C190.435 121.78 190.74 121.475 191.13 121.235C191.52 120.995 191.97 120.82 192.48 120.71C192.99 120.59 193.545 120.53 194.145 120.53C194.705 120.53 195.235 120.59 195.735 120.71C196.235 120.82 196.675 121 197.055 121.25C197.435 121.5 197.73 121.815 197.94 122.195C198.16 122.575 198.27 123.025 198.27 123.545V123.725H196.095V123.605C196.095 123.335 196.015 123.105 195.855 122.915C195.695 122.725 195.47 122.575 195.18 122.465C194.89 122.355 194.55 122.3 194.16 122.3C193.74 122.3 193.38 122.34 193.08 122.42C192.79 122.5 192.565 122.62 192.405 122.78C192.255 122.93 192.18 123.11 192.18 123.32C192.18 123.56 192.265 123.76 192.435 123.92C192.615 124.07 192.855 124.205 193.155 124.325C193.465 124.435 193.81 124.535 194.19 124.625C194.57 124.715 194.96 124.815 195.36 124.925C195.76 125.035 196.15 125.165 196.53 125.315C196.91 125.465 197.25 125.655 197.55 125.885C197.85 126.105 198.09 126.38 198.27 126.71C198.45 127.04 198.54 127.435 198.54 127.895C198.54 128.685 198.35 129.32 197.97 129.8C197.59 130.28 197.07 130.63 196.41 130.85C195.75 131.07 194.995 131.18 194.145 131.18ZM202.856 131V122.585H199.556V120.71H208.421V122.585H205.106V131H202.856ZM207.62 131L211.58 120.71H214.34L218.3 131H215.885L215.15 128.975H210.665L209.93 131H207.62ZM211.31 127.175H214.505L213.59 124.64C213.55 124.53 213.5 124.4 213.44 124.25C213.39 124.09 213.335 123.915 213.275 123.725C213.215 123.535 213.155 123.35 213.095 123.17C213.045 122.98 212.995 122.81 212.945 122.66H212.855C212.805 122.85 212.74 123.075 212.66 123.335C212.58 123.585 212.5 123.83 212.42 124.07C212.34 124.3 212.275 124.49 212.225 124.64L211.31 127.175ZM220.8 131V122.585H217.5V120.71H226.365V122.585H223.05V131H220.8ZM232.329 131.18C231.389 131.18 230.579 131.03 229.899 130.73C229.229 130.43 228.714 129.98 228.354 129.38C227.994 128.77 227.814 128.015 227.814 127.115V120.71H230.064V127.055C230.064 127.795 230.259 128.365 230.649 128.765C231.039 129.155 231.599 129.35 232.329 129.35C233.059 129.35 233.619 129.155 234.009 128.765C234.409 128.365 234.609 127.795 234.609 127.055V120.71H236.859V127.115C236.859 128.015 236.679 128.77 236.319 129.38C235.959 129.98 235.439 130.43 234.759 130.73C234.089 131.03 233.279 131.18 232.329 131.18ZM243.1 131.18C242.5 131.18 241.93 131.12 241.39 131C240.85 130.88 240.37 130.69 239.95 130.43C239.54 130.16 239.215 129.825 238.975 129.425C238.745 129.015 238.63 128.52 238.63 127.94C238.63 127.89 238.63 127.84 238.63 127.79C238.63 127.73 238.635 127.685 238.645 127.655H240.865C240.855 127.685 240.85 127.725 240.85 127.775C240.85 127.825 240.85 127.87 240.85 127.91C240.85 128.23 240.935 128.5 241.105 128.72C241.285 128.94 241.545 129.105 241.885 129.215C242.225 129.325 242.62 129.38 243.07 129.38C243.36 129.38 243.615 129.365 243.835 129.335C244.065 129.295 244.265 129.245 244.435 129.185C244.615 129.115 244.76 129.035 244.87 128.945C244.99 128.855 245.075 128.75 245.125 128.63C245.185 128.51 245.215 128.375 245.215 128.225C245.215 127.955 245.125 127.735 244.945 127.565C244.775 127.395 244.535 127.25 244.225 127.13C243.925 127.01 243.585 126.9 243.205 126.8C242.825 126.7 242.435 126.6 242.035 126.5C241.635 126.39 241.245 126.26 240.865 126.11C240.485 125.95 240.145 125.76 239.845 125.54C239.545 125.32 239.305 125.04 239.125 124.7C238.945 124.36 238.855 123.95 238.855 123.47C238.855 122.96 238.96 122.52 239.17 122.15C239.39 121.78 239.695 121.475 240.085 121.235C240.475 120.995 240.925 120.82 241.435 120.71C241.945 120.59 242.5 120.53 243.1 120.53C243.66 120.53 244.19 120.59 244.69 120.71C245.19 120.82 245.63 121 246.01 121.25C246.39 121.5 246.685 121.815 246.895 122.195C247.115 122.575 247.225 123.025 247.225 123.545V123.725H245.05V123.605C245.05 123.335 244.97 123.105 244.81 122.915C244.65 122.725 244.425 122.575 244.135 122.465C243.845 122.355 243.505 122.3 243.115 122.3C242.695 122.3 242.335 122.34 242.035 122.42C241.745 122.5 241.52 122.62 241.36 122.78C241.21 122.93 241.135 123.11 241.135 123.32C241.135 123.56 241.22 123.76 241.39 123.92C241.57 124.07 241.81 124.205 242.11 124.325C242.42 124.435 242.765 124.535 243.145 124.625C243.525 124.715 243.915 124.815 244.315 124.925C244.715 125.035 245.105 125.165 245.485 125.315C245.865 125.465 246.205 125.655 246.505 125.885C246.805 126.105 247.045 126.38 247.225 126.71C247.405 127.04 247.495 127.435 247.495 127.895C247.495 128.685 247.305 129.32 246.925 129.8C246.545 130.28 246.025 130.63 245.365 130.85C244.705 131.07 243.95 131.18 243.1 131.18Z" fill="#81B8B2"/>
<path d="M287.745 131.18C286.675 131.18 285.76 130.995 285 130.625C284.24 130.245 283.66 129.66 283.26 128.87C282.87 128.08 282.675 127.075 282.675 125.855C282.675 124.055 283.115 122.72 283.995 121.85C284.885 120.97 286.135 120.53 287.745 120.53C288.625 120.53 289.415 120.68 290.115 120.98C290.815 121.28 291.365 121.73 291.765 122.33C292.175 122.93 292.38 123.685 292.38 124.595H290.13C290.13 124.115 290.03 123.71 289.83 123.38C289.64 123.05 289.365 122.8 289.005 122.63C288.655 122.45 288.245 122.36 287.775 122.36C287.135 122.36 286.605 122.485 286.185 122.735C285.775 122.985 285.47 123.355 285.27 123.845C285.08 124.325 284.985 124.915 284.985 125.615V126.08C284.985 126.8 285.085 127.405 285.285 127.895C285.485 128.375 285.785 128.74 286.185 128.99C286.595 129.23 287.12 129.35 287.76 129.35C288.26 129.35 288.695 129.265 289.065 129.095C289.435 128.925 289.72 128.675 289.92 128.345C290.12 128.015 290.22 127.61 290.22 127.13H292.38C292.38 128.04 292.18 128.795 291.78 129.395C291.39 129.995 290.845 130.445 290.145 130.745C289.445 131.035 288.645 131.18 287.745 131.18ZM294.141 131V120.71H296.376V124.79H300.936V120.71H303.171V131H300.936V126.68H296.376V131H294.141ZM304.4 131L308.36 120.71H311.12L315.08 131H312.665L311.93 128.975H307.445L306.71 131H304.4ZM308.09 127.175H311.285L310.37 124.64C310.33 124.53 310.28 124.4 310.22 124.25C310.17 124.09 310.115 123.915 310.055 123.725C309.995 123.535 309.935 123.35 309.875 123.17C309.825 122.98 309.775 122.81 309.725 122.66H309.635C309.585 122.85 309.52 123.075 309.44 123.335C309.36 123.585 309.28 123.83 309.2 124.07C309.12 124.3 309.055 124.49 309.005 124.64L308.09 127.175ZM316.304 131V120.71H319.709L321.179 125.975C321.239 126.165 321.299 126.39 321.359 126.65C321.419 126.91 321.479 127.17 321.539 127.43C321.609 127.68 321.664 127.905 321.704 128.105H321.824C321.844 127.935 321.879 127.735 321.929 127.505C321.979 127.265 322.034 127.01 322.094 126.74C322.154 126.47 322.219 126.21 322.289 125.96L323.759 120.71H327.104V131H324.899V126.125C324.899 125.675 324.899 125.225 324.899 124.775C324.909 124.315 324.919 123.915 324.929 123.575C324.949 123.235 324.959 123.015 324.959 122.915H324.839C324.819 123.025 324.769 123.23 324.689 123.53C324.619 123.82 324.539 124.13 324.449 124.46C324.369 124.79 324.294 125.075 324.224 125.315L322.619 131H320.669L319.049 125.33C318.989 125.12 318.919 124.875 318.839 124.595C318.769 124.305 318.699 124.01 318.629 123.71C318.569 123.4 318.509 123.135 318.449 122.915H318.329C318.339 123.185 318.349 123.51 318.359 123.89C318.369 124.26 318.379 124.645 318.389 125.045C318.399 125.435 318.404 125.795 318.404 126.125V131H316.304ZM328.335 131L332.295 120.71H335.055L339.015 131H336.6L335.865 128.975H331.38L330.645 131H328.335ZM332.025 127.175H335.22L334.305 124.64C334.265 124.53 334.215 124.4 334.155 124.25C334.105 124.09 334.05 123.915 333.99 123.725C333.93 123.535 333.87 123.35 333.81 123.17C333.76 122.98 333.71 122.81 333.66 122.66H333.57C333.52 122.85 333.455 123.075 333.375 123.335C333.295 123.585 333.215 123.83 333.135 124.07C333.055 124.3 332.99 124.49 332.94 124.64L332.025 127.175ZM340.24 131V120.71H344.44C345.51 120.71 346.42 120.895 347.17 121.265C347.92 121.635 348.495 122.2 348.895 122.96C349.305 123.71 349.51 124.675 349.51 125.855C349.51 127.025 349.305 127.99 348.895 128.75C348.495 129.51 347.92 130.075 347.17 130.445C346.42 130.815 345.51 131 344.44 131H340.24ZM342.475 129.155H344.425C344.875 129.155 345.275 129.09 345.625 128.96C345.975 128.83 346.265 128.64 346.495 128.39C346.725 128.13 346.9 127.81 347.02 127.43C347.14 127.04 347.2 126.59 347.2 126.08V125.63C347.2 125.12 347.14 124.675 347.02 124.295C346.9 123.905 346.725 123.585 346.495 123.335C346.265 123.075 345.975 122.88 345.625 122.75C345.275 122.61 344.875 122.54 344.425 122.54H342.475V129.155ZM350.044 131L354.004 120.71H356.764L360.724 131H358.309L357.574 128.975H353.089L352.354 131H350.044ZM353.734 127.175H356.929L356.014 124.64C355.974 124.53 355.924 124.4 355.864 124.25C355.814 124.09 355.759 123.915 355.699 123.725C355.639 123.535 355.579 123.35 355.519 123.17C355.469 122.98 355.419 122.81 355.369 122.66H355.279C355.229 122.85 355.164 123.075 355.084 123.335C355.004 123.585 354.924 123.83 354.844 124.07C354.764 124.3 354.699 124.49 354.649 124.64L353.734 127.175ZM365.954 131.18C365.354 131.18 364.784 131.12 364.244 131C363.704 130.88 363.224 130.69 362.804 130.43C362.394 130.16 362.069 129.825 361.829 129.425C361.599 129.015 361.484 128.52 361.484 127.94C361.484 127.89 361.484 127.84 361.484 127.79C361.484 127.73 361.489 127.685 361.499 127.655H363.719C363.709 127.685 363.704 127.725 363.704 127.775C363.704 127.825 363.704 127.87 363.704 127.91C363.704 128.23 363.789 128.5 363.959 128.72C364.139 128.94 364.399 129.105 364.739 129.215C365.079 129.325 365.474 129.38 365.924 129.38C366.214 129.38 366.469 129.365 366.689 129.335C366.919 129.295 367.119 129.245 367.289 129.185C367.469 129.115 367.614 129.035 367.724 128.945C367.844 128.855 367.929 128.75 367.979 128.63C368.039 128.51 368.069 128.375 368.069 128.225C368.069 127.955 367.979 127.735 367.799 127.565C367.629 127.395 367.389 127.25 367.079 127.13C366.779 127.01 366.439 126.9 366.059 126.8C365.679 126.7 365.289 126.6 364.889 126.5C364.489 126.39 364.099 126.26 363.719 126.11C363.339 125.95 362.999 125.76 362.699 125.54C362.399 125.32 362.159 125.04 361.979 124.7C361.799 124.36 361.709 123.95 361.709 123.47C361.709 122.96 361.814 122.52 362.024 122.15C362.244 121.78 362.549 121.475 362.939 121.235C363.329 120.995 363.779 120.82 364.289 120.71C364.799 120.59 365.354 120.53 365.954 120.53C366.514 120.53 367.044 120.59 367.544 120.71C368.044 120.82 368.484 121 368.864 121.25C369.244 121.5 369.539 121.815 369.749 122.195C369.969 122.575 370.079 123.025 370.079 123.545V123.725H367.904V123.605C367.904 123.335 367.824 123.105 367.664 122.915C367.504 122.725 367.279 122.575 366.989 122.465C366.699 122.355 366.359 122.3 365.969 122.3C365.549 122.3 365.189 122.34 364.889 122.42C364.599 122.5 364.374 122.62 364.214 122.78C364.064 122.93 363.989 123.11 363.989 123.32C363.989 123.56 364.074 123.76 364.244 123.92C364.424 124.07 364.664 124.205 364.964 124.325C365.274 124.435 365.619 124.535 365.999 124.625C366.379 124.715 366.769 124.815 367.169 124.925C367.569 125.035 367.959 125.165 368.339 125.315C368.719 125.465 369.059 125.655 369.359 125.885C369.659 126.105 369.899 126.38 370.079 126.71C370.259 127.04 370.349 127.435 370.349 127.895C370.349 128.685 370.159 129.32 369.779 129.8C369.399 130.28 368.879 130.63 368.219 130.85C367.559 131.07 366.804 131.18 365.954 131.18Z" fill="#81B8B2"/>
<path d="M368.704 63.408C368.704 62.512 368.981 61.7653 369.536 61.168C370.091 60.5707 370.848 60.272 371.808 60.272C372.768 60.272 373.525 60.5707 374.08 61.168C374.635 61.7653 374.912 62.512 374.912 63.408C374.912 64.304 374.635 65.0507 374.08 65.648C373.525 66.2453 372.768 66.544 371.808 66.544C370.848 66.544 370.091 66.2453 369.536 65.648C368.981 65.0507 368.704 64.304 368.704 63.408Z" fill="#F5F5F5"/>
<path d="M368.704 54.408C368.704 53.512 368.981 52.7653 369.536 52.168C370.091 51.5707 370.848 51.272 371.808 51.272C372.768 51.272 373.525 51.5707 374.08 52.168C374.635 52.7653 374.912 53.512 374.912 54.408C374.912 55.304 374.635 56.0507 374.08 56.648C373.525 57.2453 372.768 57.544 371.808 57.544C370.848 57.544 370.091 57.2453 369.536 56.648C368.981 56.0507 368.704 55.304 368.704 54.408Z" fill="#F5F5F5"/>
<path d="M368.704 72.408C368.704 71.512 368.981 70.7653 369.536 70.168C370.091 69.5707 370.848 69.272 371.808 69.272C372.768 69.272 373.525 69.5707 374.08 70.168C374.635 70.7653 374.912 71.512 374.912 72.408C374.912 73.304 374.635 74.0507 374.08 74.648C373.525 75.2453 372.768 75.544 371.808 75.544C370.848 75.544 370.091 75.2453 369.536 74.648C368.981 74.0507 368.704 73.304 368.704 72.408Z" fill="#F5F5F5"/>
<path fill-rule="evenodd" clip-rule="evenodd" d="M44.2251 144.5C44.2251 143.923 44.5649 143.37 45.1697 142.962C45.7745 142.554 46.5948 142.325 47.4501 142.325H163.55C164.405 142.325 165.226 142.554 165.831 142.962C166.435 143.37 166.775 143.923 166.775 144.5C166.775 145.077 166.435 145.63 165.831 146.038C165.226 146.446 164.405 146.675 163.55 146.675H47.4501C46.5948 146.675 45.7745 146.446 45.1697 146.038C44.5649 145.63 44.2251 145.077 44.2251 144.5Z" fill="#F5F5F5"/>
<rect y="790" width="390" height="54" fill="#010101"/>
<g clip-path="url(#clip1_0_1)">
<path fill-rule="evenodd" clip-rule="evenodd" d="M312.875 805.667C312.875 804.959 313.147 804.281 313.632 803.781C314.116 803.281 314.773 803 315.458 803H333.542C334.227 803 334.884 803.281 335.368 803.781C335.853 804.281 336.125 804.959 336.125 805.667V824.333C336.125 825.041 335.853 825.719 335.368 826.219C334.884 826.719 334.227 827 333.542 827H315.458C314.773 827 314.116 826.719 313.632 826.219C313.147 825.719 312.875 825.041 312.875 824.333V805.667Z" fill="white"/>
</g>
<path d="M195 827C200.523 827 205 822.523 205 817C205 811.477 200.523 807 195 807C189.477 807 185 811.477 185 817C185 822.523 189.477 827 195 827Z" fill="#FFFCFC"/>
<path d="M195 831C192.231 831 189.524 830.179 187.222 828.641C184.92 827.102 183.125 824.916 182.066 822.358C181.006 819.799 180.729 816.984 181.269 814.269C181.809 811.553 183.143 809.058 185.101 807.101C187.058 805.143 189.553 803.809 192.269 803.269C194.984 802.729 197.799 803.006 200.358 804.066C202.916 805.125 205.102 806.92 206.641 809.222C208.179 811.524 209 814.231 209 817C208.996 820.712 207.519 824.27 204.895 826.895C202.27 829.519 198.712 830.996 195 831ZM195 805C192.627 805 190.307 805.704 188.333 807.022C186.36 808.341 184.822 810.215 183.913 812.408C183.005 814.601 182.768 817.013 183.231 819.341C183.694 821.669 184.836 823.807 186.515 825.485C188.193 827.164 190.331 828.306 192.659 828.769C194.987 829.232 197.399 828.995 199.592 828.087C201.785 827.178 203.659 825.64 204.978 823.667C206.296 821.693 207 819.373 207 817C206.996 813.819 205.731 810.768 203.481 808.519C201.232 806.269 198.181 805.004 195 805Z" fill="#FFFCFC"/>
<path d="M81 808.5C81 808.221 80.8966 807.948 80.7013 807.711C80.506 807.474 80.2266 807.283 79.8944 807.158C79.5622 807.034 79.1903 806.981 78.8204 807.006C78.4505 807.031 78.0971 807.133 77.8 807.3L61.8 816.3C61.5516 816.44 61.35 816.621 61.2111 816.829C61.0723 817.037 61 817.267 61 817.5C61 817.733 61.0723 817.963 61.2111 818.171C61.35 818.379 61.5516 818.56 61.8 818.7L77.8 827.7C78.0971 827.867 78.4505 827.969 78.8204 827.994C79.1903 828.019 79.5622 827.966 79.8944 827.842C80.2266 827.717 80.506 827.526 80.7013 827.289C80.8966 827.052 81 826.779 81 826.5V808.5Z" fill="#FFFCFC"/>
<path d="M62.745 131.18C61.675 131.18 60.76 130.995 60 130.625C59.24 130.245 58.66 129.66 58.26 128.87C57.87 128.08 57.675 127.075 57.675 125.855C57.675 124.055 58.115 122.72 58.995 121.85C59.885 120.97 61.135 120.53 62.745 120.53C63.625 120.53 64.415 120.68 65.115 120.98C65.815 121.28 66.365 121.73 66.765 122.33C67.175 122.93 67.38 123.685 67.38 124.595H65.13C65.13 124.115 65.03 123.71 64.83 123.38C64.64 123.05 64.365 122.8 64.005 122.63C63.655 122.45 63.245 122.36 62.775 122.36C62.135 122.36 61.605 122.485 61.185 122.735C60.775 122.985 60.47 123.355 60.27 123.845C60.08 124.325 59.985 124.915 59.985 125.615V126.08C59.985 126.8 60.085 127.405 60.285 127.895C60.485 128.375 60.785 128.74 61.185 128.99C61.595 129.23 62.12 129.35 62.76 129.35C63.26 129.35 63.695 129.265 64.065 129.095C64.435 128.925 64.72 128.675 64.92 128.345C65.12 128.015 65.22 127.61 65.22 127.13H67.38C67.38 128.04 67.18 128.795 66.78 129.395C66.39 129.995 65.845 130.445 65.145 130.745C64.445 131.035 63.645 131.18 62.745 131.18ZM73.941 131.18C72.851 131.18 71.911 130.985 71.121 130.595C70.331 130.205 69.726 129.615 69.306 128.825C68.886 128.035 68.676 127.045 68.676 125.855C68.676 124.645 68.886 123.65 69.306 122.87C69.726 122.08 70.331 121.495 71.121 121.115C71.911 120.725 72.851 120.53 73.941 120.53C75.051 120.53 75.996 120.725 76.776 121.115C77.566 121.495 78.171 122.08 78.591 122.87C79.011 123.65 79.221 124.645 79.221 125.855C79.221 127.045 79.011 128.035 78.591 128.825C78.171 129.615 77.566 130.205 76.776 130.595C75.996 130.985 75.051 131.18 73.941 131.18ZM73.941 129.35C74.431 129.35 74.861 129.28 75.231 129.14C75.601 129 75.911 128.79 76.161 128.51C76.411 128.23 76.601 127.89 76.731 127.49C76.861 127.08 76.926 126.615 76.926 126.095V125.63C76.926 125.1 76.861 124.63 76.731 124.22C76.601 123.81 76.411 123.47 76.161 123.2C75.911 122.92 75.601 122.71 75.231 122.57C74.861 122.43 74.431 122.36 73.941 122.36C73.461 122.36 73.036 122.43 72.666 122.57C72.296 122.71 71.986 122.92 71.736 123.2C71.486 123.47 71.296 123.81 71.166 124.22C71.046 124.63 70.986 125.1 70.986 125.63V126.095C70.986 126.615 71.046 127.08 71.166 127.49C71.296 127.89 71.486 128.23 71.736 128.51C71.986 128.79 72.296 129 72.666 129.14C73.036 129.28 73.461 129.35 73.941 129.35ZM81.0355 131V120.71H83.0905L87.2305 126.26C87.2905 126.33 87.3655 126.43 87.4555 126.56C87.5455 126.68 87.6305 126.8 87.7105 126.92C87.7905 127.04 87.8455 127.135 87.8755 127.205H87.9505C87.9505 127.035 87.9505 126.87 87.9505 126.71C87.9505 126.54 87.9505 126.39 87.9505 126.26V120.71H90.0655V131H88.0105L83.7805 125.315C83.6805 125.175 83.5755 125.02 83.4655 124.85C83.3555 124.68 83.2755 124.55 83.2255 124.46H83.1505C83.1505 124.61 83.1505 124.76 83.1505 124.91C83.1505 125.05 83.1505 125.185 83.1505 125.315V131H81.0355ZM95.1041 131L91.3841 120.71H93.7991L96.0191 127.28C96.0591 127.39 96.1041 127.525 96.1541 127.685C96.2041 127.835 96.2541 127.985 96.3041 128.135C96.3541 128.285 96.3941 128.42 96.4241 128.54H96.5141C96.5541 128.43 96.5941 128.305 96.6341 128.165C96.6841 128.015 96.7291 127.865 96.7691 127.715C96.8191 127.565 96.8641 127.425 96.9041 127.295L99.1241 120.71H101.449L97.7141 131H95.1041ZM102.759 131V120.71H110.979V122.54H105.009V124.835H110.289V126.65H105.009V129.155H111.069V131H102.759ZM112.998 131V120.71H118.638C119.398 120.71 120.028 120.845 120.528 121.115C121.038 121.385 121.418 121.765 121.668 122.255C121.918 122.735 122.043 123.29 122.043 123.92C122.043 124.59 121.893 125.185 121.593 125.705C121.293 126.215 120.858 126.605 120.288 126.875L122.388 131H119.913L118.098 127.25H115.233V131H112.998ZM115.233 125.48H118.338C118.788 125.48 119.138 125.345 119.388 125.075C119.638 124.795 119.763 124.42 119.763 123.95C119.763 123.65 119.708 123.395 119.598 123.185C119.488 122.965 119.328 122.8 119.118 122.69C118.908 122.58 118.648 122.525 118.338 122.525H115.233V125.48ZM127.96 131.18C127.36 131.18 126.79 131.12 126.25 131C125.71 130.88 125.23 130.69 124.81 130.43C124.4 130.16 124.075 129.825 123.835 129.425C123.605 129.015 123.49 128.52 123.49 127.94C123.49 127.89 123.49 127.84 123.49 127.79C123.49 127.73 123.495 127.685 123.505 127.655H125.725C125.715 127.685 125.71 127.725 125.71 127.775C125.71 127.825 125.71 127.87 125.71 127.91C125.71 128.23 125.795 128.5 125.965 128.72C126.145 128.94 126.405 129.105 126.745 129.215C127.085 129.325 127.48 129.38 127.93 129.38C128.22 129.38 128.475 129.365 128.695 129.335C128.925 129.295 129.125 129.245 129.295 129.185C129.475 129.115 129.62 129.035 129.73 128.945C129.85 128.855 129.935 128.75 129.985 128.63C130.045 128.51 130.075 128.375 130.075 128.225C130.075 127.955 129.985 127.735 129.805 127.565C129.635 127.395 129.395 127.25 129.085 127.13C128.785 127.01 128.445 126.9 128.065 126.8C127.685 126.7 127.295 126.6 126.895 126.5C126.495 126.39 126.105 126.26 125.725 126.11C125.345 125.95 125.005 125.76 124.705 125.54C124.405 125.32 124.165 125.04 123.985 124.7C123.805 124.36 123.715 123.95 123.715 123.47C123.715 122.96 123.82 122.52 124.03 122.15C124.25 121.78 124.555 121.475 124.945 121.235C125.335 120.995 125.785 120.82 126.295 120.71C126.805 120.59 127.36 120.53 127.96 120.53C128.52 120.53 129.05 120.59 129.55 120.71C130.05 120.82 130.49 121 130.87 121.25C131.25 121.5 131.545 121.815 131.755 122.195C131.975 122.575 132.085 123.025 132.085 123.545V123.725H129.91V123.605C129.91 123.335 129.83 123.105 129.67 122.915C129.51 122.725 129.285 122.575 128.995 122.465C128.705 122.355 128.365 122.3 127.975 122.3C127.555 122.3 127.195 122.34 126.895 122.42C126.605 122.5 126.38 122.62 126.22 122.78C126.07 122.93 125.995 123.11 125.995 123.32C125.995 123.56 126.08 123.76 126.25 123.92C126.43 124.07 126.67 124.205 126.97 124.325C127.28 124.435 127.625 124.535 128.005 124.625C128.385 124.715 128.775 124.815 129.175 124.925C129.575 125.035 129.965 125.165 130.345 125.315C130.725 125.465 131.065 125.655 131.365 125.885C131.665 126.105 131.905 126.38 132.085 126.71C132.265 127.04 132.355 127.435 132.355 127.895C132.355 128.685 132.165 129.32 131.785 129.8C131.405 130.28 130.885 130.63 130.225 130.85C129.565 131.07 128.81 131.18 127.96 131.18ZM133.086 131L137.046 120.71H139.806L143.766 131H141.351L140.616 128.975H136.131L135.396 131H133.086ZM136.776 127.175H139.971L139.056 124.64C139.016 124.53 138.966 124.4 138.906 124.25C138.856 124.09 138.801 123.915 138.741 123.725C138.681 123.535 138.621 123.35 138.561 123.17C138.511 122.98 138.461 122.81 138.411 122.66H138.321C138.271 122.85 138.206 123.075 138.126 123.335C138.046 123.585 137.966 123.83 137.886 124.07C137.806 124.3 137.741 124.49 137.691 124.64L136.776 127.175ZM148.996 131.18C148.396 131.18 147.826 131.12 147.286 131C146.746 130.88 146.266 130.69 145.846 130.43C145.436 130.16 145.111 129.825 144.871 129.425C144.641 129.015 144.526 128.52 144.526 127.94C144.526 127.89 144.526 127.84 144.526 127.79C144.526 127.73 144.531 127.685 144.541 127.655H146.761C146.751 127.685 146.746 127.725 146.746 127.775C146.746 127.825 146.746 127.87 146.746 127.91C146.746 128.23 146.831 128.5 147.001 128.72C147.181 128.94 147.441 129.105 147.781 129.215C148.121 129.325 148.516 129.38 148.966 129.38C149.256 129.38 149.511 129.365 149.731 129.335C149.961 129.295 150.161 129.245 150.331 129.185C150.511 129.115 150.656 129.035 150.766 128.945C150.886 128.855 150.971 128.75 151.021 128.63C151.081 128.51 151.111 128.375 151.111 128.225C151.111 127.955 151.021 127.735 150.841 127.565C150.671 127.395 150.431 127.25 150.121 127.13C149.821 127.01 149.481 126.9 149.101 126.8C148.721 126.7 148.331 126.6 147.931 126.5C147.531 126.39 147.141 126.26 146.761 126.11C146.381 125.95 146.041 125.76 145.741 125.54C145.441 125.32 145.201 125.04 145.021 124.7C144.841 124.36 144.751 123.95 144.751 123.47C144.751 122.96 144.856 122.52 145.066 122.15C145.286 121.78 145.591 121.475 145.981 121.235C146.371 120.995 146.821 120.82 147.331 120.71C147.841 120.59 148.396 120.53 148.996 120.53C149.556 120.53 150.086 120.59 150.586 120.71C151.086 120.82 151.526 121 151.906 121.25C152.286 121.5 152.581 121.815 152.791 122.195C153.011 122.575 153.121 123.025 153.121 123.545V123.725H150.946V123.605C150.946 123.335 150.866 123.105 150.706 122.915C150.546 122.725 150.321 122.575 150.031 122.465C149.741 122.355 149.401 122.3 149.011 122.3C148.591 122.3 148.231 122.34 147.931 122.42C147.641 122.5 147.416 122.62 147.256 122.78C147.106 122.93 147.031 123.11 147.031 123.32C147.031 123.56 147.116 123.76 147.286 123.92C147.466 124.07 147.706 124.205 148.006 124.325C148.316 124.435 148.661 124.535 149.041 124.625C149.421 124.715 149.811 124.815 150.211 124.925C150.611 125.035 151.001 125.165 151.381 125.315C151.761 125.465 152.101 125.655 152.401 125.885C152.701 126.105 152.941 126.38 153.121 126.71C153.301 127.04 153.391 127.435 153.391 127.895C153.391 128.685 153.201 129.32 152.821 129.8C152.441 130.28 151.921 130.63 151.261 130.85C150.601 131.07 149.846 131.18 148.996 131.18Z" fill="white"/>
<path d="M333 8V7C333 6.73478 333.105 6.48043 333.293 6.29289C333.48 6.10536 333.735 6 334 6H338C338.265 6 338.52 6.10536 338.707 6.29289C338.895 6.48043 339 6.73478 339 7V8H342C342.265 8 342.52 8.10536 342.707 8.29289C342.895 8.48043 343 8.73478 343 9V25C343 25.2652 342.895 25.5196 342.707 25.7071C342.52 25.8946 342.265 26 342 26H330C329.735 26 329.48 25.8946 329.293 25.7071C329.105 25.5196 329 25.2652 329 25V9C329 8.73478 329.105 8.48043 329.293 8.29289C329.48 8.10536 329.735 8 330 8H333Z" fill="#F5F5F5"/>
<rect y="328" width="390" height="88" fill="#F9F9F9"/>
<path d="M116.256 389L112.16 378.024H113.808L116.624 385.8C116.688 385.949 116.752 386.12 116.816 386.312C116.88 386.504 116.944 386.691 117.008 386.872C117.072 387.053 117.131 387.213 117.184 387.352H117.28C117.323 387.224 117.376 387.069 117.44 386.888C117.504 386.707 117.568 386.525 117.632 386.344C117.696 386.152 117.76 385.971 117.824 385.8L120.608 378.024H122.208L118.096 389H116.256ZM124.872 389.192C124.563 389.192 124.254 389.155 123.944 389.08C123.635 389.005 123.347 388.883 123.08 388.712C122.814 388.541 122.6 388.307 122.44 388.008C122.28 387.699 122.2 387.315 122.2 386.856C122.2 386.28 122.339 385.805 122.616 385.432C122.894 385.059 123.278 384.771 123.768 384.568C124.27 384.355 124.862 384.211 125.544 384.136C126.227 384.051 126.968 384.008 127.768 384.008V383.048C127.768 382.739 127.715 382.472 127.608 382.248C127.502 382.024 127.31 381.853 127.032 381.736C126.766 381.608 126.382 381.544 125.88 381.544C125.4 381.544 125.016 381.608 124.728 381.736C124.451 381.853 124.254 382.008 124.136 382.2C124.03 382.392 123.976 382.605 123.976 382.84V383.08H122.616C122.606 383.027 122.6 382.973 122.6 382.92C122.6 382.867 122.6 382.803 122.6 382.728C122.6 382.216 122.739 381.789 123.016 381.448C123.304 381.096 123.704 380.835 124.216 380.664C124.728 380.483 125.315 380.392 125.976 380.392C126.68 380.392 127.267 380.493 127.736 380.696C128.216 380.899 128.574 381.187 128.808 381.56C129.054 381.933 129.176 382.381 129.176 382.904V387.464C129.176 387.667 129.224 387.811 129.32 387.896C129.416 387.971 129.534 388.008 129.672 388.008H130.296V388.936C130.147 389 129.982 389.053 129.8 389.096C129.619 389.149 129.411 389.176 129.176 389.176C128.899 389.176 128.67 389.117 128.488 389C128.307 388.893 128.168 388.744 128.072 388.552C127.976 388.349 127.912 388.125 127.88 387.88H127.768C127.576 388.147 127.331 388.381 127.032 388.584C126.744 388.776 126.419 388.925 126.056 389.032C125.694 389.139 125.299 389.192 124.872 389.192ZM125.224 388.008C125.566 388.008 125.886 387.955 126.184 387.848C126.494 387.741 126.766 387.592 127 387.4C127.235 387.197 127.422 386.957 127.56 386.68C127.699 386.403 127.768 386.099 127.768 385.768V385.064C126.904 385.064 126.168 385.112 125.56 385.208C124.952 385.304 124.483 385.475 124.152 385.72C123.832 385.965 123.672 386.312 123.672 386.76C123.672 387.048 123.736 387.283 123.864 387.464C123.992 387.645 124.174 387.784 124.408 387.88C124.643 387.965 124.915 388.008 125.224 388.008ZM131.479 389V380.584H132.615L132.743 381.848H132.855C133.068 381.507 133.308 381.229 133.575 381.016C133.842 380.803 134.135 380.648 134.455 380.552C134.775 380.445 135.122 380.392 135.495 380.392C136.039 380.392 136.508 380.504 136.903 380.728C137.298 380.941 137.591 381.315 137.783 381.848H137.879C138.082 381.507 138.316 381.235 138.583 381.032C138.85 380.819 139.148 380.659 139.479 380.552C139.81 380.445 140.162 380.392 140.535 380.392C141.047 380.392 141.495 380.483 141.879 380.664C142.263 380.835 142.562 381.123 142.775 381.528C142.999 381.923 143.111 382.456 143.111 383.128V389H141.703V383.352C141.703 383.011 141.66 382.728 141.575 382.504C141.5 382.28 141.388 382.109 141.239 381.992C141.09 381.864 140.914 381.773 140.711 381.72C140.519 381.667 140.311 381.64 140.087 381.64C139.714 381.64 139.367 381.736 139.047 381.928C138.738 382.12 138.487 382.397 138.295 382.76C138.103 383.123 138.007 383.555 138.007 384.056V389H136.599V383.352C136.599 383.011 136.556 382.728 136.471 382.504C136.386 382.28 136.274 382.109 136.135 381.992C135.996 381.864 135.826 381.773 135.623 381.72C135.431 381.667 135.228 381.64 135.015 381.64C134.631 381.64 134.274 381.736 133.943 381.928C133.623 382.12 133.367 382.397 133.175 382.76C132.983 383.123 132.887 383.555 132.887 384.056V389H131.479ZM148.701 389.192C147.847 389.192 147.127 389.037 146.541 388.728C145.965 388.408 145.522 387.923 145.213 387.272C144.914 386.621 144.765 385.795 144.765 384.792C144.765 383.779 144.914 382.952 145.213 382.312C145.522 381.661 145.965 381.181 146.541 380.872C147.127 380.552 147.847 380.392 148.701 380.392C149.554 380.392 150.269 380.552 150.845 380.872C151.431 381.181 151.874 381.661 152.173 382.312C152.471 382.952 152.621 383.779 152.621 384.792C152.621 385.795 152.471 386.621 152.173 387.272C151.874 387.923 151.431 388.408 150.845 388.728C150.269 389.037 149.554 389.192 148.701 389.192ZM148.701 388.008C149.245 388.008 149.698 387.901 150.061 387.688C150.423 387.475 150.695 387.144 150.877 386.696C151.069 386.237 151.165 385.661 151.165 384.968V384.616C151.165 383.912 151.069 383.336 150.877 382.888C150.695 382.44 150.423 382.109 150.061 381.896C149.698 381.683 149.245 381.576 148.701 381.576C148.157 381.576 147.698 381.683 147.325 381.896C146.962 382.109 146.69 382.44 146.509 382.888C146.327 383.336 146.237 383.912 146.237 384.616V384.968C146.237 385.661 146.327 386.237 146.509 386.696C146.69 387.144 146.962 387.475 147.325 387.688C147.698 387.901 148.157 388.008 148.701 388.008ZM157.314 389.192C156.738 389.192 156.231 389.133 155.794 389.016C155.356 388.899 154.994 388.728 154.706 388.504C154.418 388.28 154.199 388.013 154.05 387.704C153.9 387.395 153.826 387.043 153.826 386.648C153.826 386.595 153.826 386.547 153.826 386.504C153.826 386.451 153.831 386.408 153.842 386.376H155.234C155.223 386.419 155.218 386.456 155.218 386.488C155.218 386.52 155.218 386.552 155.218 386.584C155.228 386.957 155.324 387.251 155.506 387.464C155.698 387.677 155.959 387.827 156.29 387.912C156.62 387.997 156.988 388.04 157.394 388.04C157.746 388.04 158.071 387.997 158.37 387.912C158.668 387.816 158.903 387.677 159.074 387.496C159.255 387.304 159.346 387.064 159.346 386.776C159.346 386.424 159.228 386.157 158.994 385.976C158.77 385.784 158.471 385.635 158.098 385.528C157.724 385.421 157.335 385.309 156.93 385.192C156.588 385.096 156.247 384.989 155.906 384.872C155.564 384.755 155.255 384.611 154.978 384.44C154.711 384.269 154.492 384.051 154.322 383.784C154.162 383.507 154.082 383.16 154.082 382.744C154.082 382.371 154.156 382.04 154.306 381.752C154.466 381.464 154.69 381.219 154.978 381.016C155.266 380.813 155.612 380.664 156.018 380.568C156.434 380.461 156.892 380.408 157.394 380.408C157.927 380.408 158.391 380.467 158.786 380.584C159.191 380.701 159.527 380.867 159.794 381.08C160.06 381.293 160.258 381.539 160.386 381.816C160.514 382.083 160.578 382.371 160.578 382.68C160.578 382.744 160.578 382.808 160.578 382.872C160.578 382.925 160.572 382.968 160.562 383H159.186V382.824C159.186 382.611 159.127 382.408 159.01 382.216C158.903 382.013 158.711 381.853 158.434 381.736C158.167 381.608 157.794 381.544 157.314 381.544C157.004 381.544 156.738 381.571 156.514 381.624C156.29 381.667 156.103 381.741 155.954 381.848C155.804 381.944 155.692 382.061 155.618 382.2C155.543 382.328 155.506 382.477 155.506 382.648C155.506 382.925 155.596 383.139 155.778 383.288C155.959 383.437 156.199 383.56 156.498 383.656C156.807 383.752 157.138 383.859 157.49 383.976C157.863 384.083 158.242 384.195 158.626 384.312C159.02 384.419 159.378 384.557 159.698 384.728C160.028 384.899 160.29 385.133 160.482 385.432C160.684 385.72 160.786 386.104 160.786 386.584C160.786 387.032 160.7 387.421 160.53 387.752C160.359 388.083 160.114 388.355 159.794 388.568C159.484 388.781 159.116 388.936 158.69 389.032C158.274 389.139 157.815 389.192 157.314 389.192ZM169.07 389.192C168.259 389.192 167.576 389.037 167.022 388.728C166.478 388.408 166.062 387.923 165.774 387.272C165.496 386.611 165.358 385.784 165.358 384.792C165.358 383.8 165.496 382.979 165.774 382.328C166.062 381.677 166.483 381.192 167.038 380.872C167.603 380.552 168.296 380.392 169.118 380.392C169.694 380.392 170.19 380.467 170.606 380.616C171.032 380.765 171.384 380.984 171.662 381.272C171.939 381.56 172.142 381.907 172.27 382.312C172.408 382.717 172.478 383.181 172.478 383.704H171.054C171.054 383.213 170.984 382.813 170.846 382.504C170.718 382.184 170.51 381.949 170.222 381.8C169.934 381.64 169.555 381.56 169.086 381.56C168.616 381.56 168.211 381.667 167.87 381.88C167.528 382.083 167.267 382.408 167.086 382.856C166.904 383.304 166.814 383.896 166.814 384.632V384.968C166.814 385.661 166.899 386.237 167.07 386.696C167.251 387.155 167.512 387.491 167.854 387.704C168.195 387.917 168.611 388.024 169.102 388.024C169.582 388.024 169.966 387.939 170.254 387.768C170.552 387.597 170.766 387.352 170.894 387.032C171.032 386.712 171.102 386.328 171.102 385.88H172.478C172.478 386.349 172.408 386.787 172.27 387.192C172.142 387.597 171.939 387.949 171.662 388.248C171.384 388.547 171.032 388.781 170.606 388.952C170.179 389.112 169.667 389.192 169.07 389.192ZM177.623 389.192C176.769 389.192 176.049 389.037 175.463 388.728C174.887 388.408 174.444 387.923 174.135 387.272C173.836 386.621 173.687 385.795 173.687 384.792C173.687 383.779 173.836 382.952 174.135 382.312C174.444 381.661 174.887 381.181 175.463 380.872C176.049 380.552 176.769 380.392 177.623 380.392C178.476 380.392 179.191 380.552 179.767 380.872C180.353 381.181 180.796 381.661 181.095 382.312C181.393 382.952 181.543 383.779 181.543 384.792C181.543 385.795 181.393 386.621 181.095 387.272C180.796 387.923 180.353 388.408 179.767 388.728C179.191 389.037 178.476 389.192 177.623 389.192ZM177.623 388.008C178.167 388.008 178.62 387.901 178.983 387.688C179.345 387.475 179.617 387.144 179.799 386.696C179.991 386.237 180.087 385.661 180.087 384.968V384.616C180.087 383.912 179.991 383.336 179.799 382.888C179.617 382.44 179.345 382.109 178.983 381.896C178.62 381.683 178.167 381.576 177.623 381.576C177.079 381.576 176.62 381.683 176.247 381.896C175.884 382.109 175.612 382.44 175.431 382.888C175.249 383.336 175.159 383.912 175.159 384.616V384.968C175.159 385.661 175.249 386.237 175.431 386.696C175.612 387.144 175.884 387.475 176.247 387.688C176.62 387.901 177.079 388.008 177.623 388.008ZM183.292 389V380.584H184.428L184.556 381.848H184.668C184.892 381.507 185.142 381.229 185.42 381.016C185.708 380.803 186.022 380.648 186.364 380.552C186.716 380.445 187.089 380.392 187.484 380.392C188.017 380.392 188.481 380.483 188.876 380.664C189.281 380.845 189.596 381.139 189.82 381.544C190.054 381.949 190.172 382.499 190.172 383.192V389H188.764V383.384C188.764 383.032 188.716 382.744 188.62 382.52C188.534 382.296 188.412 382.12 188.252 381.992C188.102 381.864 187.916 381.773 187.692 381.72C187.478 381.667 187.238 381.64 186.972 381.64C186.577 381.64 186.204 381.736 185.852 381.928C185.5 382.12 185.217 382.397 185.004 382.76C184.801 383.123 184.7 383.555 184.7 384.056V389H183.292ZM194.531 389L191.411 380.584H192.883L194.419 384.792C194.494 384.995 194.579 385.251 194.675 385.56C194.771 385.859 194.867 386.168 194.963 386.488C195.07 386.797 195.155 387.075 195.219 387.32H195.299C195.374 387.085 195.459 386.813 195.555 386.504C195.651 386.184 195.747 385.875 195.843 385.576C195.95 385.267 196.04 385.005 196.115 384.792L197.635 380.584H199.059L195.939 389H194.531ZM203.652 389.192C202.82 389.192 202.116 389.037 201.539 388.728C200.974 388.408 200.542 387.923 200.243 387.272C199.956 386.621 199.812 385.795 199.812 384.792C199.812 383.779 199.956 382.952 200.243 382.312C200.542 381.661 200.98 381.181 201.556 380.872C202.132 380.552 202.852 380.392 203.716 380.392C204.505 380.392 205.166 380.547 205.7 380.856C206.233 381.155 206.633 381.608 206.9 382.216C207.177 382.813 207.316 383.565 207.316 384.472V385.144H201.268C201.289 385.816 201.385 386.371 201.556 386.808C201.737 387.235 202.004 387.549 202.356 387.752C202.708 387.944 203.15 388.04 203.684 388.04C204.046 388.04 204.361 387.997 204.628 387.912C204.905 387.816 205.134 387.683 205.316 387.512C205.508 387.341 205.652 387.139 205.748 386.904C205.844 386.669 205.897 386.413 205.908 386.136H207.284C207.273 386.584 207.188 387 207.028 387.384C206.868 387.757 206.633 388.077 206.324 388.344C206.014 388.611 205.636 388.819 205.188 388.968C204.74 389.117 204.228 389.192 203.652 389.192ZM201.299 384.088H205.86C205.86 383.619 205.806 383.224 205.7 382.904C205.593 382.584 205.438 382.323 205.236 382.12C205.044 381.917 204.814 381.773 204.548 381.688C204.292 381.592 203.998 381.544 203.668 381.544C203.177 381.544 202.761 381.635 202.42 381.816C202.078 381.997 201.817 382.275 201.636 382.648C201.454 383.021 201.342 383.501 201.299 384.088ZM209.057 389V380.584H210.193L210.321 381.976H210.433C210.518 381.709 210.636 381.459 210.785 381.224C210.934 380.979 211.137 380.781 211.393 380.632C211.649 380.472 211.964 380.392 212.337 380.392C212.497 380.392 212.641 380.408 212.769 380.44C212.908 380.461 213.009 380.488 213.073 380.52V381.816H212.545C212.182 381.816 211.868 381.88 211.601 382.008C211.345 382.125 211.132 382.296 210.961 382.52C210.79 382.744 210.662 383.011 210.577 383.32C210.502 383.629 210.465 383.96 210.465 384.312V389H209.057ZM217.314 389.192C216.738 389.192 216.231 389.133 215.794 389.016C215.356 388.899 214.994 388.728 214.706 388.504C214.418 388.28 214.199 388.013 214.05 387.704C213.9 387.395 213.826 387.043 213.826 386.648C213.826 386.595 213.826 386.547 213.826 386.504C213.826 386.451 213.831 386.408 213.842 386.376H215.234C215.223 386.419 215.218 386.456 215.218 386.488C215.218 386.52 215.218 386.552 215.218 386.584C215.228 386.957 215.324 387.251 215.506 387.464C215.698 387.677 215.959 387.827 216.29 387.912C216.62 387.997 216.988 388.04 217.394 388.04C217.746 388.04 218.071 387.997 218.37 387.912C218.668 387.816 218.903 387.677 219.074 387.496C219.255 387.304 219.346 387.064 219.346 386.776C219.346 386.424 219.228 386.157 218.994 385.976C218.77 385.784 218.471 385.635 218.098 385.528C217.724 385.421 217.335 385.309 216.93 385.192C216.588 385.096 216.247 384.989 215.906 384.872C215.564 384.755 215.255 384.611 214.978 384.44C214.711 384.269 214.492 384.051 214.322 383.784C214.162 383.507 214.082 383.16 214.082 382.744C214.082 382.371 214.156 382.04 214.306 381.752C214.466 381.464 214.69 381.219 214.978 381.016C215.266 380.813 215.612 380.664 216.018 380.568C216.434 380.461 216.892 380.408 217.394 380.408C217.927 380.408 218.391 380.467 218.786 380.584C219.191 380.701 219.527 380.867 219.794 381.08C220.06 381.293 220.258 381.539 220.386 381.816C220.514 382.083 220.578 382.371 220.578 382.68C220.578 382.744 220.578 382.808 220.578 382.872C220.578 382.925 220.572 382.968 220.562 383H219.186V382.824C219.186 382.611 219.127 382.408 219.01 382.216C218.903 382.013 218.711 381.853 218.434 381.736C218.167 381.608 217.794 381.544 217.314 381.544C217.004 381.544 216.738 381.571 216.514 381.624C216.29 381.667 216.103 381.741 215.954 381.848C215.804 381.944 215.692 382.061 215.618 382.2C215.543 382.328 215.506 382.477 215.506 382.648C215.506 382.925 215.596 383.139 215.778 383.288C215.959 383.437 216.199 383.56 216.498 383.656C216.807 383.752 217.138 383.859 217.49 383.976C217.863 384.083 218.242 384.195 218.626 384.312C219.02 384.419 219.378 384.557 219.698 384.728C220.028 384.899 220.29 385.133 220.482 385.432C220.684 385.72 220.786 386.104 220.786 386.584C220.786 387.032 220.7 387.421 220.53 387.752C220.359 388.083 220.114 388.355 219.794 388.568C219.484 388.781 219.116 388.936 218.69 389.032C218.274 389.139 217.815 389.192 217.314 389.192ZM224.638 389.192C224.329 389.192 224.019 389.155 223.71 389.08C223.401 389.005 223.113 388.883 222.846 388.712C222.579 388.541 222.366 388.307 222.206 388.008C222.046 387.699 221.966 387.315 221.966 386.856C221.966 386.28 222.105 385.805 222.382 385.432C222.659 385.059 223.043 384.771 223.534 384.568C224.035 384.355 224.627 384.211 225.31 384.136C225.993 384.051 226.734 384.008 227.534 384.008V383.048C227.534 382.739 227.481 382.472 227.374 382.248C227.267 382.024 227.075 381.853 226.798 381.736C226.531 381.608 226.147 381.544 225.646 381.544C225.166 381.544 224.782 381.608 224.494 381.736C224.217 381.853 224.019 382.008 223.902 382.2C223.795 382.392 223.742 382.605 223.742 382.84V383.08H222.382C222.371 383.027 222.366 382.973 222.366 382.92C222.366 382.867 222.366 382.803 222.366 382.728C222.366 382.216 222.505 381.789 222.782 381.448C223.07 381.096 223.47 380.835 223.982 380.664C224.494 380.483 225.081 380.392 225.742 380.392C226.446 380.392 227.033 380.493 227.502 380.696C227.982 380.899 228.339 381.187 228.574 381.56C228.819 381.933 228.942 382.381 228.942 382.904V387.464C228.942 387.667 228.99 387.811 229.086 387.896C229.182 387.971 229.299 388.008 229.438 388.008H230.062V388.936C229.913 389 229.747 389.053 229.566 389.096C229.385 389.149 229.177 389.176 228.942 389.176C228.665 389.176 228.435 389.117 228.254 389C228.073 388.893 227.934 388.744 227.838 388.552C227.742 388.349 227.678 388.125 227.646 387.88H227.534C227.342 388.147 227.097 388.381 226.798 388.584C226.51 388.776 226.185 388.925 225.822 389.032C225.459 389.139 225.065 389.192 224.638 389.192ZM224.99 388.008C225.331 388.008 225.651 387.955 225.95 387.848C226.259 387.741 226.531 387.592 226.766 387.4C227.001 387.197 227.187 386.957 227.326 386.68C227.465 386.403 227.534 386.099 227.534 385.768V385.064C226.67 385.064 225.934 385.112 225.326 385.208C224.718 385.304 224.249 385.475 223.918 385.72C223.598 385.965 223.438 386.312 223.438 386.76C223.438 387.048 223.502 387.283 223.63 387.464C223.758 387.645 223.939 387.784 224.174 387.88C224.409 387.965 224.681 388.008 224.99 388.008ZM231.245 389V380.584H232.381L232.509 381.976H232.621C232.706 381.709 232.823 381.459 232.973 381.224C233.122 380.979 233.325 380.781 233.581 380.632C233.837 380.472 234.151 380.392 234.525 380.392C234.685 380.392 234.829 380.408 234.957 380.44C235.095 380.461 235.197 380.488 235.261 380.52V381.816H234.733C234.37 381.816 234.055 381.88 233.789 382.008C233.533 382.125 233.319 382.296 233.149 382.52C232.978 382.744 232.85 383.011 232.765 383.32C232.69 383.629 232.653 383.96 232.653 384.312V389H231.245ZM237.181 386.104L236.797 378.024H238.477L238.093 386.104H237.181ZM236.861 389V387.32H238.429V389H236.861Z" fill="#6B6A6A"/>
<path d="M119.66 358.24C118.233 358.24 117.013 357.993 116 357.5C114.987 356.993 114.213 356.213 113.68 355.16C113.16 354.107 112.9 352.767 112.9 351.14C112.9 348.74 113.487 346.96 114.66 345.8C115.847 344.627 117.513 344.04 119.66 344.04C120.833 344.04 121.887 344.24 122.82 344.64C123.753 345.04 124.487 345.64 125.02 346.44C125.567 347.24 125.84 348.247 125.84 349.46H122.84C122.84 348.82 122.707 348.28 122.44 347.84C122.187 347.4 121.82 347.067 121.34 346.84C120.873 346.6 120.327 346.48 119.7 346.48C118.847 346.48 118.14 346.647 117.58 346.98C117.033 347.313 116.627 347.807 116.36 348.46C116.107 349.1 115.98 349.887 115.98 350.82V351.44C115.98 352.4 116.113 353.207 116.38 353.86C116.647 354.5 117.047 354.987 117.58 355.32C118.127 355.64 118.827 355.8 119.68 355.8C120.347 355.8 120.927 355.687 121.42 355.46C121.913 355.233 122.293 354.9 122.56 354.46C122.827 354.02 122.96 353.48 122.96 352.84H125.84C125.84 354.053 125.573 355.06 125.04 355.86C124.52 356.66 123.793 357.26 122.86 357.66C121.927 358.047 120.86 358.24 119.66 358.24ZM130.728 358.24C130.381 358.24 130.008 358.2 129.608 358.12C129.221 358.04 128.855 357.9 128.508 357.7C128.161 357.487 127.875 357.187 127.648 356.8C127.435 356.4 127.328 355.893 127.328 355.28C127.328 354.547 127.488 353.94 127.808 353.46C128.128 352.98 128.581 352.607 129.168 352.34C129.768 352.06 130.481 351.867 131.308 351.76C132.135 351.653 133.048 351.6 134.048 351.6V350.82C134.048 350.513 133.995 350.247 133.888 350.02C133.795 349.793 133.621 349.613 133.368 349.48C133.128 349.347 132.788 349.28 132.348 349.28C131.908 349.28 131.548 349.333 131.268 349.44C131.001 349.547 130.808 349.687 130.688 349.86C130.581 350.02 130.528 350.2 130.528 350.4V350.64H127.828C127.815 350.573 127.808 350.513 127.808 350.46C127.808 350.393 127.808 350.313 127.808 350.22C127.808 349.607 127.995 349.08 128.368 348.64C128.741 348.187 129.268 347.84 129.948 347.6C130.628 347.36 131.421 347.24 132.328 347.24C133.301 347.24 134.115 347.367 134.768 347.62C135.435 347.873 135.941 348.247 136.288 348.74C136.648 349.233 136.828 349.853 136.828 350.6V355.38C136.828 355.62 136.895 355.8 137.028 355.92C137.175 356.027 137.335 356.08 137.508 356.08H138.168V357.9C138.035 357.967 137.828 358.033 137.548 358.1C137.268 358.18 136.928 358.22 136.528 358.22C136.141 358.22 135.795 358.16 135.488 358.04C135.195 357.933 134.948 357.78 134.748 357.58C134.548 357.367 134.408 357.113 134.328 356.82H134.188C133.961 357.1 133.681 357.347 133.348 357.56C133.028 357.773 132.648 357.94 132.208 358.06C131.781 358.18 131.288 358.24 130.728 358.24ZM131.668 356.14C132.041 356.14 132.375 356.087 132.668 355.98C132.961 355.86 133.208 355.707 133.408 355.52C133.608 355.32 133.761 355.08 133.868 354.8C133.988 354.52 134.048 354.22 134.048 353.9V353.32C133.301 353.32 132.635 353.373 132.048 353.48C131.461 353.573 130.995 353.74 130.648 353.98C130.315 354.22 130.148 354.553 130.148 354.98C130.148 355.22 130.208 355.427 130.328 355.6C130.448 355.773 130.621 355.907 130.848 356C131.075 356.093 131.348 356.14 131.668 356.14ZM139.55 358V347.48H141.85L142.07 349.12H142.21C142.343 348.773 142.516 348.46 142.73 348.18C142.943 347.887 143.21 347.653 143.53 347.48C143.85 347.307 144.223 347.22 144.65 347.22C144.876 347.22 145.083 347.247 145.27 347.3C145.456 347.34 145.596 347.38 145.69 347.42V349.94H144.83C144.416 349.94 144.05 350 143.73 350.12C143.423 350.227 143.163 350.4 142.95 350.64C142.736 350.88 142.576 351.173 142.47 351.52C142.376 351.867 142.33 352.273 142.33 352.74V358H139.55ZM147.147 358V343.54H149.927V358H147.147ZM157.319 358.24C156.173 358.24 155.199 358.047 154.399 357.66C153.599 357.26 152.993 356.653 152.579 355.84C152.166 355.013 151.959 353.98 151.959 352.74C151.959 351.473 152.166 350.44 152.579 349.64C152.993 348.827 153.599 348.227 154.399 347.84C155.199 347.44 156.173 347.24 157.319 347.24C158.493 347.24 159.473 347.44 160.259 347.84C161.059 348.227 161.666 348.827 162.079 349.64C162.493 350.44 162.699 351.473 162.699 352.74C162.699 353.98 162.493 355.013 162.079 355.84C161.666 356.653 161.059 357.26 160.259 357.66C159.473 358.047 158.493 358.24 157.319 358.24ZM157.319 356.08C157.933 356.08 158.419 355.967 158.779 355.74C159.153 355.513 159.426 355.167 159.599 354.7C159.773 354.233 159.859 353.66 159.859 352.98V352.5C159.859 351.82 159.773 351.247 159.599 350.78C159.426 350.313 159.153 349.967 158.779 349.74C158.419 349.5 157.933 349.38 157.319 349.38C156.719 349.38 156.233 349.5 155.859 349.74C155.499 349.967 155.233 350.313 155.059 350.78C154.886 351.247 154.799 351.82 154.799 352.5V352.98C154.799 353.66 154.886 354.233 155.059 354.7C155.233 355.167 155.499 355.513 155.859 355.74C156.233 355.967 156.719 356.08 157.319 356.08ZM169.005 358.24C168.272 358.24 167.612 358.16 167.025 358C166.438 357.84 165.938 357.62 165.525 357.34C165.112 357.047 164.792 356.7 164.565 356.3C164.352 355.9 164.245 355.447 164.245 354.94C164.245 354.887 164.245 354.833 164.245 354.78C164.245 354.727 164.252 354.687 164.265 354.66H166.945C166.945 354.687 166.945 354.713 166.945 354.74C166.945 354.767 166.945 354.793 166.945 354.82C166.958 355.153 167.065 355.427 167.265 355.64C167.465 355.84 167.725 355.987 168.045 356.08C168.378 356.173 168.725 356.22 169.085 356.22C169.405 356.22 169.712 356.193 170.005 356.14C170.312 356.073 170.565 355.96 170.765 355.8C170.978 355.64 171.085 355.433 171.085 355.18C171.085 354.86 170.952 354.613 170.685 354.44C170.432 354.267 170.092 354.127 169.665 354.02C169.252 353.913 168.798 353.793 168.305 353.66C167.852 353.553 167.398 353.433 166.945 353.3C166.492 353.153 166.078 352.967 165.705 352.74C165.345 352.513 165.052 352.22 164.825 351.86C164.598 351.487 164.485 351.02 164.485 350.46C164.485 349.913 164.605 349.44 164.845 349.04C165.085 348.627 165.412 348.287 165.825 348.02C166.252 347.753 166.745 347.56 167.305 347.44C167.878 347.307 168.492 347.24 169.145 347.24C169.758 347.24 170.332 347.307 170.865 347.44C171.398 347.56 171.865 347.747 172.265 348C172.665 348.24 172.978 348.547 173.205 348.92C173.432 349.28 173.545 349.687 173.545 350.14C173.545 350.233 173.545 350.32 173.545 350.4C173.545 350.48 173.538 350.533 173.525 350.56H170.865V350.4C170.865 350.16 170.792 349.96 170.645 349.8C170.498 349.627 170.285 349.493 170.005 349.4C169.738 349.307 169.412 349.26 169.025 349.26C168.758 349.26 168.512 349.28 168.285 349.32C168.072 349.36 167.885 349.42 167.725 349.5C167.565 349.58 167.438 349.68 167.345 349.8C167.265 349.907 167.225 350.04 167.225 350.2C167.225 350.427 167.318 350.613 167.505 350.76C167.705 350.893 167.965 351.007 168.285 351.1C168.605 351.193 168.958 351.293 169.345 351.4C169.825 351.533 170.325 351.667 170.845 351.8C171.378 351.92 171.872 352.087 172.325 352.3C172.778 352.513 173.145 352.82 173.425 353.22C173.705 353.607 173.845 354.133 173.845 354.8C173.845 355.44 173.718 355.98 173.465 356.42C173.225 356.86 172.885 357.213 172.445 357.48C172.005 357.747 171.492 357.94 170.905 358.06C170.318 358.18 169.685 358.24 169.005 358.24Z" fill="#010101"/>

<path d="M137.376 304V293.024H143.04C143.669 293.024 144.213 293.136 144.672 293.36C145.131 293.573 145.483 293.877 145.728 294.272C145.984 294.667 146.112 295.136 146.112 295.68C146.112 296.096 146.037 296.48 145.888 296.832C145.739 297.184 145.531 297.477 145.264 297.712C144.997 297.947 144.693 298.123 144.352 298.24V298.304C144.736 298.389 145.083 298.544 145.392 298.768C145.701 298.992 145.947 299.291 146.128 299.664C146.32 300.027 146.416 300.475 146.416 301.008C146.416 301.723 146.267 302.299 145.968 302.736C145.669 303.173 145.269 303.493 144.768 303.696C144.267 303.899 143.691 304 143.04 304H137.376ZM138.896 302.688H143.024C143.568 302.688 144.011 302.549 144.352 302.272C144.693 301.984 144.864 301.509 144.864 300.848C144.864 300.443 144.789 300.107 144.64 299.84C144.491 299.563 144.272 299.36 143.984 299.232C143.696 299.093 143.333 299.024 142.896 299.024H138.896V302.688ZM138.896 297.728H142.752C143.115 297.728 143.429 297.659 143.696 297.52C143.963 297.371 144.171 297.168 144.32 296.912C144.48 296.645 144.56 296.347 144.56 296.016C144.56 295.44 144.405 295.019 144.096 294.752C143.787 294.475 143.376 294.336 142.864 294.336H138.896V297.728ZM151.732 304.192C150.879 304.192 150.159 304.037 149.572 303.728C148.996 303.408 148.553 302.923 148.244 302.272C147.945 301.621 147.796 300.795 147.796 299.792C147.796 298.779 147.945 297.952 148.244 297.312C148.553 296.661 148.996 296.181 149.572 295.872C150.159 295.552 150.879 295.392 151.732 295.392C152.585 295.392 153.3 295.552 153.876 295.872C154.463 296.181 154.905 296.661 155.204 297.312C155.503 297.952 155.652 298.779 155.652 299.792C155.652 300.795 155.503 301.621 155.204 302.272C154.905 302.923 154.463 303.408 153.876 303.728C153.3 304.037 152.585 304.192 151.732 304.192ZM151.732 303.008C152.276 303.008 152.729 302.901 153.092 302.688C153.455 302.475 153.727 302.144 153.908 301.696C154.1 301.237 154.196 300.661 154.196 299.968V299.616C154.196 298.912 154.1 298.336 153.908 297.888C153.727 297.44 153.455 297.109 153.092 296.896C152.729 296.683 152.276 296.576 151.732 296.576C151.188 296.576 150.729 296.683 150.356 296.896C149.993 297.109 149.721 297.44 149.54 297.888C149.359 298.336 149.268 298.912 149.268 299.616V299.968C149.268 300.661 149.359 301.237 149.54 301.696C149.721 302.144 149.993 302.475 150.356 302.688C150.729 302.901 151.188 303.008 151.732 303.008ZM157.401 304V295.584H158.537L158.665 296.848H158.777C158.99 296.507 159.23 296.229 159.497 296.016C159.764 295.803 160.057 295.648 160.377 295.552C160.697 295.445 161.044 295.392 161.417 295.392C161.961 295.392 162.43 295.504 162.825 295.728C163.22 295.941 163.513 296.315 163.705 296.848H163.801C164.004 296.507 164.238 296.235 164.505 296.032C164.772 295.819 165.07 295.659 165.401 295.552C165.732 295.445 166.084 295.392 166.457 295.392C166.969 295.392 167.417 295.483 167.801 295.664C168.185 295.835 168.484 296.123 168.697 296.528C168.921 296.923 169.033 297.456 169.033 298.128V304H167.625V298.352C167.625 298.011 167.582 297.728 167.497 297.504C167.422 297.28 167.31 297.109 167.161 296.992C167.012 296.864 166.836 296.773 166.633 296.72C166.441 296.667 166.233 296.64 166.009 296.64C165.636 296.64 165.289 296.736 164.969 296.928C164.66 297.12 164.409 297.397 164.217 297.76C164.025 298.123 163.929 298.555 163.929 299.056V304H162.521V298.352C162.521 298.011 162.478 297.728 162.393 297.504C162.308 297.28 162.196 297.109 162.057 296.992C161.918 296.864 161.748 296.773 161.545 296.72C161.353 296.667 161.15 296.64 160.937 296.64C160.553 296.64 160.196 296.736 159.865 296.928C159.545 297.12 159.289 297.397 159.097 297.76C158.905 298.123 158.809 298.555 158.809 299.056V304H157.401ZM177.374 304.192C176.681 304.192 176.084 304.037 175.582 303.728C175.092 303.419 174.708 302.939 174.43 302.288C174.164 301.627 174.03 300.773 174.03 299.728C174.03 298.736 174.169 297.92 174.446 297.28C174.724 296.64 175.108 296.165 175.598 295.856C176.089 295.547 176.66 295.392 177.31 295.392C177.684 295.392 178.03 295.435 178.35 295.52C178.67 295.605 178.953 295.739 179.198 295.92C179.454 296.101 179.678 296.341 179.87 296.64H179.966V292.432H181.374V304H180.238L180.11 302.8H179.998C179.71 303.269 179.337 303.621 178.878 303.856C178.42 304.08 177.918 304.192 177.374 304.192ZM177.71 302.96C178.244 302.96 178.676 302.843 179.006 302.608C179.337 302.373 179.577 302.032 179.726 301.584C179.886 301.136 179.966 300.581 179.966 299.92V299.664C179.966 299.088 179.908 298.603 179.79 298.208C179.673 297.813 179.513 297.499 179.31 297.264C179.108 297.029 178.873 296.864 178.606 296.768C178.34 296.672 178.057 296.624 177.758 296.624C177.236 296.624 176.809 296.731 176.478 296.944C176.148 297.147 175.902 297.472 175.742 297.92C175.582 298.357 175.502 298.928 175.502 299.632V299.968C175.502 300.693 175.588 301.28 175.758 301.728C175.929 302.165 176.174 302.48 176.494 302.672C176.825 302.864 177.23 302.96 177.71 302.96ZM183.588 294V292.432H184.996V294H183.588ZM183.588 304V295.584H184.996V304H183.588ZM189.294 304.192C188.985 304.192 188.675 304.155 188.366 304.08C188.057 304.005 187.769 303.883 187.502 303.712C187.235 303.541 187.022 303.307 186.862 303.008C186.702 302.699 186.622 302.315 186.622 301.856C186.622 301.28 186.761 300.805 187.038 300.432C187.315 300.059 187.699 299.771 188.19 299.568C188.691 299.355 189.283 299.211 189.966 299.136C190.649 299.051 191.39 299.008 192.19 299.008V298.048C192.19 297.739 192.137 297.472 192.03 297.248C191.923 297.024 191.731 296.853 191.454 296.736C191.187 296.608 190.803 296.544 190.302 296.544C189.822 296.544 189.438 296.608 189.15 296.736C188.873 296.853 188.675 297.008 188.558 297.2C188.451 297.392 188.398 297.605 188.398 297.84V298.08H187.038C187.027 298.027 187.022 297.973 187.022 297.92C187.022 297.867 187.022 297.803 187.022 297.728C187.022 297.216 187.161 296.789 187.438 296.448C187.726 296.096 188.126 295.835 188.638 295.664C189.15 295.483 189.737 295.392 190.398 295.392C191.102 295.392 191.689 295.493 192.158 295.696C192.638 295.899 192.995 296.187 193.23 296.56C193.475 296.933 193.598 297.381 193.598 297.904V302.464C193.598 302.667 193.646 302.811 193.742 302.896C193.838 302.971 193.955 303.008 194.094 303.008H194.718V303.936C194.569 304 194.403 304.053 194.222 304.096C194.041 304.149 193.833 304.176 193.598 304.176C193.321 304.176 193.091 304.117 192.91 304C192.729 303.893 192.59 303.744 192.494 303.552C192.398 303.349 192.334 303.125 192.302 302.88H192.19C191.998 303.147 191.753 303.381 191.454 303.584C191.166 303.776 190.841 303.925 190.478 304.032C190.115 304.139 189.721 304.192 189.294 304.192ZM189.646 303.008C189.987 303.008 190.307 302.955 190.606 302.848C190.915 302.741 191.187 302.592 191.422 302.4C191.657 302.197 191.843 301.957 191.982 301.68C192.121 301.403 192.19 301.099 192.19 300.768V300.064C191.326 300.064 190.59 300.112 189.982 300.208C189.374 300.304 188.905 300.475 188.574 300.72C188.254 300.965 188.094 301.312 188.094 301.76C188.094 302.048 188.158 302.283 188.286 302.464C188.414 302.645 188.595 302.784 188.83 302.88C189.065 302.965 189.337 303.008 189.646 303.008ZM196.525 301.104L196.141 293.024H197.821L197.437 301.104H196.525ZM196.205 304V302.32H197.773V304H196.205ZM206.58 304V294.352H202.82V293.024H211.892V294.352H208.1V304H206.58ZM214.806 304.192C213.995 304.192 213.344 303.984 212.854 303.568C212.363 303.152 212.118 302.427 212.118 301.392V295.584H213.526V301.2C213.526 301.552 213.568 301.84 213.654 302.064C213.739 302.288 213.862 302.464 214.022 302.592C214.182 302.72 214.368 302.811 214.582 302.864C214.806 302.917 215.046 302.944 215.302 302.944C215.707 302.944 216.08 302.848 216.422 302.656C216.763 302.464 217.04 302.187 217.254 301.824C217.478 301.451 217.59 301.019 217.59 300.528V295.584H218.998V304H217.862L217.734 302.736H217.622C217.398 303.077 217.142 303.355 216.854 303.568C216.576 303.781 216.262 303.936 215.91 304.032C215.568 304.139 215.2 304.192 214.806 304.192ZM224.046 304.192C223.353 304.192 222.755 304.037 222.254 303.728C221.763 303.419 221.379 302.939 221.102 302.288C220.835 301.627 220.702 300.773 220.702 299.728C220.702 298.736 220.841 297.92 221.118 297.28C221.395 296.64 221.779 296.165 222.27 295.856C222.761 295.547 223.331 295.392 223.982 295.392C224.355 295.392 224.702 295.435 225.022 295.52C225.342 295.605 225.625 295.739 225.87 295.92C226.126 296.101 226.35 296.341 226.542 296.64H226.638V292.432H228.046V304H226.91L226.782 302.8H226.67C226.382 303.269 226.009 303.621 225.55 303.856C225.091 304.08 224.59 304.192 224.046 304.192ZM224.382 302.96C224.915 302.96 225.347 302.843 225.678 302.608C226.009 302.373 226.249 302.032 226.398 301.584C226.558 301.136 226.638 300.581 226.638 299.92V299.664C226.638 299.088 226.579 298.603 226.462 298.208C226.345 297.813 226.185 297.499 225.982 297.264C225.779 297.029 225.545 296.864 225.278 296.768C225.011 296.672 224.729 296.624 224.43 296.624C223.907 296.624 223.481 296.731 223.15 296.944C222.819 297.147 222.574 297.472 222.414 297.92C222.254 298.357 222.174 298.928 222.174 299.632V299.968C222.174 300.693 222.259 301.28 222.43 301.728C222.601 302.165 222.846 302.48 223.166 302.672C223.497 302.864 223.902 302.96 224.382 302.96ZM233.716 304.192C232.863 304.192 232.143 304.037 231.556 303.728C230.98 303.408 230.538 302.923 230.228 302.272C229.93 301.621 229.78 300.795 229.78 299.792C229.78 298.779 229.93 297.952 230.228 297.312C230.538 296.661 230.98 296.181 231.556 295.872C232.143 295.552 232.863 295.392 233.716 295.392C234.57 295.392 235.284 295.552 235.86 295.872C236.447 296.181 236.89 296.661 237.188 297.312C237.487 297.952 237.636 298.779 237.636 299.792C237.636 300.795 237.487 301.621 237.188 302.272C236.89 302.923 236.447 303.408 235.86 303.728C235.284 304.037 234.57 304.192 233.716 304.192ZM233.716 303.008C234.26 303.008 234.714 302.901 235.076 302.688C235.439 302.475 235.711 302.144 235.892 301.696C236.084 301.237 236.18 300.661 236.18 299.968V299.616C236.18 298.912 236.084 298.336 235.892 297.888C235.711 297.44 235.439 297.109 235.076 296.896C234.714 296.683 234.26 296.576 233.716 296.576C233.172 296.576 232.714 296.683 232.34 296.896C231.978 297.109 231.706 297.44 231.524 297.888C231.343 298.336 231.252 298.912 231.252 299.616V299.968C231.252 300.661 231.343 301.237 231.524 301.696C231.706 302.144 231.978 302.475 232.34 302.688C232.714 302.901 233.172 303.008 233.716 303.008ZM246.729 304.192C246.164 304.192 245.657 304.08 245.209 303.856C244.761 303.621 244.393 303.269 244.105 302.8H243.993L243.849 304H242.729V292.432H244.137V296.64H244.233C244.425 296.341 244.649 296.101 244.905 295.92C245.161 295.739 245.449 295.605 245.769 295.52C246.089 295.435 246.43 295.392 246.793 295.392C247.444 295.392 248.014 295.547 248.505 295.856C248.996 296.165 249.374 296.64 249.641 297.28C249.918 297.92 250.057 298.736 250.057 299.728C250.057 300.773 249.924 301.627 249.657 302.288C249.39 302.939 249.012 303.419 248.521 303.728C248.03 304.037 247.433 304.192 246.729 304.192ZM246.393 302.96C246.873 302.96 247.273 302.864 247.593 302.672C247.924 302.48 248.174 302.165 248.345 301.728C248.516 301.28 248.601 300.693 248.601 299.968V299.632C248.601 298.928 248.521 298.357 248.361 297.92C248.201 297.472 247.956 297.147 247.625 296.944C247.294 296.731 246.868 296.624 246.345 296.624C246.046 296.624 245.764 296.672 245.497 296.768C245.23 296.864 244.99 297.029 244.777 297.264C244.574 297.499 244.414 297.813 244.297 298.208C244.19 298.603 244.137 299.088 244.137 299.664V299.92C244.137 300.581 244.212 301.136 244.361 301.584C244.521 302.032 244.766 302.373 245.097 302.608C245.438 302.843 245.87 302.96 246.393 302.96ZM255.167 304.192C254.335 304.192 253.631 304.037 253.055 303.728C252.49 303.408 252.058 302.923 251.759 302.272C251.471 301.621 251.327 300.795 251.327 299.792C251.327 298.779 251.471 297.952 251.759 297.312C252.058 296.661 252.495 296.181 253.071 295.872C253.647 295.552 254.367 295.392 255.231 295.392C256.02 295.392 256.682 295.547 257.215 295.856C257.748 296.155 258.148 296.608 258.415 297.216C258.692 297.813 258.831 298.565 258.831 299.472V300.144H252.783C252.804 300.816 252.9 301.371 253.071 301.808C253.252 302.235 253.519 302.549 253.871 302.752C254.223 302.944 254.666 303.04 255.199 303.04C255.562 303.04 255.876 302.997 256.143 302.912C256.42 302.816 256.65 302.683 256.831 302.512C257.023 302.341 257.167 302.139 257.263 301.904C257.359 301.669 257.412 301.413 257.423 301.136H258.799C258.788 301.584 258.703 302 258.543 302.384C258.383 302.757 258.148 303.077 257.839 303.344C257.53 303.611 257.151 303.819 256.703 303.968C256.255 304.117 255.743 304.192 255.167 304.192ZM252.815 299.088H257.375C257.375 298.619 257.322 298.224 257.215 297.904C257.108 297.584 256.954 297.323 256.751 297.12C256.559 296.917 256.33 296.773 256.063 296.688C255.807 296.592 255.514 296.544 255.183 296.544C254.692 296.544 254.276 296.635 253.935 296.816C253.594 296.997 253.332 297.275 253.151 297.648C252.97 298.021 252.858 298.501 252.815 299.088ZM260.573 304V295.584H261.709L261.837 296.848H261.949C262.162 296.507 262.402 296.229 262.669 296.016C262.935 295.803 263.229 295.648 263.549 295.552C263.869 295.445 264.215 295.392 264.589 295.392C265.133 295.392 265.602 295.504 265.997 295.728C266.391 295.941 266.685 296.315 266.877 296.848H266.973C267.175 296.507 267.41 296.235 267.677 296.032C267.943 295.819 268.242 295.659 268.573 295.552C268.903 295.445 269.255 295.392 269.629 295.392C270.141 295.392 270.589 295.483 270.973 295.664C271.357 295.835 271.655 296.123 271.869 296.528C272.093 296.923 272.205 297.456 272.205 298.128V304H270.797V298.352C270.797 298.011 270.754 297.728 270.669 297.504C270.594 297.28 270.482 297.109 270.333 296.992C270.183 296.864 270.007 296.773 269.805 296.72C269.613 296.667 269.405 296.64 269.181 296.64C268.807 296.64 268.461 296.736 268.141 296.928C267.831 297.12 267.581 297.397 267.389 297.76C267.197 298.123 267.101 298.555 267.101 299.056V304H265.693V298.352C265.693 298.011 265.65 297.728 265.565 297.504C265.479 297.28 265.367 297.109 265.229 296.992C265.09 296.864 264.919 296.773 264.717 296.72C264.525 296.667 264.322 296.64 264.109 296.64C263.725 296.64 263.367 296.736 263.037 296.928C262.717 297.12 262.461 297.397 262.269 297.76C262.077 298.123 261.981 298.555 261.981 299.056V304H260.573ZM277.074 301.168V300.272C277.074 299.856 277.138 299.509 277.266 299.232C277.394 298.955 277.56 298.715 277.762 298.512C277.976 298.309 278.194 298.123 278.418 297.952C278.653 297.771 278.872 297.589 279.074 297.408C279.288 297.216 279.458 296.997 279.586 296.752C279.714 296.496 279.778 296.192 279.778 295.84C279.778 295.701 279.757 295.536 279.714 295.344C279.682 295.141 279.597 294.949 279.458 294.768C279.33 294.576 279.133 294.416 278.866 294.288C278.6 294.16 278.248 294.096 277.81 294.096C277.32 294.096 276.93 294.176 276.642 294.336C276.354 294.485 276.136 294.677 275.986 294.912C275.848 295.147 275.752 295.376 275.698 295.6C275.656 295.824 275.634 296.011 275.634 296.16C275.634 296.235 275.634 296.309 275.634 296.384C275.634 296.448 275.64 296.523 275.65 296.608H274.226C274.216 296.565 274.205 296.501 274.194 296.416C274.184 296.32 274.178 296.203 274.178 296.064C274.178 295.819 274.216 295.552 274.29 295.264C274.365 294.976 274.488 294.688 274.658 294.4C274.829 294.112 275.058 293.851 275.346 293.616C275.634 293.381 275.986 293.195 276.402 293.056C276.829 292.907 277.33 292.832 277.906 292.832C278.429 292.832 278.882 292.896 279.266 293.024C279.65 293.141 279.97 293.307 280.226 293.52C280.493 293.723 280.701 293.952 280.85 294.208C281.01 294.453 281.122 294.704 281.186 294.96C281.261 295.216 281.298 295.456 281.298 295.68C281.298 296.192 281.229 296.624 281.09 296.976C280.952 297.328 280.77 297.627 280.546 297.872C280.333 298.107 280.104 298.315 279.858 298.496C279.624 298.677 279.394 298.859 279.17 299.04C278.946 299.211 278.765 299.408 278.626 299.632C278.488 299.845 278.418 300.112 278.418 300.432V301.168H277.074ZM276.962 304V302.32H278.53V304H276.962Z" fill="#6B6A6A"/>
<path d="M328.072 272V270.8H330.84V263.2H328.056V262.304C328.451 262.272 328.856 262.213 329.272 262.128C329.699 262.043 330.115 261.909 330.52 261.728C330.925 261.536 331.293 261.291 331.624 260.992H332.264V270.8H334.872V272H328.072ZM339.936 272.192C339.338 272.192 338.805 272.107 338.336 271.936C337.866 271.755 337.466 271.451 337.136 271.024C336.805 270.587 336.554 270.005 336.384 269.28C336.213 268.544 336.128 267.621 336.128 266.512C336.128 265.403 336.213 264.485 336.384 263.76C336.554 263.024 336.805 262.443 337.136 262.016C337.466 261.579 337.866 261.275 338.336 261.104C338.805 260.923 339.338 260.832 339.936 260.832C340.533 260.832 341.061 260.923 341.52 261.104C341.989 261.275 342.389 261.579 342.72 262.016C343.05 262.443 343.301 263.024 343.472 263.76C343.642 264.485 343.728 265.403 343.728 266.512C343.728 267.621 343.642 268.544 343.472 269.28C343.301 270.005 343.05 270.587 342.72 271.024C342.389 271.451 341.989 271.755 341.52 271.936C341.061 272.107 340.533 272.192 339.936 272.192ZM339.936 271.008C340.544 271.008 341.013 270.853 341.344 270.544C341.685 270.235 341.92 269.776 342.048 269.168C342.186 268.56 342.256 267.803 342.256 266.896V266.16C342.256 265.243 342.186 264.48 342.048 263.872C341.92 263.253 341.685 262.789 341.344 262.48C341.013 262.171 340.544 262.016 339.936 262.016C339.328 262.016 338.853 262.171 338.512 262.48C338.17 262.789 337.93 263.248 337.792 263.856C337.664 264.464 337.6 265.227 337.6 266.144V266.864C337.6 267.771 337.664 268.533 337.792 269.152C337.93 269.771 338.17 270.235 338.512 270.544C338.853 270.853 339.328 271.008 339.936 271.008ZM346.1 265.264V263.584H347.668V265.264H346.1ZM346.1 272V270.32H347.668V272H346.1ZM350.322 272V270.8H353.09V263.2H350.306V262.304C350.701 262.272 351.106 262.213 351.522 262.128C351.949 262.043 352.365 261.909 352.77 261.728C353.175 261.536 353.543 261.291 353.874 260.992H354.514V270.8H357.122V272H350.322ZM362.234 272.192C361.466 272.192 360.794 272.048 360.218 271.76C359.642 271.472 359.194 271.061 358.874 270.528C358.554 269.984 358.394 269.339 358.394 268.592H359.818C359.818 269.093 359.924 269.525 360.138 269.888C360.351 270.251 360.639 270.528 361.002 270.72C361.375 270.912 361.786 271.008 362.234 271.008C362.692 271.008 363.098 270.917 363.45 270.736C363.802 270.544 364.074 270.256 364.266 269.872C364.468 269.488 364.57 269.003 364.57 268.416C364.57 267.883 364.479 267.445 364.298 267.104C364.116 266.752 363.855 266.491 363.514 266.32C363.183 266.149 362.799 266.064 362.362 266.064C362.042 266.064 361.738 266.117 361.45 266.224C361.162 266.32 360.9 266.459 360.666 266.64C360.442 266.821 360.255 267.045 360.106 267.312L358.778 267.104L359.242 261.024H365.466V262.336H360.474L360.218 265.76C360.399 265.6 360.602 265.456 360.826 265.328C361.06 265.189 361.327 265.083 361.626 265.008C361.924 264.923 362.266 264.88 362.65 264.88C363.279 264.88 363.85 265.003 364.362 265.248C364.874 265.493 365.279 265.872 365.578 266.384C365.876 266.896 366.026 267.557 366.026 268.368C366.026 269.168 365.871 269.856 365.562 270.432C365.263 271.008 364.831 271.445 364.266 271.744C363.7 272.043 363.023 272.192 362.234 272.192Z" fill="#999999"/>
<path d="M109.693 299.605L115.029 303.979L123.597 293.462L121.903 291.872L114.721 300.688L111.057 297.684L109.693 299.605ZM131.472 293.462L129.778 291.872L122.613 300.667L121.766 299.94L120.359 301.827L122.887 304L131.472 293.462Z" fill="#999999"/>
<rect y="149" width="390" height="88" fill="#C0C0C0"/>
<path d="M117.64 186.24C116.587 186.24 115.687 186.087 114.94 185.78C114.207 185.46 113.64 184.987 113.24 184.36C112.853 183.733 112.66 182.94 112.66 181.98V181.36H115.58V181.98C115.58 182.593 115.747 183.053 116.08 183.36C116.427 183.653 116.94 183.8 117.62 183.8C118.273 183.8 118.767 183.587 119.1 183.16C119.433 182.72 119.6 182.093 119.6 181.28V172.28H122.6V181.28C122.6 182.387 122.407 183.313 122.02 184.06C121.633 184.793 121.067 185.34 120.32 185.7C119.587 186.06 118.693 186.24 117.64 186.24ZM130.171 186.24C129.024 186.24 128.051 186.047 127.251 185.66C126.451 185.26 125.844 184.653 125.431 183.84C125.017 183.013 124.811 181.98 124.811 180.74C124.811 179.473 125.017 178.44 125.431 177.64C125.844 176.827 126.451 176.227 127.251 175.84C128.051 175.44 129.024 175.24 130.171 175.24C131.344 175.24 132.324 175.44 133.111 175.84C133.911 176.227 134.517 176.827 134.931 177.64C135.344 178.44 135.551 179.473 135.551 180.74C135.551 181.98 135.344 183.013 134.931 183.84C134.517 184.653 133.911 185.26 133.111 185.66C132.324 186.047 131.344 186.24 130.171 186.24ZM130.171 184.08C130.784 184.08 131.271 183.967 131.631 183.74C132.004 183.513 132.277 183.167 132.451 182.7C132.624 182.233 132.711 181.66 132.711 180.98V180.5C132.711 179.82 132.624 179.247 132.451 178.78C132.277 178.313 132.004 177.967 131.631 177.74C131.271 177.5 130.784 177.38 130.171 177.38C129.571 177.38 129.084 177.5 128.711 177.74C128.351 177.967 128.084 178.313 127.911 178.78C127.737 179.247 127.651 179.82 127.651 180.5V180.98C127.651 181.66 127.737 182.233 127.911 182.7C128.084 183.167 128.351 183.513 128.711 183.74C129.084 183.967 129.571 184.08 130.171 184.08ZM140.376 186.24C140.03 186.24 139.656 186.2 139.256 186.12C138.87 186.04 138.503 185.9 138.156 185.7C137.81 185.487 137.523 185.187 137.296 184.8C137.083 184.4 136.976 183.893 136.976 183.28C136.976 182.547 137.136 181.94 137.456 181.46C137.776 180.98 138.23 180.607 138.816 180.34C139.416 180.06 140.13 179.867 140.956 179.76C141.783 179.653 142.696 179.6 143.696 179.6V178.82C143.696 178.513 143.643 178.247 143.536 178.02C143.443 177.793 143.27 177.613 143.016 177.48C142.776 177.347 142.436 177.28 141.996 177.28C141.556 177.28 141.196 177.333 140.916 177.44C140.65 177.547 140.456 177.687 140.336 177.86C140.23 178.02 140.176 178.2 140.176 178.4V178.64H137.476C137.463 178.573 137.456 178.513 137.456 178.46C137.456 178.393 137.456 178.313 137.456 178.22C137.456 177.607 137.643 177.08 138.016 176.64C138.39 176.187 138.916 175.84 139.596 175.6C140.276 175.36 141.07 175.24 141.976 175.24C142.95 175.24 143.763 175.367 144.416 175.62C145.083 175.873 145.59 176.247 145.936 176.74C146.296 177.233 146.476 177.853 146.476 178.6V183.38C146.476 183.62 146.543 183.8 146.676 183.92C146.823 184.027 146.983 184.08 147.156 184.08H147.816V185.9C147.683 185.967 147.476 186.033 147.196 186.1C146.916 186.18 146.576 186.22 146.176 186.22C145.79 186.22 145.443 186.16 145.136 186.04C144.843 185.933 144.596 185.78 144.396 185.58C144.196 185.367 144.056 185.113 143.976 184.82H143.836C143.61 185.1 143.33 185.347 142.996 185.56C142.676 185.773 142.296 185.94 141.856 186.06C141.43 186.18 140.936 186.24 140.376 186.24ZM141.316 184.14C141.69 184.14 142.023 184.087 142.316 183.98C142.61 183.86 142.856 183.707 143.056 183.52C143.256 183.32 143.41 183.08 143.516 182.8C143.636 182.52 143.696 182.22 143.696 181.9V181.32C142.95 181.32 142.283 181.373 141.696 181.48C141.11 181.573 140.643 181.74 140.296 181.98C139.963 182.22 139.796 182.553 139.796 182.98C139.796 183.22 139.856 183.427 139.976 183.6C140.096 183.773 140.27 183.907 140.496 184C140.723 184.093 140.996 184.14 141.316 184.14ZM138.396 174C138.396 173.56 138.47 173.153 138.616 172.78C138.776 172.407 139.01 172.107 139.316 171.88C139.623 171.653 140.01 171.54 140.476 171.54C140.85 171.54 141.196 171.6 141.516 171.72C141.836 171.84 142.15 171.96 142.456 172.08C142.763 172.2 143.076 172.26 143.396 172.26C143.596 172.26 143.756 172.207 143.876 172.1C144.01 171.98 144.096 171.793 144.136 171.54H145.536C145.536 171.967 145.463 172.367 145.316 172.74C145.17 173.113 144.943 173.42 144.636 173.66C144.33 173.887 143.936 174 143.456 174C143.11 174 142.77 173.94 142.436 173.82C142.116 173.687 141.803 173.56 141.496 173.44C141.19 173.32 140.883 173.26 140.576 173.26C140.376 173.26 140.21 173.32 140.076 173.44C139.956 173.547 139.876 173.733 139.836 174H138.396ZM154.038 186.24C152.891 186.24 151.918 186.047 151.118 185.66C150.318 185.26 149.711 184.653 149.298 183.84C148.885 183.013 148.678 181.98 148.678 180.74C148.678 179.473 148.885 178.44 149.298 177.64C149.711 176.827 150.318 176.227 151.118 175.84C151.918 175.44 152.891 175.24 154.038 175.24C155.211 175.24 156.191 175.44 156.978 175.84C157.778 176.227 158.385 176.827 158.798 177.64C159.211 178.44 159.418 179.473 159.418 180.74C159.418 181.98 159.211 183.013 158.798 183.84C158.385 184.653 157.778 185.26 156.978 185.66C156.191 186.047 155.211 186.24 154.038 186.24ZM154.038 184.08C154.651 184.08 155.138 183.967 155.498 183.74C155.871 183.513 156.145 183.167 156.318 182.7C156.491 182.233 156.578 181.66 156.578 180.98V180.5C156.578 179.82 156.491 179.247 156.318 178.78C156.145 178.313 155.871 177.967 155.498 177.74C155.138 177.5 154.651 177.38 154.038 177.38C153.438 177.38 152.951 177.5 152.578 177.74C152.218 177.967 151.951 178.313 151.778 178.78C151.605 179.247 151.518 179.82 151.518 180.5V180.98C151.518 181.66 151.605 182.233 151.778 182.7C151.951 183.167 152.218 183.513 152.578 183.74C152.951 183.967 153.438 184.08 154.038 184.08Z" fill="#010101"/>



<path d="M190.5 54.25H186.125L184.875 53H178.625L177.375 54.25H173V56.75H190.5M174.25 73C174.25 73.663 174.513 74.2989 174.982 74.7678C175.451 75.2366 176.087 75.5 176.75 75.5H186.75C187.413 75.5 188.049 75.2366 188.518 74.7678C188.987 74.2989 189.25 73.663 189.25 73V58H174.25V73Z" fill="#FEFEFF"/>
<path d="M156.072 99L159.24 90.768H161.448L164.616 99H162.684L162.096 97.38H158.508L157.92 99H156.072ZM159.024 95.94H161.58L160.848 93.912C160.816 93.824 160.776 93.72 160.728 93.6C160.688 93.472 160.644 93.332 160.596 93.18C160.548 93.028 160.5 92.88 160.452 92.736C160.412 92.584 160.372 92.448 160.332 92.328H160.26C160.22 92.48 160.168 92.66 160.104 92.868C160.04 93.068 159.976 93.264 159.912 93.456C159.848 93.64 159.796 93.792 159.756 93.912L159.024 95.94ZM165.596 99V90.768H169.88C170.472 90.768 170.964 90.88 171.356 91.104C171.756 91.32 172.056 91.628 172.256 92.028C172.464 92.42 172.568 92.888 172.568 93.432C172.568 93.976 172.46 94.452 172.244 94.86C172.036 95.26 171.728 95.572 171.32 95.796C170.912 96.02 170.412 96.132 169.82 96.132H167.384V99H165.596ZM167.384 94.668H169.58C169.956 94.668 170.244 94.56 170.444 94.344C170.652 94.128 170.756 93.828 170.756 93.444C170.756 93.18 170.712 92.96 170.624 92.784C170.536 92.608 170.404 92.472 170.228 92.376C170.06 92.28 169.844 92.232 169.58 92.232H167.384V94.668ZM172.326 99L175.494 90.768H177.702L180.87 99H178.938L178.35 97.38H174.762L174.174 99H172.326ZM175.278 95.94H177.834L177.102 93.912C177.07 93.824 177.03 93.72 176.982 93.6C176.942 93.472 176.898 93.332 176.85 93.18C176.802 93.028 176.754 92.88 176.706 92.736C176.666 92.584 176.626 92.448 176.586 92.328H176.514C176.474 92.48 176.422 92.66 176.358 92.868C176.294 93.068 176.23 93.264 176.166 93.456C176.102 93.64 176.05 93.792 176.01 93.912L175.278 95.94ZM185.406 99.144C184.11 99.144 183.11 98.8 182.406 98.112C181.71 97.416 181.362 96.34 181.362 94.884C181.362 93.916 181.53 93.12 181.866 92.496C182.202 91.864 182.69 91.396 183.33 91.092C183.97 90.78 184.738 90.624 185.634 90.624C186.17 90.624 186.674 90.684 187.146 90.804C187.618 90.924 188.034 91.108 188.394 91.356C188.762 91.604 189.046 91.916 189.246 92.292C189.454 92.66 189.558 93.1 189.558 93.612H187.746C187.746 93.364 187.69 93.144 187.578 92.952C187.474 92.76 187.326 92.6 187.134 92.472C186.942 92.344 186.722 92.248 186.474 92.184C186.226 92.12 185.966 92.088 185.694 92.088C185.278 92.088 184.914 92.144 184.602 92.256C184.29 92.36 184.03 92.524 183.822 92.748C183.622 92.964 183.47 93.236 183.366 93.564C183.262 93.892 183.21 94.272 183.21 94.704V95.064C183.21 95.664 183.298 96.156 183.474 96.54C183.65 96.924 183.914 97.212 184.266 97.404C184.618 97.588 185.054 97.68 185.574 97.68C186.006 97.68 186.386 97.616 186.714 97.488C187.05 97.352 187.31 97.16 187.494 96.912C187.686 96.664 187.782 96.36 187.782 96V95.916H185.322V94.548H189.558V99H188.382L188.226 98.112C187.986 98.344 187.726 98.536 187.446 98.688C187.174 98.84 186.87 98.952 186.534 99.024C186.198 99.104 185.822 99.144 185.406 99.144ZM190.443 99L193.611 90.768H195.819L198.987 99H197.055L196.467 97.38H192.879L192.291 99H190.443ZM193.395 95.94H195.951L195.219 93.912C195.187 93.824 195.147 93.72 195.099 93.6C195.059 93.472 195.015 93.332 194.967 93.18C194.919 93.028 194.871 92.88 194.823 92.736C194.783 92.584 194.743 92.448 194.703 92.328H194.631C194.591 92.48 194.539 92.66 194.475 92.868C194.411 93.068 194.347 93.264 194.283 93.456C194.219 93.64 194.167 93.792 194.127 93.912L193.395 95.94ZM199.967 99V90.768H204.479C205.087 90.768 205.591 90.876 205.991 91.092C206.399 91.308 206.703 91.612 206.903 92.004C207.103 92.388 207.203 92.832 207.203 93.336C207.203 93.872 207.083 94.348 206.843 94.764C206.603 95.172 206.255 95.484 205.799 95.7L207.479 99H205.499L204.047 96H201.755V99H199.967ZM201.755 94.584H204.239C204.599 94.584 204.879 94.476 205.079 94.26C205.279 94.036 205.379 93.736 205.379 93.36C205.379 93.12 205.335 92.916 205.247 92.748C205.159 92.572 205.031 92.44 204.863 92.352C204.695 92.264 204.487 92.22 204.239 92.22H201.755V94.584Z" fill="#FBF3F3"/>
<path fill-rule="evenodd" clip-rule="evenodd" d="M135.275 53.4097C135.059 53.1945 134.778 53.0554 134.476 53.0134C134.174 52.9714 133.867 53.0288 133.6 53.177C133.333 53.3251 133.122 53.556 132.998 53.8347C132.874 54.1135 132.844 54.425 132.913 54.7222L126.669 60.966H122.011C119.922 60.966 118.878 63.4897 120.354 64.9672L123.937 68.5504L116.962 76.3035C116.342 76.9922 116 77.8859 116 78.8122V79.2472H116.437C117.363 79.247 118.255 78.9044 118.944 78.2854L126.697 71.3085L130.28 74.8897C131.758 76.3672 134.281 75.321 134.281 73.2341V68.5785L140.525 62.3347C140.823 62.4039 141.135 62.3743 141.414 62.2503C141.693 62.1263 141.925 61.9147 142.073 61.6475C142.221 61.3803 142.278 61.0721 142.236 60.7695C142.194 60.4669 142.054 60.1864 141.837 59.9704L140.707 58.8379L136.407 54.5385L135.275 53.4079V53.4097Z" fill="#FEFEFF"/>
<path d="M236.948 53.0041C236.737 53.0423 236.541 53.1386 236.381 53.2823C236.222 53.4259 236.106 53.6112 236.046 53.8172C235.986 54.0233 235.985 54.2419 236.042 54.4487C236.1 54.6554 236.214 54.842 236.371 54.9875L259.448 78.0645C259.55 78.19 259.677 78.2928 259.821 78.3662C259.965 78.4395 260.123 78.4817 260.285 78.4901C260.446 78.4985 260.608 78.4728 260.759 78.4148C260.91 78.3568 261.047 78.2678 261.161 78.1534C261.275 78.039 261.364 77.9019 261.422 77.751C261.48 77.6 261.505 77.4386 261.497 77.2771C261.488 77.1157 261.446 76.9578 261.373 76.8138C261.299 76.6697 261.196 76.5427 261.071 76.441L252.525 67.8968V54.5179C252.525 53.0583 251.25 52.6925 250.253 53.6895L244.231 59.6029L237.995 53.3641C237.876 53.2372 237.73 53.1389 237.567 53.0766C237.405 53.0143 237.23 52.9895 237.057 53.0041C237.021 53.0024 236.984 53.0024 236.948 53.0041ZM238.679 61.1537C238.043 61.1537 237.525 61.6706 237.525 62.3075V69.2306C237.525 69.8652 238.043 70.3845 238.679 70.3845H242.646L250.218 77.7748C251.371 78.9287 252.525 78.3379 252.525 76.7652V73.8079L239.869 61.1537H238.679Z" fill="#FEFEFF"/>
<path d="M313 76.5V57.5L315.875 54H332.625L335.5 57.5V76.5H313ZM316 57.75H332.5L331.438 56.5H317.062L316 57.75ZM324.25 72.75L329.25 67.75L327.5 66L325.5 68V62.75H323V68L321 66L319.25 67.75L324.25 72.75Z" fill="#FEFEFF"/>
</g>
<defs>
<clipPath id="clip0_0_1">
<rect width="390" height="844" fill="white"/>
</clipPath>
<clipPath id="clip1_0_1">
<rect width="31" height="32" fill="white" transform="translate(309 799)"/>
</clipPath>

</defs>
</svg>

